<?xml version="1.0" standalone="no"?>
<!DOCTYPE svg PUBLIC "-//W3C//DTD SVG 1.1//EN" "http://www.w3.org/Graphics/SVG/1.1/DTD/svg11.dtd" >
<svg>
<metadata>
Created by FontForge 20090914 at Wed Jul 25 15:58:47 2018
 By www-data
Copyright (c) 2010 - 2013, Matt McInerney (matt@pixelspread.com), Pablo Impallari (impallari@gmail.com), Rodrigo Fuenzalida (hello@rfuenzalida.com) with Reserved Font Name "Raleway"
</metadata>
<defs>
<font id="Raleway-Black" horiz-adv-x="609" >
  <font-face 
    font-family="Raleway Black"
    font-weight="900"
    font-stretch="normal"
    units-per-em="1000"
    panose-1="2 11 10 3 3 1 1 6 0 3"
    ascent="800"
    descent="-200"
    x-height="526"
    cap-height="710"
    bbox="-189 -234 1306 931.999"
    underline-thickness="50"
    underline-position="-50"
    unicode-range="U+000D-U+FB06"
  />
<missing-glyph horiz-adv-x="0" 
 />
    <glyph glyph-name="f_f" unicode="ff" horiz-adv-x="691" 
d="M611 580c-31.333 0 -46.998 -17 -46.998 -51v-64h115v-143h-115v-322h-190v322h-99v-322h-190v322h-65v143h65v23c0 32.667 4.5 62.5 13.5 89.5s22 50 39 69s37.667 33.667 62 44s51.5 15.5 81.5 15.5c41.333 0 88.666 -10 141.999 -30
c17.333 20 38.166 35.667 62.499 47s52.5 17 84.5 17c42 0 89.667 -10 143 -30l-32 -144c-11.333 4 -23.5 7.33301 -36.5 10s-24.167 4 -33.5 4zM374.002 537c-9.33301 2.66699 -18.668 4.83301 -28.001 6.5s-17.666 2.5 -24.999 2.5c-30.667 0 -46 -17 -46 -51v-30h99v72z
" />
    <glyph glyph-name="f_i" unicode="fi" horiz-adv-x="621" 
d="M85 322l-65 -0.000976562v143h65v57c0 32.667 5.83301 62.5 17.5 89.5s28.167 50 49.5 69s46.5 33.667 75.5 44s61.167 15.5 96.5 15.5c38.667 0 76.167 -6.5 112.5 -19.5s75.5 -33.167 117.5 -60.5l-72 -144c-23.333 20 -47.5 35.667 -72.5 47s-49.167 17 -72.5 17
c-19.333 0 -34.5 -4.16699 -45.5 -12.5s-16.5 -21.166 -16.5 -38.499v-64h299v-465h-190v322h-109v-322h-190v322z" />
    <glyph glyph-name="f_l" unicode="fl" horiz-adv-x="718" 
d="M720 24c-0.666992 -0.666992 -5.66699 -2.83203 -15 -6.49902s-21.166 -7.5 -35.499 -11.5s-30.5 -7.5 -48.5 -10.5s-36 -4.5 -54 -4.5c-25.333 0 -47.833 3.33301 -67.5 10s-36.334 15.834 -50.001 27.501s-24.167 25 -31.5 40s-11 31.167 -11 48.5v356
c0 36 -3.66699 62.833 -11 80.5s-24.333 26.5 -51 26.5c-27.333 0 -45.833 -8 -55.5 -24s-14.5 -36.667 -14.5 -62v-29h69v-143h-69v-322h-190v322h-65v143h65v75c0 34.667 6.16699 64.667 18.5 90s29.5 46.166 51.5 62.499s48.5 28.333 79.5 36s65.167 11.5 102.5 11.5
c45.333 0 84.333 -5.5 117 -16.5s59.667 -26.5 81 -46.5s37 -44.167 47 -72.5s15 -59.833 15 -94.5v-293c0 -12.667 3.16699 -25.334 9.5 -38.001s17.5 -19 33.5 -19c5.33301 0 11.333 0.833008 18 2.5s12.667 3.5 18 5.5s10 3.83301 14 5.5s6.33301 2.5 7 2.5z" />
    <glyph glyph-name="f_f_i" unicode="ffi" horiz-adv-x="911" 
d="M85 322h-64.999v143h65v23c0 32.667 4.5 62.5 13.5 89.5s22 50 39 69s37.667 33.667 62 44s51.5 15.5 81.5 15.5c41.333 0 88.666 -10 141.999 -30c21.333 20 47.833 35.667 79.5 47s67.5 17 107.5 17c34 0 70.167 -6.33301 108.5 -19s79.833 -33 124.5 -61l-72 -144
c-21.333 19.333 -45 34.833 -71 46.5s-49 17.5 -69 17.5c-44.667 0 -67 -17 -67 -51v-64h300v-465h-191v322h-109v-322h-190v322h-99v-322h-190v322zM374.001 465l-0.00195312 71.999c-9.33301 2.66699 -18.666 4.83398 -27.999 6.50098s-17.666 2.5 -24.999 2.5
c-30.667 0 -46 -17 -46 -51v-30h99z" />
    <glyph glyph-name="f_f_l" unicode="ffl" horiz-adv-x="1006" 
d="M855 -9c-25.333 0 -47.833 3.33105 -67.5 9.99805s-36.334 15.834 -50.001 27.501s-24.167 25 -31.5 40s-11 31.167 -11 48.5v366c0 14.667 -0.666992 27.834 -2 39.501s-4.5 21.834 -9.5 30.501s-12 15.334 -21 20.001s-20.833 7 -35.5 7c-24 0 -40.667 -8.5 -50 -25.5
s-14 -37.167 -14 -60.5v-29h69v-143h-69v-322h-190v322h-98v-322h-190v322h-65v143h65v23c0 32.667 4.66699 62.5 14 89.5s22.333 50 39 69s36.834 33.667 60.501 44s50.167 15.5 79.5 15.5c44 0 92.667 -10 146 -30c22 22 50.167 38.167 84.5 48.5
s73.166 15.5 116.499 15.5c45.333 0 84.333 -5.5 117 -16.5s59.667 -26.5 81 -46.5s37 -44.167 47 -72.5s15 -59.833 15 -94.5v-293c0 -12.667 3.16699 -25.334 9.5 -38.001s17.5 -19 33.5 -19c5.33301 0 11.333 0.833008 18 2.5s12.667 3.5 18 5.5s10 3.83301 14 5.5
s6.33301 2.5 7 2.5l23 -152c-0.666992 -0.666992 -5.66699 -2.83398 -15 -6.50098s-21.166 -7.5 -35.499 -11.5s-30.5 -7.5 -48.5 -10.5s-36 -4.5 -54 -4.5zM373 464.998l-0.000976562 73c-19.333 5.33301 -36.666 8 -51.999 8c-30.667 0 -46 -17 -46 -51v-30h98z" />
    <glyph glyph-name=".notdef" horiz-adv-x="0" 
 />
    <glyph glyph-name="NULL" horiz-adv-x="0" 
 />
    <glyph glyph-name="NULL" horiz-adv-x="0" 
 />
    <glyph glyph-name="nonmarkingreturn" unicode="&#xd;" horiz-adv-x="0" 
 />
    <glyph glyph-name="space" unicode=" " horiz-adv-x="225" 
 />
    <glyph glyph-name="exclam" unicode="!" horiz-adv-x="362" 
d="M86 300v417h190v-417h-190zM86 0v184h190v-184h-190z" />
    <glyph glyph-name="quotedbl" unicode="&#x22;" horiz-adv-x="476" 
d="M53 496v234h160v-234h-160zM263 496v234h160v-234h-160z" />
    <glyph glyph-name="numbersign" unicode="#" horiz-adv-x="757" 
d="M721 397h-159l-20 -87h128v-140h-162l-41 -170h-151l42 170h-60l-41 -170h-151l42 170h-112v140h146l20 87h-115v130h147l45 183h151l-46 -183h60l45 183h151l-46 -183h127v-130zM392 310l20 87h-60l-20 -87h60z" />
    <glyph glyph-name="dollar" unicode="$" horiz-adv-x="649" 
d="M510 478c-14.667 9.33301 -30.665 18 -47.998 26c-14.667 7.33301 -31.167 14.166 -49.5 20.499s-36.833 11.166 -55.5 14.499v-90c6 -1.33301 12.333 -3.16602 19 -5.49902s13.667 -4.5 21 -6.5c32.667 -10 62.167 -21 88.5 -33s48.833 -26.167 67.5 -42.5
s33 -36.166 43 -59.499s15 -51.666 15 -84.999c0 -39.333 -6.83301 -72.833 -20.5 -100.5s-31.667 -50.334 -54 -68.001s-47.833 -31 -76.5 -40s-58.334 -14.5 -89.001 -16.5v-121h-80v123c-46 4 -91.667 13 -137 27s-86 31.667 -122 53l84 171
c18 -11.333 37.333 -22 58 -32c17.333 -8.66699 37.5 -17.167 60.5 -25.5s46.5 -14.166 70.5 -17.499v88c-20.667 5.33301 -41.334 11.666 -62.001 18.999c-31.333 10.667 -58.333 22.167 -81 34.5s-41.334 26.333 -56.001 42s-25.5 33.5 -32.5 53.5s-10.5 43 -10.5 69
c0 36 6 67.833 18 95.5s28.333 51.5 49 71.5s44.834 36 72.501 48s57.167 19.667 88.5 23v101h80v-102c22 -2.66699 43.333 -6.66699 64 -12s40.5 -11.5 59.5 -18.5s36.833 -14.333 53.5 -22l46 -21.5zM401.002 198c0 9.33301 -4 17.501 -12 24.501s-18.667 13.167 -32 18.5
v-74c16 1.33301 27.333 4.66602 34 9.99902s10 12.333 10 21zM265.002 508.001c0 -10 3.33301 -18.1689 10 -24.502s16.667 -12.166 30 -17.499v76c-26.667 -3.33301 -40 -14.666 -40 -33.999z" />
    <glyph glyph-name="percent" unicode="%" horiz-adv-x="851" 
d="M211 404c-25.333 0 -48.833 4.16699 -70.5 12.5s-40.5 19.5 -56.5 33.5s-28.5 30.667 -37.5 50s-13.5 40 -13.5 62s4.5 42.667 13.5 62s21.5 36 37.5 50s34.833 25.167 56.5 33.5s45.167 12.5 70.5 12.5c24.667 0 47.834 -4.16699 69.501 -12.5s40.5 -19.5 56.5 -33.5
s28.667 -30.667 38 -50s14 -40 14 -62s-4.66699 -42.667 -14 -62s-22 -36 -38 -50s-34.833 -25.167 -56.5 -33.5s-44.834 -12.5 -69.501 -12.5zM211 494c13.333 0 24.666 6.66699 33.999 20s14 29.333 14 48s-4.66699 34.667 -14 48s-20.666 20 -33.999 20
s-24.666 -6.66699 -33.999 -20s-14 -29.333 -14 -48s4.66699 -34.667 14 -48s20.666 -20 33.999 -20zM640 -10c-25.333 0 -48.833 4.16699 -70.5 12.5s-40.5 19.5 -56.5 33.5s-28.5 30.667 -37.5 50s-13.5 40 -13.5 62s4.5 42.667 13.5 62s21.5 36 37.5 50
s34.833 25.167 56.5 33.5s45.167 12.5 70.5 12.5c24.667 0 47.834 -4.16699 69.501 -12.5s40.5 -19.5 56.5 -33.5s28.667 -30.667 38 -50s14 -40 14 -62s-4.66699 -42.667 -14 -62s-22 -36 -38 -50s-34.833 -25.167 -56.5 -33.5s-44.834 -12.5 -69.501 -12.5zM640 80
c13.333 0 24.666 6.66699 33.999 20s14 29.333 14 48s-4.66699 34.667 -14 48s-20.666 20 -33.999 20s-24.666 -6.66699 -33.999 -20s-14 -29.333 -14 -48s4.66699 -34.667 14 -48s20.666 -20 33.999 -20zM117 65l283 319l251 337l83 -75l-271 -309l-263 -347z" />
    <glyph glyph-name="ampersand" unicode="&#x26;" horiz-adv-x="749" 
d="M506 0l-38 40.002c-28.667 -17.333 -58.5 -30 -89.5 -38s-62.167 -12 -93.5 -12c-41.333 0 -77.5 6.66699 -108.5 20s-57 30.666 -78 51.999s-36.833 45.5 -47.5 72.5s-16 54.167 -16 81.5c0 40.667 9.83301 75.834 29.5 105.501s43.167 55.5 70.5 77.5
c-21.333 26 -36.333 49.167 -45 69.5s-13 42.833 -13 67.5c0 28.667 5.33301 54.5 16 77.5s25.167 42.167 43.5 57.5s40.166 27.166 65.499 35.499s53 12.5 83 12.5c26 0 51.5 -3.16699 76.5 -9.5s47.333 -16.333 67 -30s35.5 -31.334 47.5 -53.001s18 -47.834 18 -78.501
c0 -36 -8.33301 -68.333 -25 -97s-39 -55 -67 -79l82 -87c7.33301 18.667 13 38.834 17 60.501s6 45.167 6 70.5h153c-0.666992 -51.333 -6.66699 -97.5 -18 -138.5s-26.666 -77.833 -45.999 -110.5l159 -167h-249zM305 138.002c20 0 39.667 4.33398 59 13.001l-113 121
c-22.667 -18.667 -34 -37.334 -34 -56.001c0 -7.33301 1.5 -15.5 4.5 -24.5s8 -17.5 15 -25.5s16.167 -14.667 27.5 -20s25 -8 41 -8zM249 544.003c0 -8.66699 2.49902 -16.168 7.49902 -22.501s13.5 -15.166 25.5 -26.499c13.333 9.33301 23 17.5 29 24.5s9 15.833 9 26.5
c0 11.333 -3.16699 20 -9.5 26s-14.833 9 -25.5 9c-11.333 0 -20.166 -3.5 -26.499 -10.5s-9.5 -15.833 -9.5 -26.5z" />
    <glyph glyph-name="quotesingle" unicode="'" horiz-adv-x="266" 
d="M53 496v234h160v-234h-160z" />
    <glyph glyph-name="parenleft" unicode="(" horiz-adv-x="342" 
d="M25 348c0 34 4.00195 68.167 12.002 102.5s19 69 33 104s30.5 70.667 49.5 107s39.5 73.166 61.5 110.499l145 -58c-8 -12.667 -18.833 -32.167 -32.5 -58.5s-27.334 -56.5 -41.001 -90.5s-25.5 -70.167 -35.5 -108.5s-15 -75.5 -15 -111.5
c0 -54.667 11.5 -110 34.5 -166s51.167 -115.333 84.5 -178l-138 -67c-20.667 30.667 -40.5 62.834 -59.5 96.501s-35.833 68 -50.5 103s-26.334 70.5 -35.001 106.5s-13 72 -13 108z" />
    <glyph glyph-name="parenright" unicode=")" horiz-adv-x="341" 
d="M316 348c0 -36 -4.33105 -72 -12.998 -108s-20.334 -71.5 -35.001 -106.5s-31.5 -69.333 -50.5 -103s-38.833 -65.834 -59.5 -96.501l-138 67c33.333 62.667 61.5 122 84.5 178s34.5 111.333 34.5 166c0 36 -5 73.167 -15 111.5s-21.833 74.5 -35.5 108.5
s-27.334 64.167 -41.001 90.5s-24.5 45.833 -32.5 58.5l145 58c22 -37.333 42.5 -74.166 61.5 -110.499s35.5 -72 49.5 -107s25 -69.667 33 -104s12 -68.5 12 -102.5z" />
    <glyph glyph-name="asterisk" unicode="*" horiz-adv-x="364" 
d="M65 499l49 78l-72 21l24 77l75 -36l-7 82h96l-7 -82l75 36l24 -77l-72 -21l49 -78l-69 -45l-48 83l-48 -83z" />
    <glyph glyph-name="plus" unicode="+" horiz-adv-x="428" 
d="M384 430v-150h-85v-95h-170v95h-85v150h85v95h170v-95h85z" />
    <glyph glyph-name="comma" unicode="," horiz-adv-x="257" 
d="M71 -157l36 157h-57v184h157v-184l-54 -157h-82z" />
    <glyph glyph-name="hyphen" unicode="-" horiz-adv-x="413" 
d="M50 191v170h313v-170h-313z" />
    <glyph glyph-name="period" unicode="." horiz-adv-x="254" 
d="M50 0v184h154v-184h-154z" />
    <glyph glyph-name="slash" unicode="/" horiz-adv-x="777" 
d="M751 710l-516 -710h-209l515 710h210z" />
    <glyph glyph-name="zero" unicode="0" horiz-adv-x="614" 
d="M572 293c0 -44 -6.66699 -84.5 -20 -121.5s-31.833 -69 -55.5 -96s-51.667 -48 -84 -63s-67.5 -22.5 -105.5 -22.5s-73.167 7.5 -105.5 22.5s-60.333 36 -84 63s-42.167 59 -55.5 96s-20 77.5 -20 121.5s6.66699 84.5 20 121.5s31.833 69 55.5 96s51.667 48.167 84 63.5
s67.5 23 105.5 23s73.167 -7.66699 105.5 -23s60.333 -36.5 84 -63.5s42.167 -59 55.5 -96s20 -77.5 20 -121.5zM380 293c0 38.667 -6.83301 70 -20.5 94s-31.167 36 -52.5 36c-22.667 0 -40.834 -12 -54.501 -36s-20.5 -55.333 -20.5 -94s6.83301 -69.834 20.5 -93.501
s31.834 -35.5 54.501 -35.5c21.333 0 38.833 11.833 52.5 35.5s20.5 54.834 20.5 93.501z" />
    <glyph glyph-name="one" unicode="1" horiz-adv-x="547" 
d="M523 170l-0.000976562 -169.999h-463v170h142v199c-6 -8 -15.333 -15.833 -28 -23.5s-26.834 -14.834 -42.501 -21.501s-31.5 -12 -47.5 -16s-30.333 -6 -43 -6v174c9.33301 0 22.333 3.5 39 10.5s33.334 15.333 50.001 25s31.834 20 45.501 31s22.5 20.5 26.5 28.5h194
v-401h127z" />
    <glyph glyph-name="two" unicode="2" horiz-adv-x="599" 
d="M31 0c0 33.333 2.66797 62.667 8.00098 88s14 48.166 26 68.499s27.5 38.5 46.5 54.5s42.5 31.667 70.5 47l85.5 46.5c21 11.667 36.833 21.167 47.5 28.5s17.5 13.5 20.5 18.5s4.5 10.5 4.5 16.5c0 16.667 -5.33301 29 -16 37s-25.334 12 -44.001 12
c-22 0 -42.833 -5.66699 -62.5 -17s-40.167 -29.666 -61.5 -54.999l-120 141c12.667 14 29 26.833 49 38.5s42.167 21.667 66.5 30s50.166 14.833 77.499 19.5s55.333 7 84 7c76.667 0 134.834 -15.833 174.501 -47.5s59.5 -75.834 59.5 -132.501
c0 -20.667 -2.66699 -39 -8 -55s-12.5 -30.5 -21.5 -43.5s-19.833 -24.833 -32.5 -35.5s-26 -20.667 -40 -30c-16.667 -11.333 -34.167 -22.166 -52.5 -32.499s-36.5 -21.833 -54.5 -34.5h220v-170h-527z" />
    <glyph glyph-name="three" unicode="3" horiz-adv-x="581" 
d="M408 237c20.667 -3.33301 39.4951 -10.333 56.4951 -21s31.667 -24 44 -40s22 -34.167 29 -54.5s10.5 -41.833 10.5 -64.5c0 -31.333 -6.66699 -59.666 -20 -84.999s-32.166 -46.833 -56.499 -64.5s-54.166 -31.167 -89.499 -40.5s-75 -14 -119 -14
c-51.333 0 -96.666 6.5 -135.999 19.5s-75 33.167 -107 60.5l97 138c19.333 -15.333 39.833 -26.5 61.5 -33.5s46.5 -10.5 74.5 -10.5c34 0 58.833 5.16699 74.5 15.5s23.5 26.833 23.5 49.5c0 25.333 -10 43.5 -30 54.5s-52.667 16.5 -98 16.5h-31v132h35
c32 0 57.667 6.16699 77 18.5s29 29.166 29 50.499c0 16 -5.66699 28.5 -17 37.5s-27.333 13.5 -48 13.5c-23.333 0 -45.166 -5.83301 -65.499 -17.5s-38.166 -29.167 -53.499 -52.5l-120 141c12 13.333 27.167 25.5 45.5 36.5s39 20.5 62 28.5s47.5 14.167 73.5 18.5
s52.667 6.5 80 6.5c36.667 0 70.334 -4.16699 101.001 -12.5s56.667 -20.166 78 -35.499s38 -33.833 50 -55.5s18 -45.834 18 -72.501c0 -20 -3.33301 -39 -10 -57s-15.667 -34.333 -27 -49s-24.833 -27 -40.5 -37s-32.834 -16.667 -51.501 -20z" />
    <glyph glyph-name="four" unicode="4" horiz-adv-x="586" 
d="M272 -127v124h-257v170l317 404h130v-404h88v-170h-88v-124h-190zM202 167h92v120z" />
    <glyph glyph-name="five" unicode="5" horiz-adv-x="562" 
d="M300 326c34.667 0 66.333 -5.66992 95 -17.0029s53.5 -27.166 74.5 -47.499s37.333 -44.666 49 -72.999s17.5 -59.5 17.5 -93.5c0 -36 -6.66699 -69 -20 -99s-32.166 -55.667 -56.499 -77s-53.333 -38 -87 -50s-70.834 -18 -111.501 -18c-52 0 -98.833 9.66699 -140.5 29
s-73.834 47 -96.501 83l104 120c19.333 -20.667 40.833 -36.834 64.5 -48.501s46.834 -17.5 69.501 -17.5c24.667 0 44 6.66699 58 20s21 31.333 21 54c0 22 -6.33301 39.667 -19 53s-29.334 20 -50.001 20c-14 0 -26.833 -3.16699 -38.5 -9.5s-20.5 -14.833 -26.5 -25.5
h-163l84 442h356v-173h-219l-11 -77c2.66699 0.666992 6.33398 1.33398 11.001 2.00098c3.33301 0.666992 8 1.33398 14 2.00098s13 1 21 1z" />
    <glyph glyph-name="six" unicode="6" 
d="M572 240c0 -35.333 -6.66699 -68.167 -20 -98.5s-32 -56.666 -56 -78.999s-52.167 -40 -84.5 -53s-67.5 -19.5 -105.5 -19.5c-85.333 0 -151.166 30.667 -197.499 92s-69.5 147.333 -69.5 258c0 58.667 6.5 111.167 19.5 157.5s31.833 85.666 56.5 117.999
s54.667 57.166 90 74.499s75.333 26 120 26c86.667 0 162 -32 226 -96l-105 -122c-36 36 -77.333 54 -124 54c-32.667 0 -58.5 -9.83301 -77.5 -29.5s-29.167 -47.5 -30.5 -83.5c25.333 22.667 61.333 34 108 34c36 0 69.167 -5.83301 99.5 -17.5s56.666 -28 78.999 -49
s39.833 -45.667 52.5 -74s19 -59.166 19 -92.499zM306 148.999c11.333 0 22.166 2.5 32.499 7.5s19.333 11.667 27 20s13.834 18 18.501 29s7 22.5 7 34.5c0 23.333 -8.33301 43.166 -25 59.499s-36.667 24.5 -60 24.5s-43.333 -8.16699 -60 -24.5s-25 -36.166 -25 -59.499
c0 -12 2.33301 -23.5 7 -34.5s10.834 -20.667 18.501 -29s16.667 -15 27 -20s21.166 -7.5 32.499 -7.5z" />
    <glyph glyph-name="seven" unicode="7" horiz-adv-x="593" 
d="M301 411h-271v173h570l-347 -710h-215z" />
    <glyph glyph-name="eight" unicode="8" horiz-adv-x="611" 
d="M573 221c0 -34.667 -6.99609 -66.1729 -20.9961 -94.5059s-33.167 -52.666 -57.5 -72.999s-52.833 -36 -85.5 -47s-67.334 -16.5 -104.001 -16.5c-35.333 0 -69.166 5.5 -101.499 16.5s-60.833 26.833 -85.5 47.5s-44.334 45.667 -59.001 75s-22 62 -22 98
c0 18 2.66699 34.667 8 50s12.166 29.333 20.499 42s17.5 24 27.5 34s20 18.667 30 26c-19.333 11.333 -35.166 28.333 -47.499 51s-18.5 45.667 -18.5 69c0 34 7.83301 64.167 23.5 90.5s35.5 48.5 59.5 66.5s50.667 31.5 80 40.5s57.666 13.5 84.999 13.5
s55.666 -4.5 84.999 -13.5s56.166 -22.167 80.499 -39.5s44.333 -39.166 60 -65.499s23.5 -56.5 23.5 -90.5c0 -23.333 -6.33301 -46.666 -19 -69.999s-28.667 -40.666 -48 -51.999c10 -7.33301 20.167 -16.166 30.5 -26.499s19.5 -22.166 27.5 -35.499s14.667 -28 20 -44
s8 -33.333 8 -52zM380.004 231.994c0 22 -7.16699 38.999 -21.5 50.999s-32.166 18 -53.499 18c-22 0 -40 -6.16699 -54 -18.5s-21 -29.166 -21 -50.499c0 -19.333 7.16699 -35.666 21.5 -48.999s32.166 -20 53.499 -20c22 0 40 6.66699 54 20s21 29.666 21 48.999z
M250.004 494.993c0 -18 5.83301 -31.333 17.5 -40s24.167 -13 37.5 -13s26 4.33301 38 13s18 22 18 40c0 13.333 -5.16699 24.666 -15.5 33.999s-23.833 14 -40.5 14s-30 -4.66699 -40 -14s-15 -20.666 -15 -33.999z" />
    <glyph glyph-name="nine" unicode="9" horiz-adv-x="589" 
d="M27 321c0 34.667 6.66602 67.3311 19.999 97.998s32 57.167 56 79.5s52.167 40 84.5 53s67.5 19.5 105.5 19.5c42.667 0 80.5 -7.83301 113.5 -23.5s60.833 -38.5 83.5 -68.5s40 -66.667 52 -110s18 -92.666 18 -147.999c0 -58.667 -6.5 -111.167 -19.5 -157.5
s-31.833 -85.666 -56.5 -117.999s-54.667 -57.166 -90 -74.499s-75.333 -26 -120 -26c-86.667 0 -162 32 -226 96l105 122c36 -36 77.333 -54 124 -54c32.667 0 58.5 9.83301 77.5 29.5s29.167 47.5 30.5 83.5c-25.333 -22.667 -61.333 -34 -108 -34
c-36 0 -69.167 5.83301 -99.5 17.5s-56.666 28 -78.999 49s-39.833 45.667 -52.5 74s-19 59.166 -19 92.499zM292.999 411.997c-11.333 0 -22.166 -2.5 -32.499 -7.5s-19.333 -11.667 -27 -20s-13.834 -18 -18.501 -29s-7 -22.5 -7 -34.5
c0 -23.333 8.33301 -43.166 25 -59.499s36.667 -24.5 60 -24.5s43.333 8.16699 60 24.5s25 36.166 25 59.499c0 12 -2.33301 23.5 -7 34.5s-10.834 20.667 -18.501 29s-16.667 15 -27 20s-21.166 7.5 -32.499 7.5z" />
    <glyph glyph-name="colon" unicode=":" horiz-adv-x="304" 
d="M75 335v184h154v-184h-154zM75 0v184h154v-184h-154z" />
    <glyph glyph-name="semicolon" unicode=";" horiz-adv-x="305" 
d="M76 335v184h154v-184h-154zM95 -157l36 157h-57v184h157v-184l-54 -157h-82z" />
    <glyph glyph-name="less" unicode="&#x3c;" horiz-adv-x="521" 
d="M31 298l424 258v-202l-148 -95l148 -87v-212l-424 250v88z" />
    <glyph glyph-name="equal" unicode="=" horiz-adv-x="433" 
d="M55 101v120h323v-120h-323zM55 331v120h323v-120h-323z" />
    <glyph glyph-name="greater" unicode="&#x3e;" horiz-adv-x="521" 
d="M490 210l-424 -250v212l148 87l-148 95v202l424 -258v-88z" />
    <glyph glyph-name="question" unicode="?" horiz-adv-x="495" 
d="M95 259c0 14 0.666992 27.834 2 41.501s4.66602 26.667 9.99902 39s13.333 24.166 24 35.499s25 21.666 43 30.999c7.33301 4 17.833 9.33301 31.5 16s27.334 14.667 41.001 24s25.5 19.833 35.5 31.5s15 24.5 15 38.5c0 15.333 -6 27.5 -18 36.5s-26 13.5 -42 13.5
c-12 0 -22.333 -2.33301 -31 -7s-16.167 -10.334 -22.5 -17.001s-11.666 -13.5 -15.999 -20.5s-8.5 -12.833 -12.5 -17.5l-121 86c17.333 40.667 44.666 72.334 81.999 95.001s80 34 128 34c25.333 0 51 -3.66699 77 -11s49.5 -19 70.5 -35s38 -37 51 -63
s19.5 -57.667 19.5 -95c0 -32 -5.83301 -61.167 -17.5 -87.5s-32.5 -49.5 -62.5 -69.5c-14.667 -10 -29.667 -18.667 -45 -26s-29.5 -14.666 -42.5 -21.999s-23.667 -15 -32 -23s-12.5 -17.333 -12.5 -28h-155zM98 0.000976562v164h155v-164h-155z" />
    <glyph glyph-name="at" unicode="@" horiz-adv-x="852" 
d="M425 603c48.667 0 96.0029 -7.50195 142.003 -22.502s86.833 -38 122.5 -69s64.167 -70.5 85.5 -118.5s32 -105.333 32 -172c0 -9.33301 -0.5 -21.666 -1.5 -36.999s-3.16699 -31.666 -6.5 -48.999s-8.5 -35 -15.5 -53s-16.5 -34.333 -28.5 -49s-27 -26.5 -45 -35.5
s-39.667 -13.5 -65 -13.5c-18.667 0 -34.334 2.33301 -47.001 7s-23 10.667 -31 18s-14 15.333 -18 24s-6.66699 16.667 -8 24c-22.667 -21.333 -48.667 -37.166 -78 -47.499s-59.666 -15.5 -90.999 -15.5c-51.333 0 -90 13 -116 39s-39 61 -39 105
c0 28.667 5.33301 52.834 16 72.501s24.667 35.5 42 47.5s37.166 20.667 59.499 26s45.166 8 68.499 8c25.333 0 46.333 -2.16699 63 -6.5s29.667 -8.83301 39 -13.5c0 13.333 -1.66699 25.666 -5 36.999s-9 21 -17 29s-18.833 14.167 -32.5 18.5s-30.834 6.5 -51.501 6.5
c-28 0 -52.833 -3.66699 -74.5 -11s-39.167 -17.333 -52.5 -30l-32 97c25.333 17.333 53 29.833 83 37.5s61.667 11.5 95 11.5c48 0 85.333 -7 112 -21s46.334 -31.667 59.001 -53s20.167 -44.333 22.5 -69s3.5 -48 3.5 -70v-67c0 -14.667 0.333008 -29.334 1 -44.001
s2.66699 -28 6 -40s8.16602 -21.667 14.499 -29s15.5 -11 27.5 -11c16 0 28.5 6.33301 37.5 19s16 27.834 21 45.501s8.16699 35.5 9.5 53.5s2 32.333 2 43c0 44.667 -7.33301 85.834 -22 123.501s-35.667 70.167 -63 97.5s-60.333 48.666 -99 63.999
s-82.334 23 -131.001 23c-48 0 -91.167 -7.66699 -129.5 -23s-70.666 -36.5 -96.999 -63.5s-46.5 -59 -60.5 -96s-21 -77.5 -21 -121.5c0 -42 6.5 -81.5 19.5 -118.5s32 -69.333 57 -97s55.5 -49.5 91.5 -65.5s77.333 -24 124 -24c17.333 0 33 1.16699 47 3.5
s27.167 5.16602 39.5 8.49902s24.166 7.33301 35.499 12s23.333 9.33398 36 14.001l20 -68c-28.667 -13.333 -58.5 -23.333 -89.5 -30s-61.5 -10 -91.5 -10c-50 0 -97 8.83301 -141 26.5s-82.5 42.834 -115.5 75.501s-59 72.167 -78 118.5s-28.5 98.5 -28.5 156.5
c0 61.333 10.667 115.166 32 161.499s49.833 85.166 85.5 116.499s76.834 54.833 123.501 70.5s95.667 23.5 147 23.5zM465.003 99.998c8.66699 4.66699 17.334 10.999 26.001 18.999s13 17.667 13 29v41c-10 4 -24.167 8.16699 -42.5 12.5s-37.166 6.5 -56.499 6.5
c-28 0 -48.167 -5.66699 -60.5 -17s-18.5 -28.666 -18.5 -51.999c0 -37.333 19.667 -56 59 -56c9.33301 0 21.666 1 36.999 3s29.666 6.66699 42.999 14z" />
    <glyph glyph-name="A" unicode="A" horiz-adv-x="667" 
d="M245 710h178l246 -710h-198l-43 139h-189l-42 -139h-199zM397 269l-63 220l-66 -220h129z" />
    <glyph glyph-name="B" unicode="B" horiz-adv-x="690" 
d="M665 182c0 -32 -6.66895 -59.501 -20.002 -82.501s-31.666 -41.833 -54.999 -56.5s-50.5 -25.5 -81.5 -32.5s-63.833 -10.5 -98.5 -10.5h-349v710h412c24.667 0 47 -5.33301 67 -16s37 -24.5 51 -41.5s24.833 -36.333 32.5 -58s11.5 -43.834 11.5 -66.501
c0 -33.333 -8.5 -65.166 -25.5 -95.499s-42.5 -53.166 -76.5 -68.499c40.667 -12 72.834 -32.833 96.501 -62.5s35.5 -69.5 35.5 -119.5zM466.998 221.999c0 17.333 -4.66699 31.833 -14 43.5s-21.333 17.5 -36 17.5h-161v-119h154c16 0 29.5 5 40.5 15s16.5 24.333 16.5 43
zM255.998 543.999v-108.999h133c13.333 0 25.5 3.66699 36.5 11s16.5 22 16.5 44c0 19.333 -4.66699 33.166 -14 41.499s-20.333 12.5 -33 12.5h-139z" />
    <glyph glyph-name="C" unicode="C" horiz-adv-x="691" 
d="M22 361c0 43.333 8.17188 86 24.5049 128s40.166 79.667 71.499 113s69.333 60.333 114 81s95.667 31 153 31c68.667 0 128.167 -14.167 178.5 -42.5s87.833 -65.833 112.5 -112.5l-149 -106c-6.66699 17.333 -15.5 31.666 -26.5 42.999s-23.167 20.333 -36.5 27
s-27.166 11.334 -41.499 14.001s-28.166 4 -41.499 4c-28 0 -52.167 -5.5 -72.5 -16.5s-37 -25.333 -50 -43s-22.667 -37.667 -29 -60s-9.5 -44.5 -9.5 -66.5c0 -24.667 3.66699 -48.334 11 -71.001s18 -42.667 32 -60s31.167 -31.166 51.5 -41.499
s43.166 -15.5 68.499 -15.5c13.333 0 27 1.5 41 4.5s27.5 8 40.5 15s24.667 16 35 27s18.5 24.5 24.5 40.5l159 -95c-10.667 -26 -26.834 -49.333 -48.501 -70s-46.334 -38 -74.001 -52s-57.334 -24.667 -89.001 -32s-62.5 -11 -92.5 -11
c-52.667 0 -100.834 10.5 -144.501 31.5s-81.334 48.833 -113.001 83.5s-56.167 74 -73.5 118s-26 88.667 -26 134z" />
    <glyph glyph-name="D" unicode="D" horiz-adv-x="716" 
d="M61 0l-0.000976562 710h273c58.667 0 110.334 -9.33301 155.001 -28s82 -44 112 -76s52.667 -69.5 68 -112.5s23 -88.833 23 -137.5c0 -54 -8.5 -102.833 -25.5 -146.5s-41.167 -81 -72.5 -112s-69 -55 -113 -72s-93 -25.5 -147 -25.5h-273zM493.999 356
c0 27.333 -3.66699 52.3311 -11 74.998s-17.833 42 -31.5 58s-30.5 28.5 -50.5 37.5s-42.333 13.5 -67 13.5h-78v-370h78c25.333 0 48 4.66699 68 14s36.833 22.333 50.5 39s24 36.334 31 59.001s10.5 47.334 10.5 74.001z" />
    <glyph glyph-name="E" unicode="E" horiz-adv-x="597" 
d="M567 170v-170h-506v710h497v-170h-302v-100h258v-158h-258v-112h311z" />
    <glyph glyph-name="F" unicode="F" horiz-adv-x="563" 
d="M61 0v710h487v-170h-292v-118h238v-158h-238v-264h-195z" />
    <glyph glyph-name="G" unicode="G" horiz-adv-x="739" 
d="M543 59c-50.667 -42.667 -109.001 -63.998 -175.001 -63.998c-46 0 -90 8.16699 -132 24.5s-78.667 40.166 -110 71.499s-56.333 69.666 -75 114.999s-28 97 -28 155c0 50 9.33301 96.5 28 139.5s44.334 80.333 77.001 112s71.167 56.667 115.5 75
s92.166 27.5 143.499 27.5c32 0 62.667 -3.5 92 -10.5s56.5 -17.333 81.5 -31s47.5 -30 67.5 -49s36.333 -40.5 49 -64.5l-145 -111c-14 28 -35 50.5 -63 67.5s-57.667 25.5 -89 25.5c-23.333 0 -44.666 -4.66699 -63.999 -14s-36 -22.333 -50 -39s-25 -36.5 -33 -59.5
s-12 -48.167 -12 -75.5c0 -28 4 -53.333 12 -76s19.167 -42.167 33.5 -58.5s31.5 -29 51.5 -38s42.333 -13.5 67 -13.5c56.667 0 106.667 23.333 150 70h-123v140h292v-378h-161v59z" />
    <glyph glyph-name="H" unicode="H" horiz-adv-x="750" 
d="M689 710v-710h-195v278h-238v-278h-195v710h195v-262h238v262h195z" />
    <glyph glyph-name="I" unicode="I" horiz-adv-x="317" 
d="M61 0v710h195v-710h-195z" />
    <glyph glyph-name="J" unicode="J" horiz-adv-x="498" 
d="M42 192c2 -1.33301 6.33105 -3.66992 12.998 -7.00293s15 -6.66602 25 -9.99902s21.5 -6.33301 34.5 -9s26.5 -4 40.5 -4c20.667 0 37.334 3.33301 50.001 10s22.334 17.5 29.001 32.5s11 34.333 13 58s3 52.5 3 86.5v361h195v-361c0 -54 -3 -103.167 -9 -147.5
s-19 -82.166 -39 -113.499s-49.167 -55.666 -87.5 -72.999s-89.833 -26 -154.5 -26c-60 0 -111.333 14.667 -154 44z" />
    <glyph glyph-name="K" unicode="K" horiz-adv-x="690" 
d="M61 0v710h195v-270l216 270h220l-258 -318l276 -392h-224l-176 261l-54 -56v-205h-195z" />
    <glyph glyph-name="L" unicode="L" horiz-adv-x="585" 
d="M61 0v710h195v-540h322v-170h-517z" />
    <glyph glyph-name="M" unicode="M" horiz-adv-x="854" 
d="M598 0v374l-119 -263h-104l-119 263v-374h-195v710h213l153 -334l154 334h212v-710h-195z" />
    <glyph glyph-name="N" unicode="N" horiz-adv-x="754" 
d="M256 349v-349h-195v710h152l285 -361v361h195v-710h-155z" />
    <glyph glyph-name="O" unicode="O" horiz-adv-x="765" 
d="M381 -6c-54 0 -103 10.3311 -147 30.998s-81.667 47.834 -113 81.501s-55.666 72.167 -72.999 115.5s-26 88 -26 134c0 46.667 9 91.667 27 135s43.167 81.5 75.5 114.5s70.666 59.333 114.999 79s92.833 29.5 145.5 29.5c54 0 103 -10.333 147 -31s81.667 -48 113 -82
s55.5 -72.667 72.5 -116s25.5 -87.666 25.5 -132.999c0 -46.667 -9 -91.5 -27 -134.5s-43 -81 -75 -114s-70.167 -59.5 -114.5 -79.5s-92.833 -30 -145.5 -30zM220 353.998c0 -24 3.33203 -47.1689 9.99902 -69.502s16.667 -42.166 30 -59.499s30.166 -31.333 50.499 -42
s44.5 -16 72.5 -16s52.333 5.5 73 16.5s37.5 25.333 50.5 43s22.667 37.834 29 60.501s9.5 45.667 9.5 69c0 24 -3.33301 47.167 -10 69.5s-16.834 42 -30.501 59s-30.667 30.667 -51 41s-44.166 15.5 -71.499 15.5c-28 0 -52.167 -5.33301 -72.5 -16
s-37.166 -24.834 -50.499 -42.501s-23.166 -37.667 -29.499 -60s-9.5 -45.166 -9.5 -68.499z" />
    <glyph glyph-name="P" unicode="P" horiz-adv-x="623" 
d="M61 0l-0.000976562 710h306c34.667 0 66.667 -7.16699 96 -21.5s54.5 -33 75.5 -56s37.5 -49.333 49.5 -79s18 -59.5 18 -89.5c0 -31.333 -5.66699 -61.833 -17 -91.5s-27.166 -56 -47.499 -79s-45 -41.333 -74 -55s-60.833 -20.5 -95.5 -20.5h-116v-218h-195z
M255.999 388h103c12 0 23.167 5.5 33.5 16.5s15.5 30.833 15.5 59.5c0 29.333 -6 49.333 -18 60s-24 16 -36 16h-98v-152z" />
    <glyph glyph-name="Q" unicode="Q" horiz-adv-x="765" 
d="M547 34c-24.667 -12.667 -50.8311 -22.333 -78.498 -29s-56.834 -10 -87.501 -10c-54 0 -103 10.167 -147 30.5s-81.667 47.333 -113 81s-55.666 72.167 -72.999 115.5s-26 88 -26 134c0 46.667 9 91.667 27 135s43.167 81.666 75.5 114.999s70.666 59.833 114.999 79.5
s92.833 29.5 145.5 29.5c54 0 103 -10.5 147 -31.5s81.667 -48.5 113 -82.5s55.5 -72.667 72.5 -116s25.5 -87.666 25.5 -132.999c0 -44 -7.83301 -86.167 -23.5 -126.5s-37.834 -76.5 -66.501 -108.5l108 -117h-182zM383.003 168.001c14.667 0 27 1.33203 37 3.99902
l-117 128h182l39 -43c7.33301 15.333 12.666 31.333 15.999 48s5 33.667 5 51c0 24 -3.33301 47.167 -10 69.5s-16.834 42.166 -30.501 59.499s-30.667 31.166 -51 41.499s-44.166 15.5 -71.499 15.5c-28 0 -52.167 -5.5 -72.5 -16.5s-37.166 -25.333 -50.499 -43
s-23.166 -37.667 -29.499 -60s-9.5 -45.166 -9.5 -68.499c0 -24 3.33301 -47.167 10 -69.5s16.667 -42.166 30 -59.499s30.166 -31.166 50.499 -41.499s44.5 -15.5 72.5 -15.5z" />
    <glyph glyph-name="R" unicode="R" horiz-adv-x="675" 
d="M61 0v710.001h326c34.667 0 66.667 -7.16699 96 -21.5s54.5 -33 75.5 -56s37.5 -49.333 49.5 -79s18 -59.5 18 -89.5c0 -41.333 -9 -79.833 -27 -115.5s-43 -64.834 -75 -87.501l150 -261h-220l-125 218h-73v-218h-195zM256 388.001h123c12 0 23.167 6.66699 33.5 20
s15.5 32 15.5 56c0 24.667 -6 43.5 -18 56.5s-24 19.5 -36 19.5h-118v-152z" />
    <glyph glyph-name="S" unicode="S" horiz-adv-x="617" 
d="M491 478c-20 12 -40.665 22.668 -61.998 32.001c-18 8 -38.167 15.5 -60.5 22.5s-44.166 10.5 -65.499 10.5c-17.333 0 -31.166 -2.66699 -41.499 -8s-15.5 -14.333 -15.5 -27c0 -9.33301 3 -17 9 -23s14.667 -11.5 26 -16.5s25.166 -9.83301 41.499 -14.5
s34.833 -10.334 55.5 -17.001c32.667 -10 62.167 -21 88.5 -33s48.833 -26.167 67.5 -42.5s33 -36.166 43 -59.499s15 -51.666 15 -84.999c0 -42.667 -7.83301 -78.5 -23.5 -107.5s-36.334 -52.167 -62.001 -69.5s-54.667 -29.833 -87 -37.5s-64.833 -11.5 -97.5 -11.5
c-26 0 -52.667 2 -80 6s-54.5 9.66699 -81.5 17s-53 16 -78 26s-48.167 21.333 -69.5 34l84 171c23.333 -14.667 47.666 -27.667 72.999 -39c21.333 -10 45.5 -19 72.5 -27s54.5 -12 82.5 -12c21.333 0 36.166 2.83301 44.499 8.5s12.5 13.167 12.5 22.5
c0 10 -4.16699 18.5 -12.5 25.5s-19.833 13.167 -34.5 18.5s-31.5 10.666 -50.5 15.999s-39.167 11.666 -60.5 18.999c-31.333 10.667 -58.333 22.167 -81 34.5s-41.334 26.333 -56.001 42s-25.5 33.5 -32.5 53.5s-10.5 43 -10.5 69c0 39.333 7.16699 74 21.5 104
s33.833 55 58.5 75s52.834 35.167 84.501 45.5s65.167 15.5 100.5 15.5c26 0 51.333 -2.5 76 -7.5s48.5 -11.333 71.5 -19s44.5 -16 64.5 -25s38 -17.5 54 -25.5z" />
    <glyph glyph-name="T" unicode="T" horiz-adv-x="624" 
d="M614 540h-204v-540h-195v540h-205v170h604v-170z" />
    <glyph glyph-name="U" unicode="U" horiz-adv-x="743" 
d="M371 167c22.667 0 42 5.00293 58 15.0029s29 23.167 39 39.5s17.333 35.166 22 56.499s7 43.666 7 66.999v365h195v-365c0 -49.333 -6.33301 -95.5 -19 -138.5s-32.334 -80.167 -59.001 -111.5s-60.167 -56 -100.5 -74s-87.833 -27 -142.5 -27
c-56.667 0 -105.167 9.5 -145.5 28.5s-73.5 44.5 -99.5 76.5s-45 69.167 -57 111.5s-18 87.166 -18 134.499v365h195v-365c0 -23.333 2.33301 -45.833 7 -67.5s12 -40.667 22 -57s22.833 -29.333 38.5 -39s34.834 -14.5 57.501 -14.5z" />
    <glyph glyph-name="V" unicode="V" horiz-adv-x="672" 
d="M198 710l139 -465l137 465h205l-261 -710h-162l-264 710h206z" />
    <glyph glyph-name="W" unicode="W" horiz-adv-x="1057" 
d="M287 710h179l62 -219l63 219h179l-117 -339l51 -148l153 487h212l-278 -710h-162l-101 254l-100 -254h-162l-278 710h211l154 -487l49 148z" />
    <glyph glyph-name="X" unicode="X" horiz-adv-x="657" 
d="M200 710l129 -224l129 224h210l-237 -360l229 -350h-210l-121 214l-121 -214h-211l229 350l-237 360h211z" />
    <glyph glyph-name="Y" unicode="Y" horiz-adv-x="666" 
d="M205 710l127 -307l130 307h212l-245 -475v-235h-194v237l-241 473h211z" />
    <glyph glyph-name="Z" unicode="Z" horiz-adv-x="622" 
d="M27 145l332 395h-317v170h542v-145l-312 -395h318v-170h-563v145z" />
    <glyph glyph-name="bracketleft" unicode="[" horiz-adv-x="371" 
d="M79 -40v780h245v-150h-70v-480h70v-150h-245z" />
    <glyph glyph-name="backslash" unicode="\" horiz-adv-x="694" 
d="M235 710l435 -710h-209l-436 710h210z" />
    <glyph glyph-name="bracketright" unicode="]" horiz-adv-x="371" 
d="M47 -40v150h70v480h-70v150h245v-780h-245z" />
    <glyph glyph-name="asciicircum" unicode="^" horiz-adv-x="625" 
d="M36 303l198 407h158l197 -407h-153l-123 253l-126 -253h-151z" />
    <glyph glyph-name="underscore" unicode="_" horiz-adv-x="441" 
d="M44 -170v170h353v-170h-353z" />
    <glyph glyph-name="grave" unicode="`" horiz-adv-x="284" 
d="M45 730h169l50 -142l-120 -32z" />
    <glyph glyph-name="a" unicode="a" horiz-adv-x="599" 
d="M203 -10c-26 0 -50.3311 4.33398 -72.998 13.001s-42.167 20.5 -58.5 35.5s-29.166 32.833 -38.499 53.5s-14 43 -14 67c0 26.667 5.66699 51 17 73s27 41 47 57s43.833 28.333 71.5 37s58.167 13 91.5 13c42.667 0 78 -6.66699 106 -20v16
c0 24.667 -7.16699 43 -21.5 55s-37.5 18 -69.5 18c-30 0 -57.667 -4.83301 -83 -14.5s-52 -23.834 -80 -42.501l-55 118c69.333 44.667 148.333 67 237 67c84 0 148.667 -18.667 194 -56s68 -93.333 68 -168v-102c0 -18 2.66699 -30.5 8 -37.5s14.666 -11.167 27.999 -12.5
v-160c-15.333 -3.33301 -29.833 -5.83301 -43.5 -7.5s-25.834 -2.5 -36.501 -2.5c-34 0 -59.833 6.16699 -77.5 18.5s-29.167 30.5 -34.5 54.5l-4 19c-23.333 -30 -50.333 -52.833 -81 -68.5s-63.334 -23.5 -98.001 -23.5zM260.002 126.001
c11.333 0 22.998 1.83301 34.998 5.5s22.667 8.5 32 14.5c7.33301 5.33301 13.333 11.166 18 17.499s7 12.833 7 19.5v39c-11.333 4 -23.666 7.33301 -36.999 10s-25.333 4 -36 4c-23.333 0 -42.666 -5.66699 -57.999 -17s-23 -25.666 -23 -42.999
c0 -14.667 5.83301 -26.667 17.5 -36s26.5 -14 44.5 -14z" />
    <glyph glyph-name="b" unicode="b" horiz-adv-x="647" 
d="M383 -10c-79.333 0 -136 30.667 -170 92v-82h-165v730h190v-282c15.333 28.667 37 50.5 65 65.5s61 22.5 99 22.5c32 0 61.833 -7 89.5 -21s51.5 -33.167 71.5 -57.5s35.667 -53.333 47 -87s17 -70.167 17 -109.5s-6.16699 -75.5 -18.5 -108.5s-29.333 -61.5 -51 -85.5
s-47.5 -42.833 -77.5 -56.5s-62.333 -20.5 -97 -20.5zM328 150c31.333 0 56.5 9.99902 75.5 29.999s28.5 46.667 28.5 80c0 16 -2.5 31 -7.5 45s-11.667 26.333 -20 37s-18.333 19 -30 25s-24.5 9 -38.5 9c-20 0 -39 -7.16699 -57 -21.5s-31.667 -33.166 -41 -56.499v-94
c24.667 -36 54.667 -54 90 -54z" />
    <glyph glyph-name="c" unicode="c" horiz-adv-x="577" 
d="M19 263c0 36 6.33301 70.5 19 103.5s31.167 62 55.5 87s54.5 45 90.5 60s77.333 22.5 124 22.5c64 0 117.5 -13.333 160.5 -40s75.167 -61 96.5 -103l-185 -56c-18 26 -42.333 39 -73 39c-26 0 -48 -9.83301 -66 -29.5s-27 -47.5 -27 -83.5s9 -63.833 27 -83.5
s40 -29.5 66 -29.5c30.667 0 55 13 73 39l185 -56c-21.333 -42 -53.5 -76.333 -96.5 -103s-96.5 -40 -160.5 -40c-46.667 0 -88 7.5 -124 22.5s-66.167 35 -90.5 60s-42.833 54 -55.5 87s-19 67.5 -19 103.5z" />
    <glyph glyph-name="d" unicode="d" horiz-adv-x="665" 
d="M268 -10c-36 0 -69.1621 6.66895 -99.4951 20.002s-56.5 32.166 -78.5 56.499s-39.167 53.333 -51.5 87s-18.5 70.5 -18.5 110.5c0 38.667 5.66699 74.667 17 108s27.166 62.166 47.499 86.499s44.5 43.333 72.5 57s59 20.5 93 20.5s65.167 -7.66699 93.5 -23
s50.166 -37 65.499 -65v282h190v-520c0 -18 2.66699 -30.5 8 -37.5s14.666 -11.167 27.999 -12.5v-160c-32.667 -6.66699 -59.334 -10 -80.001 -10c-64.667 0 -102 24.333 -112 73l-4 19c-18 -32 -42.333 -55.333 -73 -70s-63.334 -22 -98.001 -22zM320.005 150.002
c34.667 0 64.667 18.001 90 54.001v94c-9.33301 23.333 -23 42.166 -41 56.499s-37 21.5 -57 21.5c-14 0 -26.833 -3 -38.5 -9s-21.667 -14.333 -30 -25s-15 -23 -20 -37s-7.5 -29 -7.5 -45c0 -33.333 9.5 -60 28.5 -80s44.167 -30 75.5 -30z" />
    <glyph glyph-name="e" unicode="e" 
d="M307 -10c-46 0 -86.999 7.16699 -122.999 21.5s-66.167 33.833 -90.5 58.5s-42.833 53 -55.5 85s-19 65.667 -19 101c0 38 6.16699 74 18.5 108s30.666 63.667 54.999 89s54.333 45.5 90 60.5s77.167 22.5 124.5 22.5c46.667 0 88 -7.5 124 -22.5s66.167 -35 90.5 -60
s42.666 -54 54.999 -87s18.5 -67.5 18.5 -103.5c0 -10 -0.5 -20.167 -1.5 -30.5s-2.16699 -19.5 -3.5 -27.5h-369c2 -28 12.333 -48.167 31 -60.5s39 -18.5 61 -18.5c20.667 0 40.167 4.66699 58.5 14s30.5 22.333 36.5 39l161 -46
c-21.333 -42 -54.166 -76.333 -98.499 -103s-98.833 -40 -163.5 -40zM391.001 319c-3.33301 25.333 -12.668 45.333 -28.001 60s-35 22 -59 22s-43.667 -7.33301 -59 -22s-24.666 -34.667 -27.999 -60h174z" />
    <glyph glyph-name="f" unicode="f" horiz-adv-x="402" 
d="M85 0l-0.000976562 322h-65v143h65v57c0 32.667 4.66699 62.5 14 89.5s22.333 50 39 69s36.834 33.667 60.501 44s50.167 15.5 79.5 15.5c44 0 92.667 -10 146 -30l-32 -144c-11.333 4 -23.5 7.33301 -36.5 10s-24.5 4 -34.5 4c-30.667 0 -46 -17 -46 -51v-64h115v-143
h-115v-322h-190z" />
    <glyph glyph-name="g" unicode="g" horiz-adv-x="647" 
d="M250 0c-34 0 -65.1689 6.83105 -93.502 20.498s-52.5 32.334 -72.5 56.001s-35.5 51.5 -46.5 83.5s-16.5 66.667 -16.5 104c0 39.333 6 75.666 18 108.999s28.833 62 50.5 86s47.5 42.833 77.5 56.5s63 20.5 99 20.5c38 0 71.333 -7.5 100 -22.5
s51.334 -36.833 68.001 -65.5v78h165v-478c0 -41.333 -7.66699 -78.666 -23 -111.999s-37 -61.666 -65 -84.999s-61.667 -41.5 -101 -54.5s-83 -19.5 -131 -19.5c-56 0 -104.667 8.66699 -146 26s-78 42.333 -110 75l100 104c19.333 -18 42.5 -33.167 69.5 -45.5
s55.833 -18.5 86.5 -18.5c17.333 0 33.833 2.33301 49.5 7s29.5 12.167 41.5 22.5s21.5 23.833 28.5 40.5s10.5 36.667 10.5 60v34c-15.333 -28 -37.166 -48.667 -65.499 -62s-59.5 -20 -93.5 -20zM317.998 149.998c19.333 0 36.168 4.49805 50.501 13.498
s27.833 22.5 40.5 40.5v94c-9.33301 24 -23.166 43 -41.499 57s-37.5 21 -57.5 21c-13.333 0 -25.833 -3.16699 -37.5 -9.5s-21.834 -14.666 -30.501 -24.999s-15.334 -22.666 -20.001 -36.999s-7 -29.5 -7 -45.5c0 -32.667 9.66699 -59 29 -79s44 -30 74 -30z" />
    <glyph glyph-name="h" unicode="h" horiz-adv-x="621" 
d="M577 0l-190.001 -0.00195312v296c0 26 -5.83301 44.833 -17.5 56.5s-26.167 17.5 -43.5 17.5c-6 0 -13.167 -1.83301 -21.5 -5.5s-16.666 -8.66699 -24.999 -15s-16.166 -14.166 -23.499 -23.499s-13.333 -19.666 -18 -30.999v-295h-190v730h190v-282
c18.667 28.667 43 50.5 73 65.5s63.667 22.5 101 22.5c36.667 0 66 -6.33301 88 -19s38.667 -28.5 50 -47.5s18.666 -39.5 21.999 -61.5s5 -42.667 5 -62v-346z" />
    <glyph glyph-name="i" unicode="i" horiz-adv-x="286" 
d="M48 0v526h190v-526h-190zM48 570v160h190v-160h-190z" />
    <glyph glyph-name="j" unicode="j" horiz-adv-x="290" 
d="M36 -209c-28 0 -54.668 4.66895 -80.001 14.002s-48.333 22.666 -69 39.999l78 129c12 -13.333 27.667 -20 47 -20c26.667 0 40 14.333 40 43v529h190v-514c0 -32.667 -5 -62.5 -15 -89.5s-24.167 -50.333 -42.5 -70s-40.166 -34.834 -65.499 -45.501s-53 -16 -83 -16z
M51.999 570.002v160h190v-160h-190z" />
    <glyph glyph-name="k" unicode="k" horiz-adv-x="582" 
d="M395 0l-119 192l-38 -42v-150h-190v730h190v-399l140 195h200l-181 -230l199 -296h-201z" />
    <glyph glyph-name="l" unicode="l" horiz-adv-x="355" 
d="M44 730l189.999 -0.000976562v-521c0 -40 16.333 -60 49 -60c8 0 16.667 1.33301 26 4s18 6.33398 26 11.001l24 -140c-22.667 -10.667 -48.167 -19 -76.5 -25s-55.166 -9 -80.499 -9c-50.667 0 -89.667 13 -117 39s-41 63.667 -41 113v588z" />
    <glyph glyph-name="m" unicode="m" horiz-adv-x="940" 
d="M896 0l-190.001 0.000976562v296c0 26 -5.16699 44.833 -15.5 56.5s-22.833 17.5 -37.5 17.5c-15.333 0 -31.5 -7 -48.5 -21s-29.5 -32 -37.5 -54v-295h-190v296c0 26 -5.16699 44.833 -15.5 56.5s-22.833 17.5 -37.5 17.5c-15.333 0 -31.5 -7 -48.5 -21
s-29.5 -32 -37.5 -54v-295h-190v526h171v-78c18.667 28.667 44.334 50.5 77.001 65.5s71.334 22.5 116.001 22.5c21.333 0 40 -2.5 56 -7.5s29.833 -11.833 41.5 -20.5s21 -18.334 28 -29.001s12.5 -22 16.5 -34c18.667 28.667 44.167 51 76.5 67s69.166 24 110.499 24
c34.667 0 62.167 -6.5 82.5 -19.5s35.833 -29.167 46.5 -48.5s17.667 -40 21 -62s5 -42 5 -60v-346z" />
    <glyph glyph-name="n" unicode="n" horiz-adv-x="621" 
d="M577 0h-190.001v296c0 26 -5.83301 44.833 -17.5 56.5s-25.167 17.5 -40.5 17.5c-16 0 -33 -7 -51 -21s-31.333 -32 -40 -54v-295h-190v526h171v-78c18.667 28.667 44.834 50.5 78.501 65.5s73.5 22.5 119.5 22.5c36 0 64.5 -6.5 85.5 -19.5s37 -29.167 48 -48.5
s18.167 -40 21.5 -62s5 -42 5 -60v-346z" />
    <glyph glyph-name="o" unicode="o" horiz-adv-x="614" 
d="M307 -10c-47.333 0 -88.833 7.5 -124.5 22.5s-65.667 35 -90 60s-42.666 54 -54.999 87s-18.5 67.5 -18.5 103.5s6.16699 70.5 18.5 103.5s30.666 62 54.999 87s54.333 45 90 60s77.167 22.5 124.5 22.5c46.667 0 88 -7.5 124 -22.5s66.167 -35 90.5 -60
s42.666 -54 54.999 -87s18.5 -67.5 18.5 -103.5s-6.16699 -70.5 -18.5 -103.5s-30.666 -62 -54.999 -87s-54.5 -45 -90.5 -60s-77.333 -22.5 -124 -22.5zM214 263c0 -35.333 8.66699 -63 26 -83s39.666 -30 66.999 -30s49.666 10 66.999 30s26 47.667 26 83
s-8.66699 63 -26 83s-39.666 30 -66.999 30s-49.666 -10 -66.999 -30s-26 -47.667 -26 -83z" />
    <glyph glyph-name="p" unicode="p" horiz-adv-x="647" 
d="M402 -10c-38 0 -70.999 7.50195 -98.999 22.502s-49.667 36.833 -65 65.5v-291h-190v739h165v-79c18.667 28.667 41.667 50.667 69 66s61 23 101 23c34.667 0 67 -6.83301 97 -20.5s55.667 -32.5 77 -56.5s38.166 -52.667 50.499 -86s18.5 -69.333 18.5 -108
c0 -39.333 -5.66699 -75.833 -17 -109.5s-27 -62.834 -47 -87.501s-43.667 -43.834 -71 -57.501s-57 -20.5 -89 -20.5zM336.001 150.002c14 0 26.833 2.99902 38.5 8.99902s21.667 14.333 30 25s15 23 20 37s7.5 29 7.5 45c0 33.333 -9.5 60 -28.5 80s-44.167 30 -75.5 30
c-35.333 0 -65.333 -18 -90 -54v-91c9.33301 -23.333 23 -42.666 41 -57.999s37 -23 57 -23z" />
    <glyph glyph-name="q" unicode="q" horiz-adv-x="647" 
d="M245 -10c-32 0 -61.666 6.83105 -88.999 20.498s-51 32.834 -71 57.501s-35.667 53.834 -47 87.501s-17 70.167 -17 109.5c0 38.667 6.16699 74.667 18.5 108s29.166 62 50.499 86s46.833 42.833 76.5 56.5s62.167 20.5 97.5 20.5c40 0 73.667 -8 101 -24
s50.333 -38.333 69 -67v81h165v-519c0 -18 3.33301 -30.5 10 -37.5s18.667 -11.167 36 -12.5v-160c-16.667 -3.33301 -34.667 -5.83301 -54 -7.5s-36.333 -2.5 -51 -2.5c-18 0 -34.833 2.83301 -50.5 8.5s-29.5 13.5 -41.5 23.5s-21.5 22.167 -28.5 36.5
s-10.5 30.5 -10.5 48.5v174c-15.333 -28.667 -37 -50.5 -65 -65.5s-61 -22.5 -99 -22.5zM319.001 149.998c34.667 0 64.667 18.001 90 54.001v94c-9.33301 23.333 -23 42.166 -41 56.499s-37 21.5 -57 21.5c-14 0 -26.833 -3 -38.5 -9s-21.667 -14.333 -30 -25
s-15 -23 -20 -37s-7.5 -29 -7.5 -45c0 -33.333 9.5 -60 28.5 -80s44.167 -30 75.5 -30z" />
    <glyph glyph-name="r" unicode="r" horiz-adv-x="416" 
d="M405 364c-36.667 0 -70.001 -4 -100.001 -12s-52.333 -21.333 -67 -40v-312h-190v526h174v-100c18.667 35.333 41.834 62.5 69.501 81.5s57.5 28.5 89.5 28.5c12.667 0 20.667 -0.333008 24 -1v-171z" />
    <glyph glyph-name="s" unicode="s" horiz-adv-x="501" 
d="M265 -10c-46 0 -90.999 7.49316 -134.999 22.4932s-81.333 36.833 -112 65.5l65 114c32.667 -22 64.167 -39 94.5 -51s58.166 -18 83.499 -18c26.667 0 40 8.33301 40 25c0 9.33301 -5.16699 17.333 -15.5 24s-30.5 14.334 -60.5 23.001
c-37.333 10.667 -68.5 21.167 -93.5 31.5s-45.333 21.5 -61 33.5s-26.834 25.333 -33.501 40s-10 32 -10 52c0 26.667 5.33301 51.334 16 74.001s25.5 42.334 44.5 59.001s41.667 29.5 68 38.5s55.166 13.5 86.499 13.5c38.667 0 75.5 -5 110.5 -15
s70.167 -30.333 105.5 -61l-72 -114c-32.667 21.333 -60 36.5 -82 45.5s-42.667 13.5 -62 13.5c-11.333 0 -20.666 -2.16699 -27.999 -6.5s-11 -11.166 -11 -20.499c0 -10 5.33301 -18.167 16 -24.5s31.667 -13.5 63 -21.5c38 -10 70 -20.5 96 -31.5s46.833 -23 62.5 -36
s26.834 -27.667 33.501 -44s10 -35.166 10 -56.499c0 -27.333 -5 -51.666 -15 -72.999s-24.5 -39.666 -43.5 -54.999s-42 -27 -69 -35s-57.5 -12 -91.5 -12z" />
    <glyph glyph-name="t" unicode="t" horiz-adv-x="423" 
d="M417 29c-26.667 -11.333 -55.1709 -20.833 -85.5039 -28.5s-60.166 -11.5 -89.499 -11.5c-21.333 0 -41.666 2.66699 -60.999 8s-36.166 14 -50.499 26s-25.666 27.667 -33.999 47s-12.5 43.333 -12.5 72v241h-65v143h65v165h190v-165h103v-143h-103v-174
c0 -17.333 3.66699 -29.5 11 -36.5s17.333 -10.5 30 -10.5c9.33301 0 20 1.5 32 4.5s24 7.16699 36 12.5z" />
    <glyph glyph-name="u" unicode="u" horiz-adv-x="638" 
d="M207 -10c-53.333 0 -93.9971 16.166 -121.997 48.499s-42 79.5 -42 141.5v346h190v-303c0 -23.333 5.16699 -41.333 15.5 -54s24.5 -19 42.5 -19c14.667 0 29.667 3.33301 45 10s30.666 21.334 45.999 44.001v322h190v-316c0 -18 2.66699 -30.5 8 -37.5
s14.666 -11.167 27.999 -12.5v-160c-32.667 -6.66699 -59.334 -10 -80.001 -10c-64.667 0 -102 24.333 -112 73l-4 19c-24.667 -32.667 -54 -56.167 -88 -70.5s-73 -21.5 -117 -21.5z" />
    <glyph glyph-name="v" unicode="v" horiz-adv-x="563" 
d="M178 0l-177 526h195l94 -377l95 377h177l-177 -526h-207z" />
    <glyph glyph-name="w" unicode="w" horiz-adv-x="862" 
d="M693 526h179l-215 -526h-155l-71 200l-71 -200h-155l-215 526h179l127 -353l33 113l-94 240h151l45 -154l45 154h151l-94 -240l33 -113z" />
    <glyph glyph-name="x" unicode="x" horiz-adv-x="554" 
d="M192 526l75 -129l10 -21l10 21l75 129h193l-176 -263l181 -263h-193l-81 129l-9 20l-9 -20l-81 -129h-193l181 263l-176 263h193z" />
    <glyph glyph-name="y" unicode="y" horiz-adv-x="555" 
d="M44 -53c30.667 -11.333 56.668 -17 78.001 -17c40.667 0 63 23.333 67 70l-191 526h195l100 -365l81 365h177l-178 -589c-8 -26 -19.333 -49.5 -34 -70.5s-32.167 -39 -52.5 -54s-42.833 -26.5 -67.5 -34.5s-50.334 -12 -77.001 -12c-34 0 -66.667 6.33301 -98 19v162z
" />
    <glyph glyph-name="z" unicode="z" horiz-adv-x="494" 
d="M22 112l240 284h-225v130h423v-112l-239 -284h248v-130h-447v112z" />
    <glyph glyph-name="braceleft" unicode="{" horiz-adv-x="374" 
d="M265 590l-0.000976562 -154c0 -18.667 -4.16699 -33.667 -12.5 -45s-17.833 -21.666 -28.5 -30.999c10 -9.33301 19.333 -19.833 28 -31.5s13 -26.5 13 -44.5v-165h55v-150h-202c-4 0 -8.83301 1.83301 -14.5 5.5s-8.5 11.834 -8.5 24.501v220
c0 21.333 -6.5 38.666 -19.5 51.999s-26.5 21.666 -40.5 24.999v130c6.66699 0 13.667 2.16699 21 6.5s13.833 10 19.5 17s10.334 15 14.001 24s5.5 18.167 5.5 27.5v209c0 12 2.83301 20 8.5 24s10.5 6 14.5 6h202v-150h-55z" />
    <glyph glyph-name="bar" unicode="|" horiz-adv-x="312" 
d="M76 -130v905h160v-905h-160z" />
    <glyph glyph-name="braceright" unicode="}" horiz-adv-x="374" 
d="M54 590l-0.000976562 150h202c4 0 8.83301 -2 14.5 -6s8.5 -12 8.5 -24v-209c0 -9.33301 1.83301 -18.5 5.5 -27.5s8.33398 -17 14.001 -24s12 -12.667 19 -17s14.167 -6.5 21.5 -6.5v-130c-14 -3.33301 -27.5 -11.666 -40.5 -24.999s-19.5 -30.666 -19.5 -51.999v-220
c0 -12.667 -2.83301 -20.834 -8.5 -24.501s-10.5 -5.5 -14.5 -5.5h-202v150h55v165c0 18 4.33301 32.833 13 44.5s18 22.167 28 31.5c-10.667 9.33301 -20.167 19.666 -28.5 30.999s-12.5 26.333 -12.5 45v154h-55z" />
    <glyph glyph-name="asciitilde" unicode="~" horiz-adv-x="610" 
d="M45 216c0 8 2.66699 20.8311 8 38.498s14.5 35.334 27.5 53.001s30 33.167 51 46.5s47.5 20 79.5 20c20 0 38.167 -2.66699 54.5 -8s31.833 -11.166 46.5 -17.499s29 -12.166 43 -17.499s29 -8 45 -8c14.667 0 26.667 2.5 36 7.5s16.333 10.5 21 16.5
s7.83398 11.667 9.50098 17s2.5 8.66602 2.5 9.99902h100c0 -5.33301 -2.83301 -16.5 -8.5 -33.5s-15 -34.833 -28 -53.5s-30.333 -35.167 -52 -49.5s-48.834 -21.5 -81.501 -21.5c-19.333 0 -37 2.5 -53 7.5s-31.5 10.5 -46.5 16.5s-29.667 11.5 -44 16.5
s-29.5 7.5 -45.5 7.5c-15.333 0 -27.333 -2.33301 -36 -7s-15 -10 -19 -16s-6.5 -11.5 -7.5 -16.5s-1.5 -7.83301 -1.5 -8.5h-101v0z" />
    <glyph glyph-name="uni00A0" unicode="&#xa0;" horiz-adv-x="225" 
 />
    <glyph glyph-name="exclamdown" unicode="&#xa1;" horiz-adv-x="360" 
d="M275 410v-417h-190v417h190zM275 710v-184h-190v184h190z" />
    <glyph glyph-name="cent" unicode="&#xa2;" horiz-adv-x="618" 
d="M276 -120l-0.00195312 110.998c-35.333 2.66699 -67.666 12.167 -96.999 28.5s-54.5 36.833 -75.5 61.5s-37.5 52.334 -49.5 83.001s-18 62 -18 94c0 34 5 66 15 96s25 57.167 45 81.5s45 45 75 62s65 29.167 105 36.5v111h80v-111c44 -1.33301 86.667 -13.5 128 -36.5
s74.333 -57.833 99 -104.5l-185 -56c-4.66699 8 -11 15.167 -19 21.5s-15.667 10.166 -23 11.499v-215c10.667 4.66699 19.334 9.83398 26.001 15.501s12 11.834 16 18.501l185 -56c-11.333 -24 -26.5 -45 -45.5 -63s-39.167 -32.833 -60.5 -44.5s-42.833 -20.5 -64.5 -26.5
s-40.5 -9 -56.5 -9v-110h-80zM231.998 257.998c0 -18.667 3.5 -36.1689 10.5 -52.502s18.167 -30.166 33.5 -41.499v197c-13.333 -7.33301 -24 -20.166 -32 -38.499s-12 -39.833 -12 -64.5z" />
    <glyph glyph-name="sterling" unicode="&#xa3;" horiz-adv-x="586" 
d="M61 388l55.001 0.00390625l-28 70c-9.33301 23.333 -14 47.666 -14 72.999c0 26 5.83301 50.167 17.5 72.5s27.834 41.666 48.501 57.999s44.667 29.333 72 39s57 14.5 89 14.5c44 0 86.167 -9.16699 126.5 -27.5s74.833 -44.166 103.5 -77.499l-96 -117
c-8.66699 10 -18.5 19.167 -29.5 27.5s-22.5 15.5 -34.5 21.5s-24.167 10.833 -36.5 14.5s-23.833 5.5 -34.5 5.5c-18 0 -32.167 -4.66699 -42.5 -14s-15.5 -22 -15.5 -38c0 -17.333 4.83301 -36 14.5 -56s19.167 -42 28.5 -66h189v-140h-178
c-4.66699 -18 -12 -35.167 -22 -51.5s-23.333 -33.166 -40 -50.499c16 5.33301 30.167 9.16602 42.5 11.499s24.166 3.5 35.499 3.5c21.333 0 43 -2.5 65 -7.5s43.667 -7.5 65 -7.5c11.333 0 21.666 1 30.999 3s20 5.33301 32 10l46 -140c-15.333 -10 -34 -18.167 -56 -24.5
s-43 -9.5 -63 -9.5c-15.333 0 -31.333 1.66699 -48 5s-33.5 7.16602 -50.5 11.499s-34.167 8.16602 -51.5 11.499s-34.333 5 -51 5c-19.333 0 -41.833 -2.5 -67.5 -7.5s-51.167 -11.5 -76.5 -19.5l-38 134c20.667 12 38.667 29.167 54 51.5s26 46.166 32 71.499h-74v140z
" />
    <glyph glyph-name="currency" unicode="&#xa4;" horiz-adv-x="569" 
d="M183 507c14.667 7.33301 30.501 12.834 47.501 16.501s35.5 5.5 55.5 5.5c19.333 0 37.333 -1.83301 54 -5.5s32 -8.5 46 -14.5l68 69l71 -71l-63 -63c9.33301 -15.333 16.666 -32 21.999 -50s8 -36.667 8 -56c0 -39.333 -10.333 -75 -31 -107l64 -64l-66 -66l-71 67
c-28 -14 -62 -21 -102 -21c-39.333 0 -74.333 7.33301 -105 22l-72 -68l-66 66l66 66c-19.333 31.333 -29 66.333 -29 105c0 18.667 2.33301 36.667 7 54s11.667 33.666 21 48.999l-65 66l71 71zM213.001 338.001c0 -24.667 6.83301 -44 20.5 -58s31.167 -21 52.5 -21
s38.833 7 52.5 21s20.5 33.333 20.5 58s-6.83301 44 -20.5 58s-31.167 21 -52.5 21s-38.833 -7 -52.5 -21s-20.5 -33.333 -20.5 -58z" />
    <glyph glyph-name="yen" unicode="&#xa5;" horiz-adv-x="742" 
d="M566 432h64v-120h-126l-39 -77v-33h166v-120h-166v-82h-194v82h-165v120h165v35l-38 75h-126v120h65l-142 278h211l127 -307l130 307h212z" />
    <glyph glyph-name="brokenbar" unicode="&#xa6;" horiz-adv-x="316" 
d="M238 254v-384h-160v384h160zM238 775v-384h-160v384h160z" />
    <glyph glyph-name="section" unicode="&#xa7;" horiz-adv-x="551" 
d="M488 232c6 -9.33301 11.6621 -21.9961 16.9951 -37.9961s8 -36.667 8 -62c0 -41.333 -8 -76 -24 -104s-36 -50.667 -60 -68s-50 -29.666 -78 -36.999s-54 -11 -78 -11c-28.667 0 -55.5 4.33301 -80.5 13s-47.5 19.167 -67.5 31.5s-37 25 -51 38s-24.333 23.833 -31 32.5
l121 116c17.333 -19.333 34.333 -32.666 51 -39.999s33 -11 49 -11c14.667 0 26.834 2.66699 36.501 8s14.5 13.666 14.5 24.999s-4.33301 18.166 -13 20.499s-17.667 3.83301 -27 4.5c-37.333 2.66699 -69.5 9.5 -96.5 20.5s-49.5 25 -67.5 42s-31.333 36.333 -40 58
s-13 45.167 -13 70.5c0 20 1.83301 34.667 5.5 44s5.83398 16.333 6.50098 21c-5.33301 7.33301 -12 20.166 -20 38.499s-12 40.166 -12 65.499c0 26 5.5 51.167 16.5 75.5s26.333 46.166 46 65.499s43.334 34.833 71.001 46.5s58.167 17.5 91.5 17.5
c32 0 60.667 -5.33301 86 -16s47.5 -23.667 66.5 -39s35.333 -31.333 49 -48s24.834 -31.334 33.501 -44.001l-145 -68c-7.33301 12 -17 22.833 -29 32.5s-28.333 14.5 -49 14.5c-17.333 0 -29.166 -3.33301 -35.499 -10s-9.5 -14.667 -9.5 -24
c0 -13.333 4.33301 -21.333 13 -24s18.667 -4.33398 30 -5.00098c25.333 -1.33301 51.5 -5 78.5 -11s51.5 -15.833 73.5 -29.5s40.167 -31.667 54.5 -54s21.5 -50.166 21.5 -83.499c0 -19.333 -1.83301 -35.5 -5.5 -48.5s-6.16699 -21.5 -7.5 -25.5zM241.995 314.004
c0 -9.33301 2.66699 -16.167 8 -20.5s11.666 -7.5 18.999 -9.5s15 -3.16699 23 -3.5s14.667 -1.5 20 -3.5c3.33301 2.66699 5.66602 6.16699 6.99902 10.5s2 8.5 2 12.5c0 12.667 -4.66699 21.334 -14 26.001s-18 7 -26 7c-3.33301 0 -6.66602 0.166992 -9.99902 0.5
s-6.66602 0.833008 -9.99902 1.5l-10 2c-6 -4.66699 -9 -12.334 -9 -23.001z" />
    <glyph glyph-name="dieresis" unicode="&#xa8;" horiz-adv-x="566" 
d="M90 580v140h156v-140h-156zM320 580v140h156v-140h-156z" />
    <glyph glyph-name="copyright" unicode="&#xa9;" horiz-adv-x="847" 
d="M419 -7c-54.667 0 -105.334 9.16699 -152.001 27.5s-87 43.666 -121 75.999s-60.5 70.5 -79.5 114.5s-28.5 92 -28.5 144c0 51.333 9.5 99 28.5 143s45.5 82 79.5 114s74.333 57.167 121 75.5s97.334 27.5 152.001 27.5c56 0 108 -9.16699 156 -27.5
s89.333 -43.5 124 -75.5s61.834 -70 81.501 -114s29.5 -91.667 29.5 -143c0 -52 -9.83301 -100 -29.5 -144s-46.834 -82.167 -81.501 -114.5s-76 -57.666 -124 -75.999s-100 -27.5 -156 -27.5zM419 57c44.667 0 86.6631 7.33203 125.996 21.999s73.333 35 102 61
s51.334 57.333 68.001 94s25 77 25 121c0 40.667 -8.16699 79 -24.5 115s-38.666 67.5 -66.999 94.5s-62.166 48.167 -101.499 63.5s-82 23 -128 23c-44 0 -85 -7.66699 -123 -23s-71 -36.5 -99 -63.5s-49.833 -58.5 -65.5 -94.5s-23.5 -74.333 -23.5 -115
c0 -41.333 7.83301 -80.166 23.5 -116.499s37.334 -68 65.001 -95s60.5 -48.167 98.5 -63.5s79.333 -23 124 -23zM428.996 110.999c-43.333 0 -81.833 6.6709 -115.5 20.0039s-61.834 31.166 -84.501 53.499s-39.834 48.166 -51.501 77.499s-17.5 60 -17.5 92
s5.83301 62.667 17.5 92s28.834 55.166 51.501 77.499s50.834 40.166 84.501 53.499s72.167 20 115.5 20c61.333 0 112.666 -13.333 153.999 -40s72.333 -61 93 -103l-185 -56c-15.333 26 -36.333 39 -63 39c-20 0 -37.167 -7.16699 -51.5 -21.5s-21.5 -34.833 -21.5 -61.5
s7.16699 -47.167 21.5 -61.5s31.5 -21.5 51.5 -21.5c26.667 0 47.667 13 63 39l185 -56c-20.667 -42 -51.667 -76.333 -93 -103s-92.666 -40 -153.999 -40z" />
    <glyph glyph-name="ordfeminine" unicode="&#xaa;" horiz-adv-x="451" 
d="M155 333c-17.333 0 -33.4971 3.00293 -48.4971 9.00293s-28 14.167 -39 24.5s-19.5 22.666 -25.5 36.999s-9 30.166 -9 47.499c0 18.667 3.66699 35.667 11 51s17.666 28.5 30.999 39.5s29.166 19.667 47.499 26s38.5 9.5 60.5 9.5c28 0 50.667 -4.66699 68 -14v11
c0 17.333 -4.33301 30.333 -13 39s-23.667 13 -45 13c-19.333 0 -37.333 -3.33301 -54 -10s-34.334 -16.667 -53.001 -30l-38 82c46 31.333 98.667 47 158 47c56.667 0 100 -13.167 130 -39.5s45 -65.5 45 -117.5v-71c0 -12.667 2.33301 -21.5 7 -26.5
s12.667 -7.83301 24 -8.5v-112c-11.333 -2.66699 -22.333 -4.5 -33 -5.5s-20 -1.5 -28 -1.5c-23.333 0 -41 4.16699 -53 12.5s-19.667 21.166 -23 38.499l-3 14c-31.333 -43.333 -70.333 -65 -117 -65zM194.003 428.003c6.66699 0 13.835 1.33301 21.502 4s14.167 6 19.5 10
c10.667 7.33301 16 16 16 26v27c-6.66699 3.33301 -14.167 5.83301 -22.5 7.5s-15.833 2.5 -22.5 2.5c-14.667 0 -26.834 -4 -36.501 -12s-14.5 -18 -14.5 -30c0 -10 3.66699 -18.333 11 -25s16.666 -10 27.999 -10z" />
    <glyph glyph-name="guillemotleft" unicode="&#xab;" horiz-adv-x="713" 
d="M30 298l277 198v-152l-128 -85l128 -77v-152l-277 180v88zM381 298l277 198v-152l-128 -85l128 -77v-152l-277 180v88z" />
    <glyph glyph-name="logicalnot" unicode="&#xac;" horiz-adv-x="637" 
d="M578 431v-342h-160v172h-369v170h529z" />
    <glyph glyph-name="uni00AD" unicode="&#xad;" horiz-adv-x="629" 
d="M50 191v170h529v-170h-529z" />
    <glyph glyph-name="registered" unicode="&#xae;" horiz-adv-x="847" 
d="M421 -7c-55.333 0 -106.5 9.16699 -153.5 27.5s-87.5 43.666 -121.5 75.999s-60.5 70.5 -79.5 114.5s-28.5 92 -28.5 144c0 51.333 9.5 99 28.5 143s45.5 82 79.5 114s74.5 57.167 121.5 75.5s98.167 27.5 153.5 27.5s106.833 -9.16699 154.5 -27.5
s88.834 -43.5 123.501 -75.5s61.834 -70 81.501 -114s29.5 -91.667 29.5 -143c0 -52 -9.83301 -100 -29.5 -144s-46.834 -82.167 -81.501 -114.5s-75.834 -57.666 -123.501 -75.999s-99.167 -27.5 -154.5 -27.5zM422 56c44 0 85.167 7.5 123.5 22.5s71.666 35.667 99.999 62
s50.5 57.5 66.5 93.5s24 75.333 24 118c0 42 -7.83301 81.167 -23.5 117.5s-37.5 68 -65.5 95s-61.167 48.167 -99.5 63.5s-80.166 23 -125.499 23s-87 -7.66699 -125 -23s-70.667 -36.5 -98 -63.5s-48.666 -58.5 -63.999 -94.5s-23 -74.667 -23 -116s7.66699 -80 23 -116
s36.666 -67.5 63.999 -94.5s60 -48.333 98 -64s79.667 -23.5 125 -23.5zM251 572h199c20.667 0 40 -4.33301 58 -13s33.333 -20.167 46 -34.5s22.667 -30.5 30 -48.5s11 -36 11 -54c0 -23.333 -5.66699 -46 -17 -68s-26.333 -39.667 -45 -53l96 -157h-147l-81 131h-18v-131
h-132v428zM436 387c7.33301 0 14 2.33301 20 7s9 14 9 28c0 15.333 -3.33301 25 -10 29s-13.667 6 -21 6h-51v-70h53z" />
    <glyph glyph-name="macron" unicode="&#xaf;" horiz-adv-x="438" 
d="M64 607v113h310v-113h-310z" />
    <glyph glyph-name="degree" unicode="&#xb0;" horiz-adv-x="300" 
d="M31 610c0 32.667 11 59.834 33 81.501s50.667 32.5 86 32.5s64 -10.833 86 -32.5s33 -48.834 33 -81.501c0 -38 -11 -68.167 -33 -90.5s-50.667 -33.5 -86 -33.5s-64 11.5 -86 34.5s-33 52.833 -33 89.5zM127 627c-6 -6 -8.99902 -13.3301 -8.99902 -21.9971s3 -16 9 -22
c6.66699 -6.66699 14.334 -10 23.001 -10c9.33301 0 16.666 3.33301 21.999 10c3.33301 2.66699 5.66602 6.16699 6.99902 10.5s2 8.16602 2 11.499c0 9.33301 -3 16.666 -9 21.999c-2.66699 3.33301 -6 5.66602 -10 6.99902s-8 2 -12 2c-9.33301 0 -17 -3 -23 -9z" />
    <glyph glyph-name="plusminus" unicode="&#xb1;" horiz-adv-x="480" 
d="M49 1v150h380v-150h-380zM430 462v-150h-105v-115h-170v115h-105v150h105v115h170v-115h105z" />
    <glyph glyph-name="twosuperior" unicode="&#xb2;" horiz-adv-x="441" 
d="M26 376c0 28.667 2 53.499 6 74.499s11 39.667 21 56s23.667 30.833 41 43.5s39.333 24.667 66 36l47 19.5c15.333 6.33301 29 13 41 20s21.667 14.5 29 22.5s11 17.667 11 29c0 15.333 -6.5 25.5 -19.5 30.5s-30.5 7.5 -52.5 7.5c-25.333 0 -48.333 -4.5 -69 -13.5
s-37.667 -19.167 -51 -30.5l-68 80c14.667 19.333 39.667 35.833 75 49.5s78.333 20.5 129 20.5c58 0 102.5 -12.167 133.5 -36.5s46.5 -60.5 46.5 -108.5c0 -22.667 -4.16699 -42 -12.5 -58s-18.666 -29.667 -30.999 -41s-25.833 -20.333 -40.5 -27
s-28.334 -11.667 -41.001 -15c-24 -6.66699 -43.333 -13.667 -58 -21s-22 -17.666 -22 -30.999h187v-107h-368z" />
    <glyph glyph-name="threesuperior" unicode="&#xb3;" horiz-adv-x="422" 
d="M194 369c-42 0 -77.6631 5.66797 -106.996 17.001s-50.666 29.333 -63.999 54l57 84c4 -4 9.16699 -8.66699 15.5 -14s14 -10.166 23 -14.499s19.5 -8.16602 31.5 -11.499s26 -5 42 -5c24 0 45 2.5 63 7.5s27 14.167 27 27.5c0 15.333 -13 26 -39 32s-62.333 9 -109 9
h-25v99h24c38.667 0 70.667 2.83301 96 8.5s38 16.167 38 31.5c0 5.33301 -2.33301 9.66602 -7 12.999s-10.5 6 -17.5 8s-14.333 3.33301 -22 4s-14.5 1 -20.5 1c-26 0 -47.333 -4 -64 -12s-32 -18.667 -46 -32l-69 89c8.66699 9.33301 19.667 17.5 33 24.5
s27.833 12.833 43.5 17.5s32.167 8.16699 49.5 10.5s34.666 3.5 51.999 3.5c26 0 50.333 -3 73 -9s42.167 -14.5 58.5 -25.5s29.166 -23.833 38.499 -38.5s14 -30.334 14 -47.001c0 -24 -8.83301 -43.833 -26.5 -59.5s-41.5 -25.834 -71.5 -30.501
c34 -4.66699 60.5 -17.834 79.5 -39.501s28.5 -46.5 28.5 -74.5c0 -23.333 -5.83301 -43.166 -17.5 -59.499s-26.834 -29.5 -45.501 -39.5s-39.834 -17.333 -63.501 -22s-47.834 -7 -72.501 -7z" />
    <glyph glyph-name="acute" unicode="&#xb4;" horiz-adv-x="284" 
d="M165 556l-120 32l50 142h169z" />
    <glyph glyph-name="mu" unicode="&#xb5;" horiz-adv-x="708" 
d="M75 526l190.002 -0.000976562v-303c0 -23.333 5 -41.333 15 -54s25.667 -19 47 -19c12 0 25.667 3.33301 41 10s30.666 21.334 45.999 44.001v322h190v-316c0 -18 3.33301 -30.5 10 -37.5s18.667 -11.167 36 -12.5v-160c-19.333 -3.33301 -36.333 -5.83301 -51 -7.5
s-27.667 -2.5 -39 -2.5c-64.667 0 -102 24.333 -112 73l-4 19c-4 -10 -10.833 -20.5 -20.5 -31.5s-20.834 -21 -33.501 -30s-26 -16.5 -40 -22.5s-27.333 -9 -40 -9c-11.333 0 -22 2.83301 -32 8.5s-18.333 15.167 -25 28.5v-239h-178v739z" />
    <glyph glyph-name="paragraph" unicode="&#xb6;" horiz-adv-x="705" 
d="M34 445c0 85.333 24.5 150.833 73.5 196.5s118.5 68.5 208.5 68.5h341v-140h-70v-650h-160v268h-31v-268h-160v268c-30 0 -57.333 6.33301 -82 19s-46 30.167 -64 52.5s-31.833 49.333 -41.5 81s-14.5 66.5 -14.5 104.5zM191 450c0 -33.333 4.16699 -61.332 12.5 -83.999
s19.166 -35.334 32.499 -38.001v242c-13.333 -2.66699 -24.166 -15.167 -32.499 -37.5s-12.5 -49.833 -12.5 -82.5zM427 570.001h-31v-242h31v242z" />
    <glyph glyph-name="periodcentered" unicode="&#xb7;" horiz-adv-x="254" 
d="M50 238v184h154v-184h-154z" />
    <glyph glyph-name="cedilla" unicode="&#xb8;" horiz-adv-x="362" 
d="M55 -128c7.33301 -4.66699 19.668 -9.16602 37.001 -13.499s35 -6.5 53 -6.5c15.333 0 28.5 2.33301 39.5 7s16.5 12.667 16.5 24s-5 19.166 -15 23.499s-23.333 6.5 -40 6.5c-14 0 -28.833 -1.16699 -44.5 -3.5s-27.167 -4.16602 -34.5 -5.49902l64 132l69 -19l-36 -51
c4 0.666992 8.16699 1.16699 12.5 1.5s9.16602 0.5 14.499 0.5c12 0 23.667 -1.5 35 -4.5s21.333 -7.5 30 -13.5s15.667 -14 21 -24s8 -22 8 -36c0 -28 -12.167 -52.167 -36.5 -72.5s-62.833 -30.5 -115.5 -30.5c-24 0 -45.5 2.16699 -64.5 6.5
s-35.167 9.16602 -48.5 14.499z" />
    <glyph glyph-name="onesuperior" unicode="&#xb9;" horiz-adv-x="321" 
d="M300 485l-0.000976562 -106.999h-253v107h76v221c-3.33301 -4.66699 -8.66602 -10 -15.999 -16s-15.333 -11.833 -24 -17.5s-17.667 -10.334 -27 -14.001s-18 -5.5 -26 -5.5v109c10 0 20.5 3 31.5 9s21 12.667 30 20s16.5 14 22.5 20s9 9.33301 9 10h110v-336h67z" />
    <glyph glyph-name="ordmasculine" unicode="&#xba;" horiz-adv-x="438" 
d="M219 333c-31.333 0 -58.833 5.16699 -82.5 15.5s-43.5 24.333 -59.5 42s-28.167 38 -36.5 61s-12.5 47.167 -12.5 72.5s4.16699 49.5 12.5 72.5s20.5 43.333 36.5 61s35.833 31.667 59.5 42s51.167 15.5 82.5 15.5s59 -5.16699 83 -15.5s44 -24.333 60 -42s28 -38 36 -61
s12 -47.167 12 -72.5s-4 -49.5 -12 -72.5s-20 -43.333 -36 -61s-36 -31.667 -60 -42s-51.667 -15.5 -83 -15.5zM161 524c0 -24.667 5.33301 -44 16 -58s24.667 -21 42 -21s31.333 7 42 21s16 33.333 16 58s-5.33301 44 -16 58s-24.667 21 -42 21s-31.333 -7 -42 -21
s-16 -33.333 -16 -58z" />
    <glyph glyph-name="guillemotright" unicode="&#xbb;" horiz-adv-x="713" 
d="M683 210l-277 -180v152l128 77l-128 85v152l277 -198v-88zM332 210l-277 -180v152l128 77l-128 85v152l277 -198v-88z" />
    <glyph glyph-name="onequarter" unicode="&#xbc;" horiz-adv-x="1020" 
d="M214 65l283 319l251 337l83 -75l-271 -309l-263 -347zM310 395l-0.000976562 -106.999h-253v107h76v221c-3.33301 -4.66699 -8.66602 -10 -15.999 -16s-15.333 -11.833 -24 -17.5s-17.667 -10.334 -27 -14.001s-18 -5.5 -26 -5.5v109c10 0 20.5 3 31.5 9s21 12.667 30 20
s16.5 14 22.5 20s9 9.33301 9 10h110v-336h67zM813.999 1.00098v83h-215v107l249 250h74v-250h64v-107h-64v-83h-108zM699.999 191.001h118v121z" />
    <glyph glyph-name="onehalf" unicode="&#xbd;" horiz-adv-x="1033" 
d="M171 65l283 319l251 337l83 -75l-271 -309l-263 -347zM307 395l-0.000976562 -106.999h-253v107h76v221c-3.33301 -4.66699 -8.66602 -10 -15.999 -16s-15.333 -11.833 -24 -17.5s-17.667 -10.334 -27 -14.001s-18 -5.5 -26 -5.5v109c10 0 20.5 3 31.5 9s21 12.667 30 20
s16.5 14 22.5 20s9 9.33301 9 10h110v-336h67zM608.999 0.000976562c0 28.667 2.00195 53.499 6.00195 74.499s11 39.667 21 56s23.667 30.833 41 43.5s39.666 24.667 66.999 36l46.5 19.5c15 6.33301 28.5 13 40.5 20s21.667 14.5 29 22.5s11 17.667 11 29
c0 15.333 -6.5 25.5 -19.5 30.5s-30.5 7.5 -52.5 7.5c-25.333 0 -48.333 -4.5 -69 -13.5s-37.667 -19.167 -51 -30.5l-68 80c14.667 19.333 39.667 35.833 75 49.5s78.666 20.5 129.999 20.5c57.333 0 101.5 -12.167 132.5 -36.5s46.5 -60.5 46.5 -108.5
c0 -22.667 -4.16699 -42 -12.5 -58s-18.666 -29.667 -30.999 -41s-25.833 -20.333 -40.5 -27s-28.334 -11.667 -41.001 -15c-24 -6.66699 -43.333 -13.667 -58 -21s-22 -17.666 -22 -30.999h206v-107h-387z" />
    <glyph glyph-name="threequarters" unicode="&#xbe;" horiz-adv-x="1027" 
d="M243 65l283 319l251 337l83 -75l-271 -309l-263 -347zM821 1v83h-215v107l249 250h74v-250h64v-107h-64v-83h-108zM707 191h118v121zM208 279c-42 0 -77.6631 5.66992 -106.996 17.0029s-50.666 29.333 -63.999 54l57 84c13.333 -12 28.5 -22.5 45.5 -31.5
s39.167 -13.5 66.5 -13.5c24 0 45 2.5 63 7.5s27 14.167 27 27.5c0 15.333 -13 26 -39 32s-62.333 9 -109 9h-25v99h24c38.667 0 70.667 2.83301 96 8.5s38 16.167 38 31.5c0 5.33301 -2.33301 9.66602 -7 12.999s-10.5 6 -17.5 8s-14.333 3.33301 -22 4s-14.5 1 -20.5 1
c-26 0 -47.333 -4 -64 -12s-32 -18.667 -46 -32l-69 89c8.66699 9.33301 19.667 17.5 33 24.5s27.833 12.833 43.5 17.5s32.167 8.16699 49.5 10.5s34.666 3.5 51.999 3.5c26 0 50.333 -3 73 -9s42.167 -14.5 58.5 -25.5s29.166 -23.833 38.499 -38.5s14 -30.334 14 -47.001
c0 -24 -8.83301 -43.833 -26.5 -59.5s-41.5 -25.834 -71.5 -30.501c34 -4.66699 60.5 -17.834 79.5 -39.501s28.5 -46.5 28.5 -74.5c0 -23.333 -5.83301 -43.166 -17.5 -59.499s-26.834 -29.5 -45.501 -39.5s-39.834 -17.333 -63.501 -22s-47.834 -7 -72.501 -7z" />
    <glyph glyph-name="questiondown" unicode="&#xbf;" horiz-adv-x="487" 
d="M395 247c0 -14 -0.667969 -27.834 -2.00098 -41.501s-4.66602 -26.667 -9.99902 -39s-13.333 -24.166 -24 -35.499s-25 -21.666 -43 -30.999c-7.33301 -4 -18 -9.33301 -32 -16s-27.667 -14.667 -41 -24s-25 -19.833 -35 -31.5s-15 -24.5 -15 -38.5
c0 -15.333 6 -27.5 18 -36.5s26 -13.5 42 -13.5c12 0 22.333 2.33301 31 7s16.167 10.334 22.5 17.001s11.666 13.5 15.999 20.5s8.5 12.833 12.5 17.5l121 -86c-17.333 -40.667 -44.666 -72.334 -81.999 -95.001s-80 -34 -128 -34c-25.333 0 -51 3.66699 -77 11
s-49.5 19 -70.5 35s-38 37 -51 63s-19.5 57.667 -19.5 95c0 32 5.83301 61.167 17.5 87.5s32.5 49.5 62.5 69.5c14.667 10 29.667 18.667 45 26s29.5 14.666 42.5 21.999s23.667 14.833 32 22.5s12.5 17.167 12.5 28.5h155zM391.999 505.999v-164h-155v164h155z" />
    <glyph glyph-name="Agrave" unicode="&#xc0;" horiz-adv-x="667" 
d="M245 710h178l246 -710h-198l-43 139h-189l-42 -139h-199zM397 269l-63 220l-66 -220h129zM177 915h169l50 -142l-120 -32z" />
    <glyph glyph-name="Aacute" unicode="&#xc1;" horiz-adv-x="667" 
d="M245 710h178l246 -710h-198l-43 139h-189l-42 -139h-199zM397 269l-63 220l-66 -220h129zM392 740l-120 32l50 142h169z" />
    <glyph glyph-name="Acircumflex" unicode="&#xc2;" horiz-adv-x="667" 
d="M245 710h178l246 -710h-198l-43 139h-189l-42 -139h-199zM397 269l-63 220l-66 -220h129zM153 799l113 115h136l113 -115l-96 -42l-85 63l-85 -63z" />
    <glyph glyph-name="Atilde" unicode="&#xc3;" horiz-adv-x="667" 
d="M245 710h178l246 -710h-198l-43 139h-189l-42 -139h-199zM397 269l-63 220l-66 -220h129zM398 756c-15.333 0 -28.833 2.49805 -40.5 7.49805s-22.5 10.5 -32.5 16.5s-19.833 11.5 -29.5 16.5s-20.167 7.5 -31.5 7.5s-20 -2.33301 -26 -7s-10.5 -10 -13.5 -16
s-4.83301 -11.5 -5.5 -16.5s-1 -7.83301 -1 -8.5h-101c0 8.66699 2.5 21.834 7.5 39.501s13.167 35.167 24.5 52.5s25.666 32.666 42.999 45.999s38.666 20 63.999 20c16 0 30 -2.66699 42 -8s23 -11.166 33 -17.499s19.667 -12.166 29 -17.499s19.666 -8 30.999 -8
c10.667 0 19.334 2.5 26.001 7.5s11.834 10.667 15.501 17s6 12.166 7 17.499s1.5 8.33301 1.5 9h100c0 -6 -2.66699 -17.5 -8 -34.5s-13.666 -34.667 -24.999 -53s-26 -34.666 -44 -48.999s-40 -21.5 -66 -21.5z" />
    <glyph glyph-name="Adieresis" unicode="&#xc4;" horiz-adv-x="667" 
d="M245 710h178l246 -710h-198l-43 139h-189l-42 -139h-199zM397 269l-63 220l-66 -220h129zM141 765v140h156v-140h-156zM371 765v140h156v-140h-156z" />
    <glyph glyph-name="Aring" unicode="&#xc5;" horiz-adv-x="667" 
d="M245 710h178l246 -710h-198l-43 139h-189l-42 -139h-199zM397 269l-63 220l-66 -220h129zM217 827c0 29.333 10.5 51.166 31.5 65.499s49.5 21.5 85.5 21.5s64.5 -7.16699 85.5 -21.5s31.5 -36.166 31.5 -65.499s-10.5 -51.166 -31.5 -65.499s-49.5 -21.5 -85.5 -21.5
s-64.5 7.16699 -85.5 21.5s-31.5 36.166 -31.5 65.499zM334 860c-11.333 0 -20.833 -3 -28.5 -9s-11.5 -13.667 -11.5 -23c0 -10 3.83301 -18.167 11.5 -24.5s17.167 -9.5 28.5 -9.5s20.833 3.16699 28.5 9.5s11.5 14.5 11.5 24.5c0 9.33301 -3.83301 17 -11.5 23
s-17.167 9 -28.5 9z" />
    <glyph glyph-name="AE" unicode="&#xc6;" horiz-adv-x="971" 
d="M405 710h527v-170h-282v-94h228v-170h-228v-106h291v-170h-485v139h-201l-75 -139h-206zM441 309v186l-104 -186h104z" />
    <glyph glyph-name="Ccedilla" unicode="&#xc7;" horiz-adv-x="691" 
d="M277 -128c7.33301 -4.66699 19.668 -9.16699 37.001 -13.5s35 -6.5 53 -6.5c15.333 0 28.5 2.33301 39.5 7s16.5 12.667 16.5 24s-5 19.166 -15 23.499s-23.333 6.5 -40 6.5c-14 0 -28.833 -1.16699 -44.5 -3.5s-27.167 -4.16602 -34.5 -5.49902l45 93
c-46.667 6 -89.167 20.333 -127.5 43s-71.166 50.834 -98.499 84.501s-48.5 71 -63.5 112s-22.5 82.5 -22.5 124.5c0 43.333 8.16699 86 24.5 128s40.166 79.667 71.499 113s69.333 60.333 114 81s95.667 31 153 31c68.667 0 128.167 -14.167 178.5 -42.5
s87.833 -65.833 112.5 -112.5l-149 -106c-6.66699 17.333 -15.5 31.666 -26.5 42.999s-23.167 20.333 -36.5 27s-27.166 11.334 -41.499 14.001s-28.166 4 -41.499 4c-28 0 -52.167 -5.5 -72.5 -16.5s-37 -25.333 -50 -43s-22.667 -37.667 -29 -60s-9.5 -44.5 -9.5 -66.5
c0 -24.667 3.66699 -48.334 11 -71.001s18 -42.667 32 -60s31.167 -31.166 51.5 -41.499s43.166 -15.5 68.499 -15.5c13.333 0 27 1.5 41 4.5s27.5 8 40.5 15s24.667 16 35 27s18.5 24.5 24.5 40.5l159 -95c-10 -24 -24.667 -45.667 -44 -65s-41.5 -36 -66.5 -50
s-51.833 -25.167 -80.5 -33.5s-57.334 -13.5 -86.001 -15.5l-20 -29c4 0.666992 8.16699 1.16699 12.5 1.5s9.16602 0.5 14.499 0.5c12 0 23.667 -1.5 35 -4.5s21.333 -7.5 30 -13.5s15.667 -14 21 -24s8 -22 8 -36c0 -28 -12.167 -52.167 -36.5 -72.5
s-62.833 -30.5 -115.5 -30.5c-24 0 -45.5 2.16699 -64.5 6.5s-35.167 9.16602 -48.5 14.499z" />
    <glyph glyph-name="Egrave" unicode="&#xc8;" horiz-adv-x="597" 
d="M567 170v-170h-506v710h497v-170h-302v-100h258v-158h-258v-112h311zM159 915h169l50 -142l-120 -32z" />
    <glyph glyph-name="Eacute" unicode="&#xc9;" horiz-adv-x="597" 
d="M567 170v-170h-506v710h497v-170h-302v-100h258v-158h-258v-112h311zM374 740l-120 32l50 142h169z" />
    <glyph glyph-name="Ecircumflex" unicode="&#xca;" horiz-adv-x="597" 
d="M567 170v-170h-506v710h497v-170h-302v-100h258v-158h-258v-112h311zM135 799l113 115h136l113 -115l-96 -42l-85 63l-85 -63z" />
    <glyph glyph-name="Edieresis" unicode="&#xcb;" horiz-adv-x="597" 
d="M567 170v-170h-506v710h497v-170h-302v-100h258v-158h-258v-112h311zM123 765v140h156v-140h-156zM353 765v140h156v-140h-156z" />
    <glyph glyph-name="Igrave" unicode="&#xcc;" horiz-adv-x="317" 
d="M61 0v710h195v-710h-195zM1 915h169l50 -142l-120 -32z" />
    <glyph glyph-name="Iacute" unicode="&#xcd;" horiz-adv-x="317" 
d="M61 0v710h195v-710h-195zM216 740l-120 32l50 142h169z" />
    <glyph glyph-name="Icircumflex" unicode="&#xce;" horiz-adv-x="317" 
d="M61 0v710h195v-710h-195zM-23 799l113 115h136l113 -115l-96 -42l-85 63l-85 -63z" />
    <glyph glyph-name="Idieresis" unicode="&#xcf;" horiz-adv-x="317" 
d="M61 0v710h195v-710h-195zM-35 765v140h156v-140h-156zM195 765v140h156v-140h-156z" />
    <glyph glyph-name="Eth" unicode="&#xd0;" horiz-adv-x="720" 
d="M65 0l-0.000976562 287h-37v140h37v283h273c58.667 0 110.334 -9.33301 155.001 -28s82 -44 112 -76s52.667 -69.5 68 -112.5s23 -88.833 23 -137.5c0 -54 -8.5 -102.833 -25.5 -146.5s-41.167 -81 -72.5 -112s-69 -55 -113 -72s-93 -25.5 -147 -25.5h-273zM497.999 356
c0 27.333 -3.66699 52.3311 -11 74.998s-17.833 42 -31.5 58s-30.5 28.5 -50.5 37.5s-42.333 13.5 -67 13.5h-78v-113h114v-140h-114v-117h78c25.333 0 48 4.66699 68 14s36.833 22.333 50.5 39s24 36.334 31 59.001s10.5 47.334 10.5 74.001z" />
    <glyph glyph-name="Ntilde" unicode="&#xd1;" horiz-adv-x="754" 
d="M256 349v-349h-195v710h152l285 -361v361h195v-710h-155zM438 755c-15.333 0 -28.833 2.49805 -40.5 7.49805s-22.5 10.5 -32.5 16.5s-19.833 11.5 -29.5 16.5s-20.167 7.5 -31.5 7.5s-20 -2.33301 -26 -7s-10.5 -10 -13.5 -16s-4.83301 -11.5 -5.5 -16.5
s-1 -7.83301 -1 -8.5h-101c0 8.66699 2.5 21.834 7.5 39.501s13.167 35.167 24.5 52.5s25.666 32.666 42.999 45.999s38.666 20 63.999 20c16 0 30 -2.66699 42 -8s23 -11.166 33 -17.499s19.667 -12.166 29 -17.499s19.666 -8 30.999 -8c10.667 0 19.334 2.5 26.001 7.5
s11.834 10.667 15.501 17s6 12.166 7 17.499s1.5 8.33301 1.5 9h100c0 -6 -2.66699 -17.5 -8 -34.5s-13.666 -34.667 -24.999 -53s-26 -34.666 -44 -48.999s-40 -21.5 -66 -21.5z" />
    <glyph glyph-name="Ograve" unicode="&#xd2;" horiz-adv-x="765" 
d="M381 -6c-54 0 -103 10.3311 -147 30.998s-81.667 47.834 -113 81.501s-55.666 72.167 -72.999 115.5s-26 88 -26 134c0 46.667 9 91.667 27 135s43.167 81.5 75.5 114.5s70.666 59.333 114.999 79s92.833 29.5 145.5 29.5c54 0 103 -10.333 147 -31s81.667 -48 113 -82
s55.5 -72.667 72.5 -116s25.5 -87.666 25.5 -132.999c0 -46.667 -9 -91.5 -27 -134.5s-43 -81 -75 -114s-70.167 -59.5 -114.5 -79.5s-92.833 -30 -145.5 -30zM220 353.998c0 -24 3.33203 -47.1689 9.99902 -69.502s16.667 -42.166 30 -59.499s30.166 -31.333 50.499 -42
s44.5 -16 72.5 -16s52.333 5.5 73 16.5s37.5 25.333 50.5 43s22.667 37.834 29 60.501s9.5 45.667 9.5 69c0 24 -3.33301 47.167 -10 69.5s-16.834 42 -30.501 59s-30.667 30.667 -51 41s-44.166 15.5 -71.499 15.5c-28 0 -52.167 -5.33301 -72.5 -16
s-37.166 -24.834 -50.499 -42.501s-23.166 -37.667 -29.499 -60s-9.5 -45.166 -9.5 -68.499zM232.999 914.996h169l50 -142l-120 -32z" />
    <glyph glyph-name="Oacute" unicode="&#xd3;" horiz-adv-x="765" 
d="M381 -6c-54 0 -103 10.3311 -147 30.998s-81.667 47.834 -113 81.501s-55.666 72.167 -72.999 115.5s-26 88 -26 134c0 46.667 9 91.667 27 135s43.167 81.5 75.5 114.5s70.666 59.333 114.999 79s92.833 29.5 145.5 29.5c54 0 103 -10.333 147 -31s81.667 -48 113 -82
s55.5 -72.667 72.5 -116s25.5 -87.666 25.5 -132.999c0 -46.667 -9 -91.5 -27 -134.5s-43 -81 -75 -114s-70.167 -59.5 -114.5 -79.5s-92.833 -30 -145.5 -30zM220 353.998c0 -24 3.33203 -47.1689 9.99902 -69.502s16.667 -42.166 30 -59.499s30.166 -31.333 50.499 -42
s44.5 -16 72.5 -16s52.333 5.5 73 16.5s37.5 25.333 50.5 43s22.667 37.834 29 60.501s9.5 45.667 9.5 69c0 24 -3.33301 47.167 -10 69.5s-16.834 42 -30.501 59s-30.667 30.667 -51 41s-44.166 15.5 -71.499 15.5c-28 0 -52.167 -5.33301 -72.5 -16
s-37.166 -24.834 -50.499 -42.501s-23.166 -37.667 -29.499 -60s-9.5 -45.166 -9.5 -68.499zM450.999 739.996l-120 32l50 142h169z" />
    <glyph glyph-name="Ocircumflex" unicode="&#xd4;" horiz-adv-x="765" 
d="M381 -6c-54 0 -103 10.3311 -147 30.998s-81.667 47.834 -113 81.501s-55.666 72.167 -72.999 115.5s-26 88 -26 134c0 46.667 9 91.667 27 135s43.167 81.5 75.5 114.5s70.666 59.333 114.999 79s92.833 29.5 145.5 29.5c54 0 103 -10.333 147 -31s81.667 -48 113 -82
s55.5 -72.667 72.5 -116s25.5 -87.666 25.5 -132.999c0 -46.667 -9 -91.5 -27 -134.5s-43 -81 -75 -114s-70.167 -59.5 -114.5 -79.5s-92.833 -30 -145.5 -30zM220 353.998c0 -24 3.33203 -47.1689 9.99902 -69.502s16.667 -42.166 30 -59.499s30.166 -31.333 50.499 -42
s44.5 -16 72.5 -16s52.333 5.5 73 16.5s37.5 25.333 50.5 43s22.667 37.834 29 60.501s9.5 45.667 9.5 69c0 24 -3.33301 47.167 -10 69.5s-16.834 42 -30.501 59s-30.667 30.667 -51 41s-44.166 15.5 -71.499 15.5c-28 0 -52.167 -5.33301 -72.5 -16
s-37.166 -24.834 -50.499 -42.501s-23.166 -37.667 -29.499 -60s-9.5 -45.166 -9.5 -68.499zM202.999 798.996l113 115h136l113 -115l-96 -42l-85 63l-85 -63z" />
    <glyph glyph-name="Otilde" unicode="&#xd5;" horiz-adv-x="765" 
d="M381 -6c-54 0 -103 10.3311 -147 30.998s-81.667 47.834 -113 81.501s-55.666 72.167 -72.999 115.5s-26 88 -26 134c0 46.667 9 91.667 27 135s43.167 81.5 75.5 114.5s70.666 59.333 114.999 79s92.833 29.5 145.5 29.5c54 0 103 -10.333 147 -31s81.667 -48 113 -82
s55.5 -72.667 72.5 -116s25.5 -87.666 25.5 -132.999c0 -46.667 -9 -91.5 -27 -134.5s-43 -81 -75 -114s-70.167 -59.5 -114.5 -79.5s-92.833 -30 -145.5 -30zM220 353.998c0 -24 3.33203 -47.1689 9.99902 -69.502s16.667 -42.166 30 -59.499s30.166 -31.333 50.499 -42
s44.5 -16 72.5 -16s52.333 5.5 73 16.5s37.5 25.333 50.5 43s22.667 37.834 29 60.501s9.5 45.667 9.5 69c0 24 -3.33301 47.167 -10 69.5s-16.834 42 -30.501 59s-30.667 30.667 -51 41s-44.166 15.5 -71.499 15.5c-28 0 -52.167 -5.33301 -72.5 -16
s-37.166 -24.834 -50.499 -42.501s-23.166 -37.667 -29.499 -60s-9.5 -45.166 -9.5 -68.499zM451.999 755.996c-15.333 0 -28.833 2.49805 -40.5 7.49805s-22.5 10.5 -32.5 16.5s-19.833 11.5 -29.5 16.5s-20.167 7.5 -31.5 7.5s-20 -2.33301 -26 -7s-10.5 -10 -13.5 -16
s-4.83301 -11.5 -5.5 -16.5s-1 -7.83301 -1 -8.5h-101c0 8.66699 2.5 21.834 7.5 39.501s13.167 35.167 24.5 52.5s25.666 32.666 42.999 45.999s38.666 20 63.999 20c16 0 30 -2.66699 42 -8s23 -11.166 33 -17.499s19.667 -12.166 29 -17.499s19.666 -8 30.999 -8
c10.667 0 19.334 2.5 26.001 7.5s11.834 10.667 15.501 17s6 12.166 7 17.499s1.5 8.33301 1.5 9h100c0 -6 -2.66699 -17.5 -8 -34.5s-13.666 -34.667 -24.999 -53s-26 -34.666 -44 -48.999s-40 -21.5 -66 -21.5z" />
    <glyph glyph-name="Odieresis" unicode="&#xd6;" horiz-adv-x="765" 
d="M381 -6c-54 0 -103 10.3311 -147 30.998s-81.667 47.834 -113 81.501s-55.666 72.167 -72.999 115.5s-26 88 -26 134c0 46.667 9 91.667 27 135s43.167 81.5 75.5 114.5s70.666 59.333 114.999 79s92.833 29.5 145.5 29.5c54 0 103 -10.333 147 -31s81.667 -48 113 -82
s55.5 -72.667 72.5 -116s25.5 -87.666 25.5 -132.999c0 -46.667 -9 -91.5 -27 -134.5s-43 -81 -75 -114s-70.167 -59.5 -114.5 -79.5s-92.833 -30 -145.5 -30zM220 353.998c0 -24 3.33203 -47.1689 9.99902 -69.502s16.667 -42.166 30 -59.499s30.166 -31.333 50.499 -42
s44.5 -16 72.5 -16s52.333 5.5 73 16.5s37.5 25.333 50.5 43s22.667 37.834 29 60.501s9.5 45.667 9.5 69c0 24 -3.33301 47.167 -10 69.5s-16.834 42 -30.501 59s-30.667 30.667 -51 41s-44.166 15.5 -71.499 15.5c-28 0 -52.167 -5.33301 -72.5 -16
s-37.166 -24.834 -50.499 -42.501s-23.166 -37.667 -29.499 -60s-9.5 -45.166 -9.5 -68.499zM190.999 764.996v140h156v-140h-156zM420.999 764.996v140h156v-140h-156z" />
    <glyph glyph-name="multiply" unicode="&#xd7;" horiz-adv-x="492" 
d="M451 191l-119 -118l-87 87l-87 -87l-117 118l86 86l-80 81l119 118l80 -80l80 80l117 -118l-80 -80z" />
    <glyph glyph-name="Oslash" unicode="&#xd8;" horiz-adv-x="763" 
d="M745 710l-89.999 -122.998c28 -33.333 49.5 -70.333 64.5 -111s22.5 -82 22.5 -124c0 -46.667 -9 -91.5 -27 -134.5s-43 -81 -75 -114s-70.167 -59.5 -114.5 -79.5s-92.833 -30 -145.5 -30c-49.333 0 -95 8.66699 -137 26l-14 -20h-209l87 120
c-28 33.333 -49.333 70.166 -64 110.499s-22 82.166 -22 125.499c0 46.667 9 91.667 27 135s43.167 81.5 75.5 114.5s70.666 59.333 114.999 79s92.833 29.5 145.5 29.5c24.667 0 48.167 -2.33301 70.5 -7s43.833 -11 64.5 -19l16 22h210zM219.001 354.002
c0 -24 2.99805 -46.333 8.99805 -67l183 251c-10 2 -20 3 -30 3c-28 0 -52.167 -5.33301 -72.5 -16s-37.166 -24.834 -50.499 -42.501s-23.166 -37.667 -29.499 -60s-9.5 -45.166 -9.5 -68.499zM543.999 356.002c0 23.333 -3 44.999 -9 64.999l-183 -252
c4.66699 -0.666992 9.5 -1.16699 14.5 -1.5s10.167 -0.5 15.5 -0.5c28 0 52.333 5.5 73 16.5s37.5 25.333 50.5 43s22.667 37.834 29 60.501s9.5 45.667 9.5 69z" />
    <glyph glyph-name="Ugrave" unicode="&#xd9;" horiz-adv-x="743" 
d="M371 167c22.667 0 42 5.00293 58 15.0029s29 23.167 39 39.5s17.333 35.166 22 56.499s7 43.666 7 66.999v365h195v-365c0 -49.333 -6.33301 -95.5 -19 -138.5s-32.334 -80.167 -59.001 -111.5s-60.167 -56 -100.5 -74s-87.833 -27 -142.5 -27
c-56.667 0 -105.167 9.5 -145.5 28.5s-73.5 44.5 -99.5 76.5s-45 69.167 -57 111.5s-18 87.166 -18 134.499v365h195v-365c0 -23.333 2.33301 -45.833 7 -67.5s12 -40.667 22 -57s22.833 -29.333 38.5 -39s34.834 -14.5 57.501 -14.5zM214 915.003h169l50 -142l-120 -32z
" />
    <glyph glyph-name="Uacute" unicode="&#xda;" horiz-adv-x="743" 
d="M371 167c22.667 0 42 5.00293 58 15.0029s29 23.167 39 39.5s17.333 35.166 22 56.499s7 43.666 7 66.999v365h195v-365c0 -49.333 -6.33301 -95.5 -19 -138.5s-32.334 -80.167 -59.001 -111.5s-60.167 -56 -100.5 -74s-87.833 -27 -142.5 -27
c-56.667 0 -105.167 9.5 -145.5 28.5s-73.5 44.5 -99.5 76.5s-45 69.167 -57 111.5s-18 87.166 -18 134.499v365h195v-365c0 -23.333 2.33301 -45.833 7 -67.5s12 -40.667 22 -57s22.833 -29.333 38.5 -39s34.834 -14.5 57.501 -14.5zM429 740.003l-120 32l50 142h169z" />
    <glyph glyph-name="Ucircumflex" unicode="&#xdb;" horiz-adv-x="743" 
d="M371 167c22.667 0 42 5.00293 58 15.0029s29 23.167 39 39.5s17.333 35.166 22 56.499s7 43.666 7 66.999v365h195v-365c0 -49.333 -6.33301 -95.5 -19 -138.5s-32.334 -80.167 -59.001 -111.5s-60.167 -56 -100.5 -74s-87.833 -27 -142.5 -27
c-56.667 0 -105.167 9.5 -145.5 28.5s-73.5 44.5 -99.5 76.5s-45 69.167 -57 111.5s-18 87.166 -18 134.499v365h195v-365c0 -23.333 2.33301 -45.833 7 -67.5s12 -40.667 22 -57s22.833 -29.333 38.5 -39s34.834 -14.5 57.501 -14.5zM190 799.003l113 115h136l113 -115
l-96 -42l-85 63l-85 -63z" />
    <glyph glyph-name="Udieresis" unicode="&#xdc;" horiz-adv-x="743" 
d="M371 167c22.667 0 42 5.00293 58 15.0029s29 23.167 39 39.5s17.333 35.166 22 56.499s7 43.666 7 66.999v365h195v-365c0 -49.333 -6.33301 -95.5 -19 -138.5s-32.334 -80.167 -59.001 -111.5s-60.167 -56 -100.5 -74s-87.833 -27 -142.5 -27
c-56.667 0 -105.167 9.5 -145.5 28.5s-73.5 44.5 -99.5 76.5s-45 69.167 -57 111.5s-18 87.166 -18 134.499v365h195v-365c0 -23.333 2.33301 -45.833 7 -67.5s12 -40.667 22 -57s22.833 -29.333 38.5 -39s34.834 -14.5 57.501 -14.5zM178 765.003v140h156v-140h-156z
M408 765.003v140h156v-140h-156z" />
    <glyph glyph-name="Yacute" unicode="&#xdd;" horiz-adv-x="666" 
d="M205 710l127 -307l130 307h212l-245 -475v-235h-194v237l-241 473h211zM390 740l-120 32l50 142h169z" />
    <glyph glyph-name="Thorn" unicode="&#xde;" horiz-adv-x="605" 
d="M352 592c34.667 0 66.666 -7.16699 95.999 -21.5s54.5 -33 75.5 -56s37.5 -49.167 49.5 -78.5s18 -59 18 -89c0 -32 -5.66699 -62.667 -17 -92s-27.166 -55.5 -47.499 -78.5s-45 -41.333 -74 -55s-60.833 -20.5 -95.5 -20.5h-101v-101h-195v710h195v-118h96zM346.999 271
c12.667 0 24.001 6.83203 34.001 20.499s15 32.167 15 55.5c0 24.667 -5.83301 43.334 -17.5 56.001s-23.834 19 -36.501 19h-86v-151h91z" />
    <glyph glyph-name="germandbls" unicode="&#xdf;" horiz-adv-x="563" 
d="M254 168c24.667 0 45.833 5.8291 63.5 17.4961s26.5 28.834 26.5 51.501c0 12 -2.5 22.167 -7.5 30.5s-11.167 15.166 -18.5 20.499s-14.833 9.16602 -22.5 11.499s-14.5 3.5 -20.5 3.5h-23v170h21c14 0 24 3.66699 30 11s9 16.666 9 27.999
c0 10.667 -2.16699 18.834 -6.5 24.501s-9.16602 9.83398 -14.499 12.501s-10.166 4.16699 -14.499 4.5s-6.83301 0.5 -7.5 0.5c-10 0 -17.833 -2.5 -23.5 -7.5s-9.83398 -10.833 -12.501 -17.5s-4.16699 -13.334 -4.5 -20.001s-0.5 -11.667 -0.5 -15v-494h-180v529
c0 26.667 6.16699 51.167 18.5 73.5s29.333 41.833 51 58.5s47 29.667 76 39s60.5 14 94.5 14c29.333 0 56.5 -3.66699 81.5 -11s46.5 -18.166 64.5 -32.499s32.167 -32 42.5 -53s15.5 -44.833 15.5 -71.5c0 -16.667 -2 -32.667 -6 -48s-9.16699 -29.166 -15.5 -41.499
s-13.833 -23.166 -22.5 -32.499s-17.667 -16.333 -27 -21c38 -14.667 68 -38 90 -70s33 -72 33 -120c0 -43.333 -8.83301 -79.166 -26.5 -107.499s-40.334 -50.666 -68.001 -66.999s-58.667 -27.833 -93 -34.5s-68.5 -10 -102.5 -10v174z" />
    <glyph glyph-name="agrave" unicode="&#xe0;" horiz-adv-x="599" 
d="M203 -10c-26 0 -50.3311 4.33398 -72.998 13.001s-42.167 20.5 -58.5 35.5s-29.166 32.833 -38.499 53.5s-14 43 -14 67c0 26.667 5.66699 51 17 73s27 41 47 57s43.833 28.333 71.5 37s58.167 13 91.5 13c42.667 0 78 -6.66699 106 -20v16
c0 24.667 -7.16699 43 -21.5 55s-37.5 18 -69.5 18c-30 0 -57.667 -4.83301 -83 -14.5s-52 -23.834 -80 -42.501l-55 118c69.333 44.667 148.333 67 237 67c84 0 148.667 -18.667 194 -56s68 -93.333 68 -168v-102c0 -18 2.66699 -30.5 8 -37.5s14.666 -11.167 27.999 -12.5
v-160c-15.333 -3.33301 -29.833 -5.83301 -43.5 -7.5s-25.834 -2.5 -36.501 -2.5c-34 0 -59.833 6.16699 -77.5 18.5s-29.167 30.5 -34.5 54.5l-4 19c-23.333 -30 -50.333 -52.833 -81 -68.5s-63.334 -23.5 -98.001 -23.5zM260.002 126.001
c11.333 0 22.998 1.83301 34.998 5.5s22.667 8.5 32 14.5c7.33301 5.33301 13.333 11.166 18 17.499s7 12.833 7 19.5v39c-11.333 4 -23.666 7.33301 -36.999 10s-25.333 4 -36 4c-23.333 0 -42.666 -5.66699 -57.999 -17s-23 -25.666 -23 -42.999
c0 -14.667 5.83301 -26.667 17.5 -36s26.5 -14 44.5 -14zM123 731.001h169l50 -142l-120 -32z" />
    <glyph glyph-name="aacute" unicode="&#xe1;" horiz-adv-x="599" 
d="M203 -10c-26 0 -50.3311 4.33398 -72.998 13.001s-42.167 20.5 -58.5 35.5s-29.166 32.833 -38.499 53.5s-14 43 -14 67c0 26.667 5.66699 51 17 73s27 41 47 57s43.833 28.333 71.5 37s58.167 13 91.5 13c42.667 0 78 -6.66699 106 -20v16
c0 24.667 -7.16699 43 -21.5 55s-37.5 18 -69.5 18c-30 0 -57.667 -4.83301 -83 -14.5s-52 -23.834 -80 -42.501l-55 118c69.333 44.667 148.333 67 237 67c84 0 148.667 -18.667 194 -56s68 -93.333 68 -168v-102c0 -18 2.66699 -30.5 8 -37.5s14.666 -11.167 27.999 -12.5
v-160c-15.333 -3.33301 -29.833 -5.83301 -43.5 -7.5s-25.834 -2.5 -36.501 -2.5c-34 0 -59.833 6.16699 -77.5 18.5s-29.167 30.5 -34.5 54.5l-4 19c-23.333 -30 -50.333 -52.833 -81 -68.5s-63.334 -23.5 -98.001 -23.5zM260.002 126.001
c11.333 0 22.998 1.83301 34.998 5.5s22.667 8.5 32 14.5c7.33301 5.33301 13.333 11.166 18 17.499s7 12.833 7 19.5v39c-11.333 4 -23.666 7.33301 -36.999 10s-25.333 4 -36 4c-23.333 0 -42.666 -5.66699 -57.999 -17s-23 -25.666 -23 -42.999
c0 -14.667 5.83301 -26.667 17.5 -36s26.5 -14 44.5 -14zM338 556.001l-120 32l50 142h169z" />
    <glyph glyph-name="acircumflex" unicode="&#xe2;" horiz-adv-x="599" 
d="M203 -10c-26 0 -50.3311 4.33398 -72.998 13.001s-42.167 20.5 -58.5 35.5s-29.166 32.833 -38.499 53.5s-14 43 -14 67c0 26.667 5.66699 51 17 73s27 41 47 57s43.833 28.333 71.5 37s58.167 13 91.5 13c42.667 0 78 -6.66699 106 -20v16
c0 24.667 -7.16699 43 -21.5 55s-37.5 18 -69.5 18c-30 0 -57.667 -4.83301 -83 -14.5s-52 -23.834 -80 -42.501l-55 118c69.333 44.667 148.333 67 237 67c84 0 148.667 -18.667 194 -56s68 -93.333 68 -168v-102c0 -18 2.66699 -30.5 8 -37.5s14.666 -11.167 27.999 -12.5
v-160c-15.333 -3.33301 -29.833 -5.83301 -43.5 -7.5s-25.834 -2.5 -36.501 -2.5c-34 0 -59.833 6.16699 -77.5 18.5s-29.167 30.5 -34.5 54.5l-4 19c-23.333 -30 -50.333 -52.833 -81 -68.5s-63.334 -23.5 -98.001 -23.5zM260.002 126.001
c11.333 0 22.998 1.83301 34.998 5.5s22.667 8.5 32 14.5c7.33301 5.33301 13.333 11.166 18 17.499s7 12.833 7 19.5v39c-11.333 4 -23.666 7.33301 -36.999 10s-25.333 4 -36 4c-23.333 0 -42.666 -5.66699 -57.999 -17s-23 -25.666 -23 -42.999
c0 -14.667 5.83301 -26.667 17.5 -36s26.5 -14 44.5 -14zM99 615.001l113 115h136l113 -115l-96 -42l-85 63l-85 -63z" />
    <glyph glyph-name="atilde" unicode="&#xe3;" horiz-adv-x="599" 
d="M203 -10c-26 0 -50.3311 4.33398 -72.998 13.001s-42.167 20.5 -58.5 35.5s-29.166 32.833 -38.499 53.5s-14 43 -14 67c0 26.667 5.66699 51 17 73s27 41 47 57s43.833 28.333 71.5 37s58.167 13 91.5 13c42.667 0 78 -6.66699 106 -20v16
c0 24.667 -7.16699 43 -21.5 55s-37.5 18 -69.5 18c-30 0 -57.667 -4.83301 -83 -14.5s-52 -23.834 -80 -42.501l-55 118c69.333 44.667 148.333 67 237 67c84 0 148.667 -18.667 194 -56s68 -93.333 68 -168v-102c0 -18 2.66699 -30.5 8 -37.5s14.666 -11.167 27.999 -12.5
v-160c-15.333 -3.33301 -29.833 -5.83301 -43.5 -7.5s-25.834 -2.5 -36.501 -2.5c-34 0 -59.833 6.16699 -77.5 18.5s-29.167 30.5 -34.5 54.5l-4 19c-23.333 -30 -50.333 -52.833 -81 -68.5s-63.334 -23.5 -98.001 -23.5zM260.002 126.001
c11.333 0 22.998 1.83301 34.998 5.5s22.667 8.5 32 14.5c7.33301 5.33301 13.333 11.166 18 17.499s7 12.833 7 19.5v39c-11.333 4 -23.666 7.33301 -36.999 10s-25.333 4 -36 4c-23.333 0 -42.666 -5.66699 -57.999 -17s-23 -25.666 -23 -42.999
c0 -14.667 5.83301 -26.667 17.5 -36s26.5 -14 44.5 -14zM344 572.001c-15.333 0 -28.833 2.49805 -40.5 7.49805s-22.5 10.5 -32.5 16.5s-19.833 11.5 -29.5 16.5s-20.167 7.5 -31.5 7.5s-20 -2.33301 -26 -7s-10.5 -10 -13.5 -16s-4.83301 -11.5 -5.5 -16.5
s-1 -7.83301 -1 -8.5h-101c0 8.66699 2.5 21.834 7.5 39.501s13.167 35.167 24.5 52.5s25.666 32.666 42.999 45.999s38.666 20 63.999 20c16 0 30 -2.66699 42 -8s23 -11.166 33 -17.499s19.667 -12.166 29 -17.499s19.666 -8 30.999 -8c10.667 0 19.334 2.5 26.001 7.5
s11.834 10.667 15.501 17s6 12.166 7 17.499s1.5 8.33301 1.5 9h100c0 -6 -2.66699 -17.5 -8 -34.5s-13.666 -34.667 -24.999 -53s-26 -34.666 -44 -48.999s-40 -21.5 -66 -21.5z" />
    <glyph glyph-name="adieresis" unicode="&#xe4;" horiz-adv-x="599" 
d="M203 -10c-26 0 -50.3311 4.33398 -72.998 13.001s-42.167 20.5 -58.5 35.5s-29.166 32.833 -38.499 53.5s-14 43 -14 67c0 26.667 5.66699 51 17 73s27 41 47 57s43.833 28.333 71.5 37s58.167 13 91.5 13c42.667 0 78 -6.66699 106 -20v16
c0 24.667 -7.16699 43 -21.5 55s-37.5 18 -69.5 18c-30 0 -57.667 -4.83301 -83 -14.5s-52 -23.834 -80 -42.501l-55 118c69.333 44.667 148.333 67 237 67c84 0 148.667 -18.667 194 -56s68 -93.333 68 -168v-102c0 -18 2.66699 -30.5 8 -37.5s14.666 -11.167 27.999 -12.5
v-160c-15.333 -3.33301 -29.833 -5.83301 -43.5 -7.5s-25.834 -2.5 -36.501 -2.5c-34 0 -59.833 6.16699 -77.5 18.5s-29.167 30.5 -34.5 54.5l-4 19c-23.333 -30 -50.333 -52.833 -81 -68.5s-63.334 -23.5 -98.001 -23.5zM260.002 126.001
c11.333 0 22.998 1.83301 34.998 5.5s22.667 8.5 32 14.5c7.33301 5.33301 13.333 11.166 18 17.499s7 12.833 7 19.5v39c-11.333 4 -23.666 7.33301 -36.999 10s-25.333 4 -36 4c-23.333 0 -42.666 -5.66699 -57.999 -17s-23 -25.666 -23 -42.999
c0 -14.667 5.83301 -26.667 17.5 -36s26.5 -14 44.5 -14zM87 581.001v140h156v-140h-156zM317 581.001v140h156v-140h-156z" />
    <glyph glyph-name="aring" unicode="&#xe5;" horiz-adv-x="599" 
d="M203 -10c-26 0 -50.3311 4.33398 -72.998 13.001s-42.167 20.5 -58.5 35.5s-29.166 32.833 -38.499 53.5s-14 43 -14 67c0 26.667 5.66699 51 17 73s27 41 47 57s43.833 28.333 71.5 37s58.167 13 91.5 13c42.667 0 78 -6.66699 106 -20v16
c0 24.667 -7.16699 43 -21.5 55s-37.5 18 -69.5 18c-30 0 -57.667 -4.83301 -83 -14.5s-52 -23.834 -80 -42.501l-55 118c69.333 44.667 148.333 67 237 67c84 0 148.667 -18.667 194 -56s68 -93.333 68 -168v-102c0 -18 2.66699 -30.5 8 -37.5s14.666 -11.167 27.999 -12.5
v-160c-15.333 -3.33301 -29.833 -5.83301 -43.5 -7.5s-25.834 -2.5 -36.501 -2.5c-34 0 -59.833 6.16699 -77.5 18.5s-29.167 30.5 -34.5 54.5l-4 19c-23.333 -30 -50.333 -52.833 -81 -68.5s-63.334 -23.5 -98.001 -23.5zM260.002 126.001
c11.333 0 22.998 1.83301 34.998 5.5s22.667 8.5 32 14.5c7.33301 5.33301 13.333 11.166 18 17.499s7 12.833 7 19.5v39c-11.333 4 -23.666 7.33301 -36.999 10s-25.333 4 -36 4c-23.333 0 -42.666 -5.66699 -57.999 -17s-23 -25.666 -23 -42.999
c0 -14.667 5.83301 -26.667 17.5 -36s26.5 -14 44.5 -14zM163 643.001c0 29.333 10.5 51.166 31.5 65.499s49.5 21.5 85.5 21.5s64.5 -7.16699 85.5 -21.5s31.5 -36.166 31.5 -65.499s-10.5 -51.166 -31.5 -65.499s-49.5 -21.5 -85.5 -21.5s-64.5 7.16699 -85.5 21.5
s-31.5 36.166 -31.5 65.499zM280 676.001c-11.333 0 -20.833 -3 -28.5 -9s-11.5 -13.667 -11.5 -23c0 -10 3.83301 -18.167 11.5 -24.5s17.167 -9.5 28.5 -9.5s20.833 3.16699 28.5 9.5s11.5 14.5 11.5 24.5c0 9.33301 -3.83301 17 -11.5 23s-17.167 9 -28.5 9z" />
    <glyph glyph-name="ae" unicode="&#xe6;" horiz-adv-x="942" 
d="M203 -10c-26 0 -50.332 4.33301 -72.999 13s-42.167 20.5 -58.5 35.5s-29.166 32.833 -38.499 53.5s-14 43 -14 67c0 26.667 5.66699 51 17 73s27 41 47 57s43.833 28.333 71.5 37s58.167 13 91.5 13c42.667 0 78 -6.66699 106 -20v16c-0.666992 24.667 -8 43 -22 55
s-37 18 -69 18c-30 0 -57.667 -4.83301 -83 -14.5s-52 -23.834 -80 -42.501l-55 118c69.333 44.667 148.333 67 237 67c78 0 139.667 -16.667 185 -50c22.667 15.333 48.5 27.5 77.5 36.5s61.5 13.5 97.5 13.5c46.667 0 88 -7.5 124 -22.5s66.167 -35 90.5 -60
s42.666 -54 54.999 -87s18.5 -67.5 18.5 -103.5c0 -10 -0.5 -20.167 -1.5 -30.5s-2.16699 -19.5 -3.5 -27.5h-369c2 -28 12.333 -48.167 31 -60.5s39 -18.5 61 -18.5c20.667 0 40.167 4.66699 58.5 14s30.5 22.333 36.5 39l161 -46
c-21.333 -42 -54.166 -76.333 -98.499 -103s-98.833 -40 -163.5 -40c-53.333 0 -99.5 9.33301 -138.5 28s-70.5 43.334 -94.5 74.001c-12.667 -18 -27.334 -33.5 -44.001 -46.5s-34 -23.5 -52 -31.5s-36.333 -14 -55 -18s-36.334 -6 -53.001 -6zM260.001 126
c11.333 0 22.998 1.83301 34.998 5.5s22.667 8.5 32 14.5c7.33301 5.33301 13.333 11.166 18 17.499s7 12.833 7 19.5v39c-11.333 4 -23.666 7.33301 -36.999 10s-25.333 4 -36 4c-23.333 0 -42.666 -5.66699 -57.999 -17s-23 -25.666 -23 -42.999
c0 -14.667 5.83301 -26.667 17.5 -36s26.5 -14 44.5 -14zM723.999 319c-3.33301 25.333 -12.668 45.333 -28.001 60s-35 22 -59 22s-43.667 -7.33301 -59 -22s-24.666 -34.667 -27.999 -60h174z" />
    <glyph glyph-name="ccedilla" unicode="&#xe7;" horiz-adv-x="577" 
d="M216 -128c7.33301 -4.66699 19.667 -9.16504 37 -13.498s35 -6.5 53 -6.5c15.333 0 28.5 2.33301 39.5 7s16.5 12.667 16.5 24s-5 19.166 -15 23.499s-23.333 6.5 -40 6.5c-14 0 -28.833 -1.16699 -44.5 -3.5s-27.167 -4.16602 -34.5 -5.49902l42 88
c-40.667 4 -76.5 14 -107.5 30s-57.167 36.333 -78.5 61s-37.5 52.5 -48.5 83.5s-16.5 63.167 -16.5 96.5c0 36 6.33301 70.5 19 103.5s31.167 62 55.5 87s54.5 45 90.5 60s77.333 22.5 124 22.5c64 0 117.5 -13.333 160.5 -40s75.167 -61 96.5 -103l-185 -56
c-18 26 -42.333 39 -73 39c-26 0 -48 -9.83301 -66 -29.5s-27 -47.5 -27 -83.5s9 -63.833 27 -83.5s40 -29.5 66 -29.5c30.667 0 55 13 73 39l185 -56c-19.333 -38 -47.666 -69.833 -84.999 -95.5s-83 -40.834 -137 -45.501l-18 -26c4 0.666992 8.16699 1.16699 12.5 1.5
s9.16602 0.5 14.499 0.5c12 0 23.667 -1.5 35 -4.5s21.333 -7.5 30 -13.5s15.667 -14 21 -24s8 -22 8 -36c0 -28 -12.167 -52.167 -36.5 -72.5s-62.833 -30.5 -115.5 -30.5c-24 0 -45.5 2.16699 -64.5 6.5s-35.167 9.16602 -48.5 14.499z" />
    <glyph glyph-name="egrave" unicode="&#xe8;" 
d="M307 -10c-46 0 -86.999 7.16699 -122.999 21.5s-66.167 33.833 -90.5 58.5s-42.833 53 -55.5 85s-19 65.667 -19 101c0 38 6.16699 74 18.5 108s30.666 63.667 54.999 89s54.333 45.5 90 60.5s77.167 22.5 124.5 22.5c46.667 0 88 -7.5 124 -22.5s66.167 -35 90.5 -60
s42.666 -54 54.999 -87s18.5 -67.5 18.5 -103.5c0 -10 -0.5 -20.167 -1.5 -30.5s-2.16699 -19.5 -3.5 -27.5h-369c2 -28 12.333 -48.167 31 -60.5s39 -18.5 61 -18.5c20.667 0 40.167 4.66699 58.5 14s30.5 22.333 36.5 39l161 -46
c-21.333 -42 -54.166 -76.333 -98.499 -103s-98.833 -40 -163.5 -40zM391.001 319c-3.33301 25.333 -12.668 45.333 -28.001 60s-35 22 -59 22s-43.667 -7.33301 -59 -22s-24.666 -34.667 -27.999 -60h174zM149.999 731h169l50 -142l-120 -32z" />
    <glyph glyph-name="eacute" unicode="&#xe9;" 
d="M307 -10c-46 0 -86.999 7.16699 -122.999 21.5s-66.167 33.833 -90.5 58.5s-42.833 53 -55.5 85s-19 65.667 -19 101c0 38 6.16699 74 18.5 108s30.666 63.667 54.999 89s54.333 45.5 90 60.5s77.167 22.5 124.5 22.5c46.667 0 88 -7.5 124 -22.5s66.167 -35 90.5 -60
s42.666 -54 54.999 -87s18.5 -67.5 18.5 -103.5c0 -10 -0.5 -20.167 -1.5 -30.5s-2.16699 -19.5 -3.5 -27.5h-369c2 -28 12.333 -48.167 31 -60.5s39 -18.5 61 -18.5c20.667 0 40.167 4.66699 58.5 14s30.5 22.333 36.5 39l161 -46
c-21.333 -42 -54.166 -76.333 -98.499 -103s-98.833 -40 -163.5 -40zM391.001 319c-3.33301 25.333 -12.668 45.333 -28.001 60s-35 22 -59 22s-43.667 -7.33301 -59 -22s-24.666 -34.667 -27.999 -60h174zM364.999 556l-120 32l50 142h169z" />
    <glyph glyph-name="ecircumflex" unicode="&#xea;" 
d="M307 -10c-46 0 -86.999 7.16699 -122.999 21.5s-66.167 33.833 -90.5 58.5s-42.833 53 -55.5 85s-19 65.667 -19 101c0 38 6.16699 74 18.5 108s30.666 63.667 54.999 89s54.333 45.5 90 60.5s77.167 22.5 124.5 22.5c46.667 0 88 -7.5 124 -22.5s66.167 -35 90.5 -60
s42.666 -54 54.999 -87s18.5 -67.5 18.5 -103.5c0 -10 -0.5 -20.167 -1.5 -30.5s-2.16699 -19.5 -3.5 -27.5h-369c2 -28 12.333 -48.167 31 -60.5s39 -18.5 61 -18.5c20.667 0 40.167 4.66699 58.5 14s30.5 22.333 36.5 39l161 -46
c-21.333 -42 -54.166 -76.333 -98.499 -103s-98.833 -40 -163.5 -40zM391.001 319c-3.33301 25.333 -12.668 45.333 -28.001 60s-35 22 -59 22s-43.667 -7.33301 -59 -22s-24.666 -34.667 -27.999 -60h174zM125.999 615l113 115h136l113 -115l-96 -42l-85 63l-85 -63z" />
    <glyph glyph-name="edieresis" unicode="&#xeb;" 
d="M307 -10c-46 0 -86.999 7.16699 -122.999 21.5s-66.167 33.833 -90.5 58.5s-42.833 53 -55.5 85s-19 65.667 -19 101c0 38 6.16699 74 18.5 108s30.666 63.667 54.999 89s54.333 45.5 90 60.5s77.167 22.5 124.5 22.5c46.667 0 88 -7.5 124 -22.5s66.167 -35 90.5 -60
s42.666 -54 54.999 -87s18.5 -67.5 18.5 -103.5c0 -10 -0.5 -20.167 -1.5 -30.5s-2.16699 -19.5 -3.5 -27.5h-369c2 -28 12.333 -48.167 31 -60.5s39 -18.5 61 -18.5c20.667 0 40.167 4.66699 58.5 14s30.5 22.333 36.5 39l161 -46
c-21.333 -42 -54.166 -76.333 -98.499 -103s-98.833 -40 -163.5 -40zM391.001 319c-3.33301 25.333 -12.668 45.333 -28.001 60s-35 22 -59 22s-43.667 -7.33301 -59 -22s-24.666 -34.667 -27.999 -60h174zM113.999 581v140h156v-140h-156zM343.999 581v140h156v-140h-156z
" />
    <glyph glyph-name="igrave" unicode="&#xec;" horiz-adv-x="286" 
d="M48 0v526h190v-526h-190zM-14 731h169l50 -142l-120 -32z" />
    <glyph glyph-name="iacute" unicode="&#xed;" horiz-adv-x="286" 
d="M48 0v526h190v-526h-190zM201 556l-120 32l50 142h169z" />
    <glyph glyph-name="icircumflex" unicode="&#xee;" horiz-adv-x="286" 
d="M48 0v526h190v-526h-190zM-38 615l113 115h136l113 -115l-96 -42l-85 63l-85 -63z" />
    <glyph glyph-name="idieresis" unicode="&#xef;" horiz-adv-x="286" 
d="M48 0v526h190v-526h-190zM-50 581v140h156v-140h-156zM180 581v140h156v-140h-156z" />
    <glyph glyph-name="eth" unicode="&#xf0;" horiz-adv-x="621" 
d="M551 641l-61.998 -31.998c34 -44 60.667 -93.333 80 -148s29 -111.334 29 -170.001c0 -47.333 -6.66699 -89.5 -20 -126.5s-32.333 -68.5 -57 -94.5s-54.834 -45.833 -90.501 -59.5s-75.834 -20.5 -120.501 -20.5c-42 0 -80.667 6 -116 18s-65.833 28.833 -91.5 50.5
s-45.5 47.334 -59.5 77.001s-21 62.5 -21 98.5c0 33.333 6.16699 64.333 18.5 93s29.166 53.667 50.499 75s46.5 38.166 75.5 50.499s60.167 18.5 93.5 18.5c26.667 0 52.334 -4 77.001 -12s46.667 -19.333 66 -34c-6 22 -13.833 43.167 -23.5 63.5
s-21.5 40.166 -35.5 59.499l-76 -38l-52 71l67 34c-44.667 40.667 -103 79 -175 115h230c15.333 -7.33301 30.5 -15.5 45.5 -24.5s29.5 -19.5 43.5 -31.5l72 38zM217.002 235.002c0 -25.333 8.5 -45.833 25.5 -61.5s39.5 -23.5 67.5 -23.5s50.5 7.83301 67.5 23.5
s25.5 36.167 25.5 61.5s-8.5 45.833 -25.5 61.5s-39.5 23.5 -67.5 23.5s-50.5 -7.83301 -67.5 -23.5s-25.5 -36.167 -25.5 -61.5z" />
    <glyph glyph-name="ntilde" unicode="&#xf1;" horiz-adv-x="621" 
d="M577 0h-190.001v296c0 26 -5.83301 44.833 -17.5 56.5s-25.167 17.5 -40.5 17.5c-16 0 -33 -7 -51 -21s-31.333 -32 -40 -54v-295h-190v526h171v-78c18.667 28.667 44.834 50.5 78.501 65.5s73.5 22.5 119.5 22.5c36 0 64.5 -6.5 85.5 -19.5s37 -29.167 48 -48.5
s18.167 -40 21.5 -62s5 -42 5 -60v-346zM396.999 572c-15.333 0 -28.833 2.49805 -40.5 7.49805s-22.5 10.5 -32.5 16.5s-19.833 11.5 -29.5 16.5s-20.167 7.5 -31.5 7.5s-20 -2.33301 -26 -7s-10.5 -10 -13.5 -16s-4.83301 -11.5 -5.5 -16.5s-1 -7.83301 -1 -8.5h-101
c0 8.66699 2.5 21.834 7.5 39.501s13.167 35.167 24.5 52.5s25.666 32.666 42.999 45.999s38.666 20 63.999 20c16 0 30 -2.66699 42 -8s23 -11.166 33 -17.499s19.667 -12.166 29 -17.499s19.666 -8 30.999 -8c10.667 0 19.334 2.5 26.001 7.5s11.834 10.667 15.501 17
s6 12.166 7 17.499s1.5 8.33301 1.5 9h100c0 -6 -2.66699 -17.5 -8 -34.5s-13.666 -34.667 -24.999 -53s-26 -34.666 -44 -48.999s-40 -21.5 -66 -21.5z" />
    <glyph glyph-name="ograve" unicode="&#xf2;" horiz-adv-x="614" 
d="M307 -10c-47.333 0 -88.833 7.5 -124.5 22.5s-65.667 35 -90 60s-42.666 54 -54.999 87s-18.5 67.5 -18.5 103.5s6.16699 70.5 18.5 103.5s30.666 62 54.999 87s54.333 45 90 60s77.167 22.5 124.5 22.5c46.667 0 88 -7.5 124 -22.5s66.167 -35 90.5 -60
s42.666 -54 54.999 -87s18.5 -67.5 18.5 -103.5s-6.16699 -70.5 -18.5 -103.5s-30.666 -62 -54.999 -87s-54.5 -45 -90.5 -60s-77.333 -22.5 -124 -22.5zM214 263c0 -35.333 8.66699 -63 26 -83s39.666 -30 66.999 -30s49.666 10 66.999 30s26 47.667 26 83
s-8.66699 63 -26 83s-39.666 30 -66.999 30s-49.666 -10 -66.999 -30s-26 -47.667 -26 -83zM150 731h169l50 -142l-120 -32z" />
    <glyph glyph-name="oacute" unicode="&#xf3;" horiz-adv-x="614" 
d="M307 -10c-47.333 0 -88.833 7.5 -124.5 22.5s-65.667 35 -90 60s-42.666 54 -54.999 87s-18.5 67.5 -18.5 103.5s6.16699 70.5 18.5 103.5s30.666 62 54.999 87s54.333 45 90 60s77.167 22.5 124.5 22.5c46.667 0 88 -7.5 124 -22.5s66.167 -35 90.5 -60
s42.666 -54 54.999 -87s18.5 -67.5 18.5 -103.5s-6.16699 -70.5 -18.5 -103.5s-30.666 -62 -54.999 -87s-54.5 -45 -90.5 -60s-77.333 -22.5 -124 -22.5zM214 263c0 -35.333 8.66699 -63 26 -83s39.666 -30 66.999 -30s49.666 10 66.999 30s26 47.667 26 83
s-8.66699 63 -26 83s-39.666 30 -66.999 30s-49.666 -10 -66.999 -30s-26 -47.667 -26 -83zM365 556l-120 32l50 142h169z" />
    <glyph glyph-name="ocircumflex" unicode="&#xf4;" horiz-adv-x="614" 
d="M307 -10c-47.333 0 -88.833 7.5 -124.5 22.5s-65.667 35 -90 60s-42.666 54 -54.999 87s-18.5 67.5 -18.5 103.5s6.16699 70.5 18.5 103.5s30.666 62 54.999 87s54.333 45 90 60s77.167 22.5 124.5 22.5c46.667 0 88 -7.5 124 -22.5s66.167 -35 90.5 -60
s42.666 -54 54.999 -87s18.5 -67.5 18.5 -103.5s-6.16699 -70.5 -18.5 -103.5s-30.666 -62 -54.999 -87s-54.5 -45 -90.5 -60s-77.333 -22.5 -124 -22.5zM214 263c0 -35.333 8.66699 -63 26 -83s39.666 -30 66.999 -30s49.666 10 66.999 30s26 47.667 26 83
s-8.66699 63 -26 83s-39.666 30 -66.999 30s-49.666 -10 -66.999 -30s-26 -47.667 -26 -83zM126 615l113 115h136l113 -115l-96 -42l-85 63l-85 -63z" />
    <glyph glyph-name="otilde" unicode="&#xf5;" horiz-adv-x="614" 
d="M307 -10c-47.333 0 -88.833 7.5 -124.5 22.5s-65.667 35 -90 60s-42.666 54 -54.999 87s-18.5 67.5 -18.5 103.5s6.16699 70.5 18.5 103.5s30.666 62 54.999 87s54.333 45 90 60s77.167 22.5 124.5 22.5c46.667 0 88 -7.5 124 -22.5s66.167 -35 90.5 -60
s42.666 -54 54.999 -87s18.5 -67.5 18.5 -103.5s-6.16699 -70.5 -18.5 -103.5s-30.666 -62 -54.999 -87s-54.5 -45 -90.5 -60s-77.333 -22.5 -124 -22.5zM214 263c0 -35.333 8.66699 -63 26 -83s39.666 -30 66.999 -30s49.666 10 66.999 30s26 47.667 26 83
s-8.66699 63 -26 83s-39.666 30 -66.999 30s-49.666 -10 -66.999 -30s-26 -47.667 -26 -83zM371 572c-15.333 0 -28.833 2.49805 -40.5 7.49805s-22.5 10.5 -32.5 16.5s-19.833 11.5 -29.5 16.5s-20.167 7.5 -31.5 7.5s-20 -2.33301 -26 -7s-10.5 -10 -13.5 -16
s-4.83301 -11.5 -5.5 -16.5s-1 -7.83301 -1 -8.5h-101c0 8.66699 2.5 21.834 7.5 39.501s13.167 35.167 24.5 52.5s25.666 32.666 42.999 45.999s38.666 20 63.999 20c16 0 30 -2.66699 42 -8s23 -11.166 33 -17.499s19.667 -12.166 29 -17.499s19.666 -8 30.999 -8
c10.667 0 19.334 2.5 26.001 7.5s11.834 10.667 15.501 17s6 12.166 7 17.499s1.5 8.33301 1.5 9h100c0 -6 -2.66699 -17.5 -8 -34.5s-13.666 -34.667 -24.999 -53s-26 -34.666 -44 -48.999s-40 -21.5 -66 -21.5z" />
    <glyph glyph-name="odieresis" unicode="&#xf6;" horiz-adv-x="614" 
d="M307 -10c-47.333 0 -88.833 7.5 -124.5 22.5s-65.667 35 -90 60s-42.666 54 -54.999 87s-18.5 67.5 -18.5 103.5s6.16699 70.5 18.5 103.5s30.666 62 54.999 87s54.333 45 90 60s77.167 22.5 124.5 22.5c46.667 0 88 -7.5 124 -22.5s66.167 -35 90.5 -60
s42.666 -54 54.999 -87s18.5 -67.5 18.5 -103.5s-6.16699 -70.5 -18.5 -103.5s-30.666 -62 -54.999 -87s-54.5 -45 -90.5 -60s-77.333 -22.5 -124 -22.5zM214 263c0 -35.333 8.66699 -63 26 -83s39.666 -30 66.999 -30s49.666 10 66.999 30s26 47.667 26 83
s-8.66699 63 -26 83s-39.666 30 -66.999 30s-49.666 -10 -66.999 -30s-26 -47.667 -26 -83zM114 581v140h156v-140h-156zM344 581v140h156v-140h-156z" />
    <glyph glyph-name="divide" unicode="&#xf7;" horiz-adv-x="485" 
d="M164 435v160h159v-160h-159zM164 27v160h159v-160h-159zM41 235v150h404v-150h-404z" />
    <glyph glyph-name="oslash" unicode="&#xf8;" horiz-adv-x="614" 
d="M14 -6l74 82.999c-23.333 25.333 -40.666 53.833 -51.999 85.5s-17 65.167 -17 100.5c0 36 6.16699 70.5 18.5 103.5s30.666 62 54.999 87s54.333 45 90 60s77.167 22.5 124.5 22.5c30.667 0 58.667 -3.16699 84 -9.5s48.666 -15.166 69.999 -26.499l29 32h101l-70 -78
c24.667 -25.333 43.167 -54.5 55.5 -87.5s18.5 -67.5 18.5 -103.5s-6.16699 -70.5 -18.5 -103.5s-30.666 -62 -54.999 -87s-54.5 -45 -90.5 -60s-77.333 -22.5 -124 -22.5c-32 0 -61.5 3.5 -88.5 10.5s-51.167 16.833 -72.5 29.5l-32 -36h-100zM307 149.999
c27.333 0 49.667 9.99902 67 29.999s26 47.667 26 83c0 18.667 -2.66699 35.334 -8 50.001l-133 -150c13.333 -8.66699 29.333 -13 48 -13zM214.001 262.998c0 -8 0.499023 -15.5 1.49902 -22.5s2.16699 -13.833 3.5 -20.5l130 146c-14.667 6.66699 -28.667 10 -42 10
c-27.333 0 -49.666 -10 -66.999 -30s-26 -47.667 -26 -83z" />
    <glyph glyph-name="ugrave" unicode="&#xf9;" horiz-adv-x="638" 
d="M207 -10c-53.333 0 -93.9971 16.166 -121.997 48.499s-42 79.5 -42 141.5v346h190v-303c0 -23.333 5.16699 -41.333 15.5 -54s24.5 -19 42.5 -19c14.667 0 29.667 3.33301 45 10s30.666 21.334 45.999 44.001v322h190v-316c0 -18 2.66699 -30.5 8 -37.5
s14.666 -11.167 27.999 -12.5v-160c-32.667 -6.66699 -59.334 -10 -80.001 -10c-64.667 0 -102 24.333 -112 73l-4 19c-24.667 -32.667 -54 -56.167 -88 -70.5s-73 -21.5 -117 -21.5zM151.003 730.999h169l50 -142l-120 -32z" />
    <glyph glyph-name="uacute" unicode="&#xfa;" horiz-adv-x="638" 
d="M207 -10c-53.333 0 -93.9971 16.166 -121.997 48.499s-42 79.5 -42 141.5v346h190v-303c0 -23.333 5.16699 -41.333 15.5 -54s24.5 -19 42.5 -19c14.667 0 29.667 3.33301 45 10s30.666 21.334 45.999 44.001v322h190v-316c0 -18 2.66699 -30.5 8 -37.5
s14.666 -11.167 27.999 -12.5v-160c-32.667 -6.66699 -59.334 -10 -80.001 -10c-64.667 0 -102 24.333 -112 73l-4 19c-24.667 -32.667 -54 -56.167 -88 -70.5s-73 -21.5 -117 -21.5zM366.003 555.999l-120 32l50 142h169z" />
    <glyph glyph-name="ucircumflex" unicode="&#xfb;" horiz-adv-x="638" 
d="M207 -10c-53.333 0 -93.9971 16.166 -121.997 48.499s-42 79.5 -42 141.5v346h190v-303c0 -23.333 5.16699 -41.333 15.5 -54s24.5 -19 42.5 -19c14.667 0 29.667 3.33301 45 10s30.666 21.334 45.999 44.001v322h190v-316c0 -18 2.66699 -30.5 8 -37.5
s14.666 -11.167 27.999 -12.5v-160c-32.667 -6.66699 -59.334 -10 -80.001 -10c-64.667 0 -102 24.333 -112 73l-4 19c-24.667 -32.667 -54 -56.167 -88 -70.5s-73 -21.5 -117 -21.5zM127.003 614.999l113 115h136l113 -115l-96 -42l-85 63l-85 -63z" />
    <glyph glyph-name="udieresis" unicode="&#xfc;" horiz-adv-x="638" 
d="M207 -10c-53.333 0 -93.9971 16.166 -121.997 48.499s-42 79.5 -42 141.5v346h190v-303c0 -23.333 5.16699 -41.333 15.5 -54s24.5 -19 42.5 -19c14.667 0 29.667 3.33301 45 10s30.666 21.334 45.999 44.001v322h190v-316c0 -18 2.66699 -30.5 8 -37.5
s14.666 -11.167 27.999 -12.5v-160c-32.667 -6.66699 -59.334 -10 -80.001 -10c-64.667 0 -102 24.333 -112 73l-4 19c-24.667 -32.667 -54 -56.167 -88 -70.5s-73 -21.5 -117 -21.5zM115.003 580.999v140h156v-140h-156zM345.003 580.999v140h156v-140h-156z" />
    <glyph glyph-name="yacute" unicode="&#xfd;" horiz-adv-x="555" 
d="M44 -53c30.667 -11.333 56.668 -17 78.001 -17c40.667 0 63 23.333 67 70l-191 526h195l100 -365l81 365h177l-178 -589c-8 -26 -19.333 -49.5 -34 -70.5s-32.167 -39 -52.5 -54s-42.833 -26.5 -67.5 -34.5s-50.334 -12 -77.001 -12c-34 0 -66.667 6.33301 -98 19v162z
M351.001 556l-120 32l50 142h169z" />
    <glyph glyph-name="thorn" unicode="&#xfe;" horiz-adv-x="599" 
d="M581 255c0 -38 -7.33301 -74.334 -22 -109.001s-34.167 -65.167 -58.5 -91.5s-52.833 -47.166 -85.5 -62.499s-67 -23 -103 -23c-15.333 0 -29.5 1.66699 -42.5 5s-21.833 7.66602 -26.5 12.999v-200h-195v923h195v-185c7.33301 6 17.5 10.667 30.5 14s28.167 5 45.5 5
c35.333 0 68.833 -7.66699 100.5 -23s59.5 -36.166 83.5 -62.499s43 -57 57 -92s21 -72.167 21 -111.5zM386 258.999c0 35.333 -7.16602 63.334 -21.499 84.001s-33.5 31 -57.5 31c-13.333 0 -25 -3.5 -35 -10.5s-19.667 -19.167 -29 -36.5v-148
c0 -4.66699 1.83301 -9.33398 5.5 -14.001s8.5 -9 14.5 -13s12.667 -7.16699 20 -9.5s14.666 -3.5 21.999 -3.5c24 0 43.5 11 58.5 33s22.5 51 22.5 87z" />
    <glyph glyph-name="ydieresis" unicode="&#xff;" horiz-adv-x="555" 
d="M44 -53c30.667 -11.333 56.668 -17 78.001 -17c40.667 0 63 23.333 67 70l-191 526h195l100 -365l81 365h177l-178 -589c-8 -26 -19.333 -49.5 -34 -70.5s-32.167 -39 -52.5 -54s-42.833 -26.5 -67.5 -34.5s-50.334 -12 -77.001 -12c-34 0 -66.667 6.33301 -98 19v162z
M100.001 581v140h156v-140h-156zM330.001 581v140h156v-140h-156z" />
    <glyph glyph-name="Amacron" unicode="&#x100;" horiz-adv-x="667" 
d="M245 710h178l246 -710h-198l-43 139h-189l-42 -139h-199zM397 269l-63 220l-66 -220h129zM180 791v113h310v-113h-310z" />
    <glyph glyph-name="amacron" unicode="&#x101;" horiz-adv-x="599" 
d="M203 -10c-26 0 -50.3311 4.33398 -72.998 13.001s-42.167 20.5 -58.5 35.5s-29.166 32.833 -38.499 53.5s-14 43 -14 67c0 26.667 5.66699 51 17 73s27 41 47 57s43.833 28.333 71.5 37s58.167 13 91.5 13c42.667 0 78 -6.66699 106 -20v16
c0 24.667 -7.16699 43 -21.5 55s-37.5 18 -69.5 18c-30 0 -57.667 -4.83301 -83 -14.5s-52 -23.834 -80 -42.501l-55 118c69.333 44.667 148.333 67 237 67c84 0 148.667 -18.667 194 -56s68 -93.333 68 -168v-102c0 -18 2.66699 -30.5 8 -37.5s14.666 -11.167 27.999 -12.5
v-160c-15.333 -3.33301 -29.833 -5.83301 -43.5 -7.5s-25.834 -2.5 -36.501 -2.5c-34 0 -59.833 6.16699 -77.5 18.5s-29.167 30.5 -34.5 54.5l-4 19c-23.333 -30 -50.333 -52.833 -81 -68.5s-63.334 -23.5 -98.001 -23.5zM260.002 126.001
c11.333 0 22.998 1.83301 34.998 5.5s22.667 8.5 32 14.5c7.33301 5.33301 13.333 11.166 18 17.499s7 12.833 7 19.5v39c-11.333 4 -23.666 7.33301 -36.999 10s-25.333 4 -36 4c-23.333 0 -42.666 -5.66699 -57.999 -17s-23 -25.666 -23 -42.999
c0 -14.667 5.83301 -26.667 17.5 -36s26.5 -14 44.5 -14zM126 607.001v113h310v-113h-310z" />
    <glyph glyph-name="Abreve" unicode="&#x102;" horiz-adv-x="667" 
d="M245 710h178l246 -710h-198l-43 139h-189l-42 -139h-199zM397 269l-63 220l-66 -220h129zM334 833c15.333 0 28.833 7.66797 40.5 23.001s18.5 34.666 20.5 57.999h98c0 -24 -3.83301 -45.833 -11.5 -65.5s-18.5 -36.667 -32.5 -51s-30.833 -25.5 -50.5 -33.5
s-41.167 -12 -64.5 -12s-44.833 4 -64.5 12s-36.5 19.167 -50.5 33.5s-24.833 31.333 -32.5 51s-11.5 41.5 -11.5 65.5h98c0 -22 6 -41 18 -57s26.333 -24 43 -24z" />
    <glyph glyph-name="abreve" unicode="&#x103;" horiz-adv-x="599" 
d="M203 -10c-26 0 -50.3311 4.33398 -72.998 13.001s-42.167 20.5 -58.5 35.5s-29.166 32.833 -38.499 53.5s-14 43 -14 67c0 26.667 5.66699 51 17 73s27 41 47 57s43.833 28.333 71.5 37s58.167 13 91.5 13c42.667 0 78 -6.66699 106 -20v16
c0 24.667 -7.16699 43 -21.5 55s-37.5 18 -69.5 18c-30 0 -57.667 -4.83301 -83 -14.5s-52 -23.834 -80 -42.501l-55 118c69.333 44.667 148.333 67 237 67c84 0 148.667 -18.667 194 -56s68 -93.333 68 -168v-102c0 -18 2.66699 -30.5 8 -37.5s14.666 -11.167 27.999 -12.5
v-160c-15.333 -3.33301 -29.833 -5.83301 -43.5 -7.5s-25.834 -2.5 -36.501 -2.5c-34 0 -59.833 6.16699 -77.5 18.5s-29.167 30.5 -34.5 54.5l-4 19c-23.333 -30 -50.333 -52.833 -81 -68.5s-63.334 -23.5 -98.001 -23.5zM260.002 126.001
c11.333 0 22.998 1.83301 34.998 5.5s22.667 8.5 32 14.5c7.33301 5.33301 13.333 11.166 18 17.499s7 12.833 7 19.5v39c-11.333 4 -23.666 7.33301 -36.999 10s-25.333 4 -36 4c-23.333 0 -42.666 -5.66699 -57.999 -17s-23 -25.666 -23 -42.999
c0 -14.667 5.83301 -26.667 17.5 -36s26.5 -14 44.5 -14zM280 649.001c15.333 0 28.833 7.66797 40.5 23.001s18.5 34.666 20.5 57.999h98c0 -24 -3.83301 -45.833 -11.5 -65.5s-18.5 -36.667 -32.5 -51s-30.833 -25.5 -50.5 -33.5s-41.167 -12 -64.5 -12
s-44.833 4 -64.5 12s-36.5 19.167 -50.5 33.5s-24.833 31.333 -32.5 51s-11.5 41.5 -11.5 65.5h98c0 -22 6 -41 18 -57s26.333 -24 43 -24z" />
    <glyph glyph-name="Aogonek" unicode="&#x104;" horiz-adv-x="680" 
d="M632 -215c-52 6 -90.334 18.333 -115.001 37s-37 39.667 -37 63c0 19.333 7.16699 39 21.5 59s35.833 38.667 64.5 56h-95l-43 139h-189l-42 -139h-199l247 710h178l246 -710c-23.333 -13.333 -41.166 -26.833 -53.499 -40.5s-18.5 -26.167 -18.5 -37.5
s5.66699 -20.333 17 -27s29 -10 53 -10zM396.999 269l-63 220l-66 -220h129z" />
    <glyph glyph-name="aogonek" unicode="&#x105;" horiz-adv-x="600" 
d="M541 -215c-52 6 -90.333 18.333 -115 37s-37 39.667 -37 63c0 18 6.16699 36.333 18.5 55s30.833 36.334 55.5 53.001c-43.333 6.66699 -69 30 -77 70l-4 19c-23.333 -30 -50.333 -52.833 -81 -68.5s-63.334 -23.5 -98.001 -23.5c-26 0 -50.333 4.33301 -73 13
s-42.167 20.5 -58.5 35.5s-29.166 32.833 -38.499 53.5s-14 43 -14 67c0 26.667 5.66699 51 17 73s27 41 47 57s43.833 28.333 71.5 37s58.167 13 91.5 13c42.667 0 78 -6.66699 106 -20v16c0 24.667 -7.16699 43 -21.5 55s-37.5 18 -69.5 18
c-30 0 -57.667 -4.83301 -83 -14.5s-52 -23.834 -80 -42.501l-55 118c69.333 44.667 148.333 67 237 67c84 0 148.667 -18.667 194 -56s68 -93.333 68 -168v-102c0 -18 2.66699 -30.5 8 -37.5s14.666 -11.167 27.999 -12.5v-160
c-23.333 -13.333 -41.166 -26.833 -53.499 -40.5s-18.5 -26.167 -18.5 -37.5s5.66699 -20.333 17 -27s29 -10 53 -10zM260 126c11.333 0 22.998 1.83301 34.998 5.5s22.667 8.5 32 14.5c7.33301 5.33301 13.333 11.166 18 17.499s7 12.833 7 19.5v39
c-11.333 4 -23.666 7.33301 -36.999 10s-25.333 4 -36 4c-23.333 0 -42.666 -5.66699 -57.999 -17s-23 -25.666 -23 -42.999c0 -14.667 5.83301 -26.667 17.5 -36s26.5 -14 44.5 -14z" />
    <glyph glyph-name="Cacute" unicode="&#x106;" horiz-adv-x="691" 
d="M22 361c0 43.333 8.17188 86 24.5049 128s40.166 79.667 71.499 113s69.333 60.333 114 81s95.667 31 153 31c68.667 0 128.167 -14.167 178.5 -42.5s87.833 -65.833 112.5 -112.5l-149 -106c-6.66699 17.333 -15.5 31.666 -26.5 42.999s-23.167 20.333 -36.5 27
s-27.166 11.334 -41.499 14.001s-28.166 4 -41.499 4c-28 0 -52.167 -5.5 -72.5 -16.5s-37 -25.333 -50 -43s-22.667 -37.667 -29 -60s-9.5 -44.5 -9.5 -66.5c0 -24.667 3.66699 -48.334 11 -71.001s18 -42.667 32 -60s31.167 -31.166 51.5 -41.499
s43.166 -15.5 68.499 -15.5c13.333 0 27 1.5 41 4.5s27.5 8 40.5 15s24.667 16 35 27s18.5 24.5 24.5 40.5l159 -95c-10.667 -26 -26.834 -49.333 -48.501 -70s-46.334 -38 -74.001 -52s-57.334 -24.667 -89.001 -32s-62.5 -11 -92.5 -11
c-52.667 0 -100.834 10.5 -144.501 31.5s-81.334 48.833 -113.001 83.5s-56.167 74 -73.5 118s-26 88.667 -26 134zM448.005 740l-120 32l50 142h169z" />
    <glyph glyph-name="cacute" unicode="&#x107;" horiz-adv-x="577" 
d="M19 263c0 36 6.33301 70.5 19 103.5s31.167 62 55.5 87s54.5 45 90.5 60s77.333 22.5 124 22.5c64 0 117.5 -13.333 160.5 -40s75.167 -61 96.5 -103l-185 -56c-18 26 -42.333 39 -73 39c-26 0 -48 -9.83301 -66 -29.5s-27 -47.5 -27 -83.5s9 -63.833 27 -83.5
s40 -29.5 66 -29.5c30.667 0 55 13 73 39l185 -56c-21.333 -42 -53.5 -76.333 -96.5 -103s-96.5 -40 -160.5 -40c-46.667 0 -88 7.5 -124 22.5s-66.167 35 -90.5 60s-42.833 54 -55.5 87s-19 67.5 -19 103.5zM366 556l-120 32l50 142h169z" />
    <glyph glyph-name="Ccircumflex" unicode="&#x108;" horiz-adv-x="691" 
d="M22 361c0 43.333 8.17188 86 24.5049 128s40.166 79.667 71.499 113s69.333 60.333 114 81s95.667 31 153 31c68.667 0 128.167 -14.167 178.5 -42.5s87.833 -65.833 112.5 -112.5l-149 -106c-6.66699 17.333 -15.5 31.666 -26.5 42.999s-23.167 20.333 -36.5 27
s-27.166 11.334 -41.499 14.001s-28.166 4 -41.499 4c-28 0 -52.167 -5.5 -72.5 -16.5s-37 -25.333 -50 -43s-22.667 -37.667 -29 -60s-9.5 -44.5 -9.5 -66.5c0 -24.667 3.66699 -48.334 11 -71.001s18 -42.667 32 -60s31.167 -31.166 51.5 -41.499
s43.166 -15.5 68.499 -15.5c13.333 0 27 1.5 41 4.5s27.5 8 40.5 15s24.667 16 35 27s18.5 24.5 24.5 40.5l159 -95c-10.667 -26 -26.834 -49.333 -48.501 -70s-46.334 -38 -74.001 -52s-57.334 -24.667 -89.001 -32s-62.5 -11 -92.5 -11
c-52.667 0 -100.834 10.5 -144.501 31.5s-81.334 48.833 -113.001 83.5s-56.167 74 -73.5 118s-26 88.667 -26 134zM201.005 799l113 115h136l113 -115l-96 -42l-85 63l-85 -63z" />
    <glyph glyph-name="ccircumflex" unicode="&#x109;" horiz-adv-x="577" 
d="M19 263c0 36 6.33301 70.5 19 103.5s31.167 62 55.5 87s54.5 45 90.5 60s77.333 22.5 124 22.5c64 0 117.5 -13.333 160.5 -40s75.167 -61 96.5 -103l-185 -56c-18 26 -42.333 39 -73 39c-26 0 -48 -9.83301 -66 -29.5s-27 -47.5 -27 -83.5s9 -63.833 27 -83.5
s40 -29.5 66 -29.5c30.667 0 55 13 73 39l185 -56c-21.333 -42 -53.5 -76.333 -96.5 -103s-96.5 -40 -160.5 -40c-46.667 0 -88 7.5 -124 22.5s-66.167 35 -90.5 60s-42.833 54 -55.5 87s-19 67.5 -19 103.5zM127 615l113 115h136l113 -115l-96 -42l-85 63l-85 -63z" />
    <glyph glyph-name="Cdotaccent" unicode="&#x10a;" horiz-adv-x="691" 
d="M22 361c0 43.333 8.17188 86 24.5049 128s40.166 79.667 71.499 113s69.333 60.333 114 81s95.667 31 153 31c68.667 0 128.167 -14.167 178.5 -42.5s87.833 -65.833 112.5 -112.5l-149 -106c-6.66699 17.333 -15.5 31.666 -26.5 42.999s-23.167 20.333 -36.5 27
s-27.166 11.334 -41.499 14.001s-28.166 4 -41.499 4c-28 0 -52.167 -5.5 -72.5 -16.5s-37 -25.333 -50 -43s-22.667 -37.667 -29 -60s-9.5 -44.5 -9.5 -66.5c0 -24.667 3.66699 -48.334 11 -71.001s18 -42.667 32 -60s31.167 -31.166 51.5 -41.499
s43.166 -15.5 68.499 -15.5c13.333 0 27 1.5 41 4.5s27.5 8 40.5 15s24.667 16 35 27s18.5 24.5 24.5 40.5l159 -95c-10.667 -26 -26.834 -49.333 -48.501 -70s-46.334 -38 -74.001 -52s-57.334 -24.667 -89.001 -32s-62.5 -11 -92.5 -11
c-52.667 0 -100.834 10.5 -144.501 31.5s-81.334 48.833 -113.001 83.5s-56.167 74 -73.5 118s-26 88.667 -26 134zM305.005 764v150h170v-150h-170z" />
    <glyph glyph-name="cdotaccent" unicode="&#x10b;" horiz-adv-x="577" 
d="M19 263c0 36 6.33301 70.5 19 103.5s31.167 62 55.5 87s54.5 45 90.5 60s77.333 22.5 124 22.5c64 0 117.5 -13.333 160.5 -40s75.167 -61 96.5 -103l-185 -56c-18 26 -42.333 39 -73 39c-26 0 -48 -9.83301 -66 -29.5s-27 -47.5 -27 -83.5s9 -63.833 27 -83.5
s40 -29.5 66 -29.5c30.667 0 55 13 73 39l185 -56c-21.333 -42 -53.5 -76.333 -96.5 -103s-96.5 -40 -160.5 -40c-46.667 0 -88 7.5 -124 22.5s-66.167 35 -90.5 60s-42.833 54 -55.5 87s-19 67.5 -19 103.5zM223 580v150h170v-150h-170z" />
    <glyph glyph-name="Ccaron" unicode="&#x10c;" horiz-adv-x="691" 
d="M22 361c0 43.333 8.17188 86 24.5049 128s40.166 79.667 71.499 113s69.333 60.333 114 81s95.667 31 153 31c68.667 0 128.167 -14.167 178.5 -42.5s87.833 -65.833 112.5 -112.5l-149 -106c-6.66699 17.333 -15.5 31.666 -26.5 42.999s-23.167 20.333 -36.5 27
s-27.166 11.334 -41.499 14.001s-28.166 4 -41.499 4c-28 0 -52.167 -5.5 -72.5 -16.5s-37 -25.333 -50 -43s-22.667 -37.667 -29 -60s-9.5 -44.5 -9.5 -66.5c0 -24.667 3.66699 -48.334 11 -71.001s18 -42.667 32 -60s31.167 -31.166 51.5 -41.499
s43.166 -15.5 68.499 -15.5c13.333 0 27 1.5 41 4.5s27.5 8 40.5 15s24.667 16 35 27s18.5 24.5 24.5 40.5l159 -95c-10.667 -26 -26.834 -49.333 -48.501 -70s-46.334 -38 -74.001 -52s-57.334 -24.667 -89.001 -32s-62.5 -11 -92.5 -11
c-52.667 0 -100.834 10.5 -144.501 31.5s-81.334 48.833 -113.001 83.5s-56.167 74 -73.5 118s-26 88.667 -26 134zM310.005 914l85 -63l85 63l96 -42l-113 -115h-136l-113 115z" />
    <glyph glyph-name="ccaron" unicode="&#x10d;" horiz-adv-x="577" 
d="M19 263c0 36 6.33301 70.5 19 103.5s31.167 62 55.5 87s54.5 45 90.5 60s77.333 22.5 124 22.5c64 0 117.5 -13.333 160.5 -40s75.167 -61 96.5 -103l-185 -56c-18 26 -42.333 39 -73 39c-26 0 -48 -9.83301 -66 -29.5s-27 -47.5 -27 -83.5s9 -63.833 27 -83.5
s40 -29.5 66 -29.5c30.667 0 55 13 73 39l185 -56c-21.333 -42 -53.5 -76.333 -96.5 -103s-96.5 -40 -160.5 -40c-46.667 0 -88 7.5 -124 22.5s-66.167 35 -90.5 60s-42.833 54 -55.5 87s-19 67.5 -19 103.5zM223 730l85 -63l85 63l96 -42l-113 -115h-136l-113 115z" />
    <glyph glyph-name="Dcaron" unicode="&#x10e;" horiz-adv-x="716" 
d="M61 0l-0.000976562 710h273c58.667 0 110.334 -9.33301 155.001 -28s82 -44 112 -76s52.667 -69.5 68 -112.5s23 -88.833 23 -137.5c0 -54 -8.5 -102.833 -25.5 -146.5s-41.167 -81 -72.5 -112s-69 -55 -113 -72s-93 -25.5 -147 -25.5h-273zM493.999 356
c0 27.333 -3.66699 52.3311 -11 74.998s-17.833 42 -31.5 58s-30.5 28.5 -50.5 37.5s-42.333 13.5 -67 13.5h-78v-370h78c25.333 0 48 4.66699 68 14s36.833 22.333 50.5 39s24 36.334 31 59.001s10.5 47.334 10.5 74.001zM231.999 913.998l85 -63l85 63l96 -42l-113 -115
h-136l-113 115z" />
    <glyph glyph-name="dcaron" unicode="&#x10f;" horiz-adv-x="665" 
d="M268 -10c-36 0 -69.1621 6.66895 -99.4951 20.002s-56.5 32.166 -78.5 56.499s-39.167 53.333 -51.5 87s-18.5 70.5 -18.5 110.5c0 38.667 5.66699 74.667 17 108s27.166 62.166 47.499 86.499s44.5 43.333 72.5 57s59 20.5 93 20.5s65.167 -7.66699 93.5 -23
s50.166 -37 65.499 -65v282h190v-520c0 -18 2.66699 -30.5 8 -37.5s14.666 -11.167 27.999 -12.5v-160c-32.667 -6.66699 -59.334 -10 -80.001 -10c-64.667 0 -102 24.333 -112 73l-4 19c-18 -32 -42.333 -55.333 -73 -70s-63.334 -22 -98.001 -22zM320.005 150.002
c34.667 0 64.667 18.001 90 54.001v94c-9.33301 23.333 -23 42.166 -41 56.499s-37 21.5 -57 21.5c-14 0 -26.833 -3 -38.5 -9s-21.667 -14.333 -30 -25s-15 -23 -20 -37s-7.5 -29 -7.5 -45c0 -33.333 9.5 -60 28.5 -80s44.167 -30 75.5 -30zM739.005 556.003l-120 32
l50 142h169z" />
    <glyph glyph-name="Dcroat" unicode="&#x110;" horiz-adv-x="720" 
d="M65 0l-0.000976562 287h-37v140h37v283h273c58.667 0 110.334 -9.33301 155.001 -28s82 -44 112 -76s52.667 -69.5 68 -112.5s23 -88.833 23 -137.5c0 -54 -8.5 -102.833 -25.5 -146.5s-41.167 -81 -72.5 -112s-69 -55 -113 -72s-93 -25.5 -147 -25.5h-273zM497.999 356
c0 27.333 -3.66699 52.3311 -11 74.998s-17.833 42 -31.5 58s-30.5 28.5 -50.5 37.5s-42.333 13.5 -67 13.5h-78v-113h114v-140h-114v-117h78c25.333 0 48 4.66699 68 14s36.833 22.333 50.5 39s24 36.334 31 59.001s10.5 47.334 10.5 74.001z" />
    <glyph glyph-name="dcroat" unicode="&#x111;" horiz-adv-x="665" 
d="M268 -10c-36 0 -69.1621 6.66895 -99.4951 20.002s-56.5 32.166 -78.5 56.499s-39.167 53.333 -51.5 87s-18.5 70.5 -18.5 110.5c0 38.667 5.66699 74.667 17 108s27.166 62.166 47.499 86.499s44.5 43.333 72.5 57s59 20.5 93 20.5s65.167 -7.66699 93.5 -23
s50.166 -37 65.499 -65v131h-87v109h87v42h190v-42h58v-109h-58v-369c0 -18 2.66699 -30.5 8 -37.5s14.666 -11.167 27.999 -12.5v-160c-32.667 -6.66699 -59.334 -10 -80.001 -10c-64.667 0 -102 24.333 -112 73l-4 19c-18 -32 -42.333 -55.333 -73 -70
s-63.334 -22 -98.001 -22zM320.005 150.002c34.667 0 64.667 18.001 90 54.001v94c-9.33301 23.333 -23 42.166 -41 56.499s-37 21.5 -57 21.5c-14 0 -26.833 -3 -38.5 -9s-21.667 -14.333 -30 -25s-15 -23 -20 -37s-7.5 -29 -7.5 -45c0 -33.333 9.5 -60 28.5 -80
s44.167 -30 75.5 -30z" />
    <glyph glyph-name="Emacron" unicode="&#x112;" horiz-adv-x="597" 
d="M567 170v-170h-506v710h497v-170h-302v-100h258v-158h-258v-112h311zM162 791v113h310v-113h-310z" />
    <glyph glyph-name="emacron" unicode="&#x113;" 
d="M307 -10c-46 0 -86.999 7.16699 -122.999 21.5s-66.167 33.833 -90.5 58.5s-42.833 53 -55.5 85s-19 65.667 -19 101c0 38 6.16699 74 18.5 108s30.666 63.667 54.999 89s54.333 45.5 90 60.5s77.167 22.5 124.5 22.5c46.667 0 88 -7.5 124 -22.5s66.167 -35 90.5 -60
s42.666 -54 54.999 -87s18.5 -67.5 18.5 -103.5c0 -10 -0.5 -20.167 -1.5 -30.5s-2.16699 -19.5 -3.5 -27.5h-369c2 -28 12.333 -48.167 31 -60.5s39 -18.5 61 -18.5c20.667 0 40.167 4.66699 58.5 14s30.5 22.333 36.5 39l161 -46
c-21.333 -42 -54.166 -76.333 -98.499 -103s-98.833 -40 -163.5 -40zM391.001 319c-3.33301 25.333 -12.668 45.333 -28.001 60s-35 22 -59 22s-43.667 -7.33301 -59 -22s-24.666 -34.667 -27.999 -60h174zM152.999 607v113h310v-113h-310z" />
    <glyph glyph-name="Ebreve" unicode="&#x114;" horiz-adv-x="597" 
d="M567 170v-170h-506v710h497v-170h-302v-100h258v-158h-258v-112h311zM316 833c15.333 0 28.833 7.66797 40.5 23.001s18.5 34.666 20.5 57.999h98c0 -24 -3.83301 -45.833 -11.5 -65.5s-18.5 -36.667 -32.5 -51s-30.833 -25.5 -50.5 -33.5s-41.167 -12 -64.5 -12
s-44.833 4 -64.5 12s-36.5 19.167 -50.5 33.5s-24.833 31.333 -32.5 51s-11.5 41.5 -11.5 65.5h98c0 -22 6 -41 18 -57s26.333 -24 43 -24z" />
    <glyph glyph-name="ebreve" unicode="&#x115;" 
d="M307 -10c-46 0 -86.999 7.16699 -122.999 21.5s-66.167 33.833 -90.5 58.5s-42.833 53 -55.5 85s-19 65.667 -19 101c0 38 6.16699 74 18.5 108s30.666 63.667 54.999 89s54.333 45.5 90 60.5s77.167 22.5 124.5 22.5c46.667 0 88 -7.5 124 -22.5s66.167 -35 90.5 -60
s42.666 -54 54.999 -87s18.5 -67.5 18.5 -103.5c0 -10 -0.5 -20.167 -1.5 -30.5s-2.16699 -19.5 -3.5 -27.5h-369c2 -28 12.333 -48.167 31 -60.5s39 -18.5 61 -18.5c20.667 0 40.167 4.66699 58.5 14s30.5 22.333 36.5 39l161 -46
c-21.333 -42 -54.166 -76.333 -98.499 -103s-98.833 -40 -163.5 -40zM391.001 319c-3.33301 25.333 -12.668 45.333 -28.001 60s-35 22 -59 22s-43.667 -7.33301 -59 -22s-24.666 -34.667 -27.999 -60h174zM306.999 649c15.333 0 28.833 7.66797 40.5 23.001
s18.5 34.666 20.5 57.999h98c0 -24 -3.83301 -45.833 -11.5 -65.5s-18.5 -36.667 -32.5 -51s-30.833 -25.5 -50.5 -33.5s-41.167 -12 -64.5 -12s-44.833 4 -64.5 12s-36.5 19.167 -50.5 33.5s-24.833 31.333 -32.5 51s-11.5 41.5 -11.5 65.5h98c0 -22 6 -41 18 -57
s26.333 -24 43 -24z" />
    <glyph glyph-name="Edotaccent" unicode="&#x116;" horiz-adv-x="597" 
d="M567 170v-170h-506v710h497v-170h-302v-100h258v-158h-258v-112h311zM231 764v150h170v-150h-170z" />
    <glyph glyph-name="edotaccent" unicode="&#x117;" 
d="M307 -10c-46 0 -86.999 7.16699 -122.999 21.5s-66.167 33.833 -90.5 58.5s-42.833 53 -55.5 85s-19 65.667 -19 101c0 38 6.16699 74 18.5 108s30.666 63.667 54.999 89s54.333 45.5 90 60.5s77.167 22.5 124.5 22.5c46.667 0 88 -7.5 124 -22.5s66.167 -35 90.5 -60
s42.666 -54 54.999 -87s18.5 -67.5 18.5 -103.5c0 -10 -0.5 -20.167 -1.5 -30.5s-2.16699 -19.5 -3.5 -27.5h-369c2 -28 12.333 -48.167 31 -60.5s39 -18.5 61 -18.5c20.667 0 40.167 4.66699 58.5 14s30.5 22.333 36.5 39l161 -46
c-21.333 -42 -54.166 -76.333 -98.499 -103s-98.833 -40 -163.5 -40zM391.001 319c-3.33301 25.333 -12.668 45.333 -28.001 60s-35 22 -59 22s-43.667 -7.33301 -59 -22s-24.666 -34.667 -27.999 -60h174zM221.999 580v150h170v-150h-170z" />
    <glyph glyph-name="Eogonek" unicode="&#x118;" horiz-adv-x="598" 
d="M530 -215c-52 6 -90.334 18.333 -115.001 37s-37 39.667 -37 63c0 19.333 7.16699 39 21.5 59s35.833 38.667 64.5 56h-403v710h497v-170h-302v-100h258v-158h-258v-112h311v-170c-23.333 -13.333 -41.166 -26.833 -53.499 -40.5s-18.5 -26.167 -18.5 -37.5
s5.66699 -20.333 17 -27s29 -10 53 -10l-35 -100v0z" />
    <glyph glyph-name="eogonek" unicode="&#x119;" 
d="M364 -213c-52 6 -90.3311 18.334 -114.998 37.001s-37 39.667 -37 63c0 17.333 5.66699 35 17 53s28.666 35 51.999 51c-42 2.66699 -79.333 11.667 -112 27s-60.167 35 -82.5 59s-39.166 51.5 -50.499 82.5s-17 63.167 -17 96.5c0 38 6.16699 74 18.5 108
s30.666 63.667 54.999 89s54.333 45.5 90 60.5s77.167 22.5 124.5 22.5c46.667 0 88 -7.5 124 -22.5s66.167 -35 90.5 -60s42.666 -54 54.999 -87s18.5 -67.5 18.5 -103.5c0 -10 -0.5 -20.167 -1.5 -30.5s-2.16699 -19.5 -3.5 -27.5h-369c2 -28 12.333 -48.167 31 -60.5
s39 -18.5 61 -18.5c20.667 0 40.167 4.66699 58.5 14s30.5 22.333 36.5 39l161 -46c-16 -31.333 -38.167 -58.5 -66.5 -81.5s-62.5 -39.833 -102.5 -50.5c-47.333 -26.667 -71 -52.334 -71 -77.001c0 -11.333 5.66699 -20.333 17 -27s29 -10 53 -10zM391.002 319.001
c-3.33301 25.333 -12.668 45.333 -28.001 60s-35 22 -59 22s-43.667 -7.33301 -59 -22s-24.666 -34.667 -27.999 -60h174z" />
    <glyph glyph-name="Ecaron" unicode="&#x11a;" horiz-adv-x="597" 
d="M567 170v-170h-506v710h497v-170h-302v-100h258v-158h-258v-112h311zM231 914l85 -63l85 63l96 -42l-113 -115h-136l-113 115z" />
    <glyph glyph-name="ecaron" unicode="&#x11b;" 
d="M307 -10c-46 0 -86.999 7.16699 -122.999 21.5s-66.167 33.833 -90.5 58.5s-42.833 53 -55.5 85s-19 65.667 -19 101c0 38 6.16699 74 18.5 108s30.666 63.667 54.999 89s54.333 45.5 90 60.5s77.167 22.5 124.5 22.5c46.667 0 88 -7.5 124 -22.5s66.167 -35 90.5 -60
s42.666 -54 54.999 -87s18.5 -67.5 18.5 -103.5c0 -10 -0.5 -20.167 -1.5 -30.5s-2.16699 -19.5 -3.5 -27.5h-369c2 -28 12.333 -48.167 31 -60.5s39 -18.5 61 -18.5c20.667 0 40.167 4.66699 58.5 14s30.5 22.333 36.5 39l161 -46
c-21.333 -42 -54.166 -76.333 -98.499 -103s-98.833 -40 -163.5 -40zM391.001 319c-3.33301 25.333 -12.668 45.333 -28.001 60s-35 22 -59 22s-43.667 -7.33301 -59 -22s-24.666 -34.667 -27.999 -60h174zM221.999 730l85 -63l85 63l96 -42l-113 -115h-136l-113 115z" />
    <glyph glyph-name="Gcircumflex" unicode="&#x11c;" horiz-adv-x="739" 
d="M543 59c-50.667 -42.667 -109.001 -63.998 -175.001 -63.998c-46 0 -90 8.16699 -132 24.5s-78.667 40.166 -110 71.499s-56.333 69.666 -75 114.999s-28 97 -28 155c0 50 9.33301 96.5 28 139.5s44.334 80.333 77.001 112s71.167 56.667 115.5 75
s92.166 27.5 143.499 27.5c32 0 62.667 -3.5 92 -10.5s56.5 -17.333 81.5 -31s47.5 -30 67.5 -49s36.333 -40.5 49 -64.5l-145 -111c-14 28 -35 50.5 -63 67.5s-57.667 25.5 -89 25.5c-23.333 0 -44.666 -4.66699 -63.999 -14s-36 -22.333 -50 -39s-25 -36.5 -33 -59.5
s-12 -48.167 -12 -75.5c0 -28 4 -53.333 12 -76s19.167 -42.167 33.5 -58.5s31.5 -29 51.5 -38s42.333 -13.5 67 -13.5c56.667 0 106.667 23.333 150 70h-123v140h292v-378h-161v59zM207.999 799.002l113 115h136l113 -115l-96 -42l-85 63l-85 -63z" />
    <glyph glyph-name="gcircumflex" unicode="&#x11d;" horiz-adv-x="647" 
d="M250 0c-34 0 -65.1689 6.83105 -93.502 20.498s-52.5 32.334 -72.5 56.001s-35.5 51.5 -46.5 83.5s-16.5 66.667 -16.5 104c0 39.333 6 75.666 18 108.999s28.833 62 50.5 86s47.5 42.833 77.5 56.5s63 20.5 99 20.5c38 0 71.333 -7.5 100 -22.5
s51.334 -36.833 68.001 -65.5v78h165v-478c0 -41.333 -7.66699 -78.666 -23 -111.999s-37 -61.666 -65 -84.999s-61.667 -41.5 -101 -54.5s-83 -19.5 -131 -19.5c-56 0 -104.667 8.66699 -146 26s-78 42.333 -110 75l100 104c19.333 -18 42.5 -33.167 69.5 -45.5
s55.833 -18.5 86.5 -18.5c17.333 0 33.833 2.33301 49.5 7s29.5 12.167 41.5 22.5s21.5 23.833 28.5 40.5s10.5 36.667 10.5 60v34c-15.333 -28 -37.166 -48.667 -65.499 -62s-59.5 -20 -93.5 -20zM317.998 149.998c19.333 0 36.168 4.49805 50.501 13.498
s27.833 22.5 40.5 40.5v94c-9.33301 24 -23.166 43 -41.499 57s-37.5 21 -57.5 21c-13.333 0 -25.833 -3.16699 -37.5 -9.5s-21.834 -14.666 -30.501 -24.999s-15.334 -22.666 -20.001 -36.999s-7 -29.5 -7 -45.5c0 -32.667 9.66699 -59 29 -79s44 -30 74 -30zM172 614.996
l113 115h136l113 -115l-96 -42l-85 63l-85 -63z" />
    <glyph glyph-name="Gbreve" unicode="&#x11e;" horiz-adv-x="739" 
d="M543 59c-50.667 -42.667 -109.001 -63.998 -175.001 -63.998c-46 0 -90 8.16699 -132 24.5s-78.667 40.166 -110 71.499s-56.333 69.666 -75 114.999s-28 97 -28 155c0 50 9.33301 96.5 28 139.5s44.334 80.333 77.001 112s71.167 56.667 115.5 75
s92.166 27.5 143.499 27.5c32 0 62.667 -3.5 92 -10.5s56.5 -17.333 81.5 -31s47.5 -30 67.5 -49s36.333 -40.5 49 -64.5l-145 -111c-14 28 -35 50.5 -63 67.5s-57.667 25.5 -89 25.5c-23.333 0 -44.666 -4.66699 -63.999 -14s-36 -22.333 -50 -39s-25 -36.5 -33 -59.5
s-12 -48.167 -12 -75.5c0 -28 4 -53.333 12 -76s19.167 -42.167 33.5 -58.5s31.5 -29 51.5 -38s42.333 -13.5 67 -13.5c56.667 0 106.667 23.333 150 70h-123v140h292v-378h-161v59zM388.999 833.002c15.333 0 28.833 7.66797 40.5 23.001s18.5 34.666 20.5 57.999h98
c0 -24 -3.83301 -45.833 -11.5 -65.5s-18.5 -36.667 -32.5 -51s-30.833 -25.5 -50.5 -33.5s-41.167 -12 -64.5 -12s-44.833 4 -64.5 12s-36.5 19.167 -50.5 33.5s-24.833 31.333 -32.5 51s-11.5 41.5 -11.5 65.5h98c0 -22 6 -41 18 -57s26.333 -24 43 -24z" />
    <glyph glyph-name="gbreve" unicode="&#x11f;" horiz-adv-x="647" 
d="M250 0c-34 0 -65.1689 6.83105 -93.502 20.498s-52.5 32.334 -72.5 56.001s-35.5 51.5 -46.5 83.5s-16.5 66.667 -16.5 104c0 39.333 6 75.666 18 108.999s28.833 62 50.5 86s47.5 42.833 77.5 56.5s63 20.5 99 20.5c38 0 71.333 -7.5 100 -22.5
s51.334 -36.833 68.001 -65.5v78h165v-478c0 -41.333 -7.66699 -78.666 -23 -111.999s-37 -61.666 -65 -84.999s-61.667 -41.5 -101 -54.5s-83 -19.5 -131 -19.5c-56 0 -104.667 8.66699 -146 26s-78 42.333 -110 75l100 104c19.333 -18 42.5 -33.167 69.5 -45.5
s55.833 -18.5 86.5 -18.5c17.333 0 33.833 2.33301 49.5 7s29.5 12.167 41.5 22.5s21.5 23.833 28.5 40.5s10.5 36.667 10.5 60v34c-15.333 -28 -37.166 -48.667 -65.499 -62s-59.5 -20 -93.5 -20zM317.998 149.998c19.333 0 36.168 4.49805 50.501 13.498
s27.833 22.5 40.5 40.5v94c-9.33301 24 -23.166 43 -41.499 57s-37.5 21 -57.5 21c-13.333 0 -25.833 -3.16699 -37.5 -9.5s-21.834 -14.666 -30.501 -24.999s-15.334 -22.666 -20.001 -36.999s-7 -29.5 -7 -45.5c0 -32.667 9.66699 -59 29 -79s44 -30 74 -30zM353 648.996
c15.333 0 28.833 7.66797 40.5 23.001s18.5 34.666 20.5 57.999h98c0 -24 -3.83301 -45.833 -11.5 -65.5s-18.5 -36.667 -32.5 -51s-30.833 -25.5 -50.5 -33.5s-41.167 -12 -64.5 -12s-44.833 4 -64.5 12s-36.5 19.167 -50.5 33.5s-24.833 31.333 -32.5 51
s-11.5 41.5 -11.5 65.5h98c0 -22 6 -41 18 -57s26.333 -24 43 -24z" />
    <glyph glyph-name="Gdotaccent" unicode="&#x120;" horiz-adv-x="739" 
d="M543 59c-50.667 -42.667 -109.001 -63.998 -175.001 -63.998c-46 0 -90 8.16699 -132 24.5s-78.667 40.166 -110 71.499s-56.333 69.666 -75 114.999s-28 97 -28 155c0 50 9.33301 96.5 28 139.5s44.334 80.333 77.001 112s71.167 56.667 115.5 75
s92.166 27.5 143.499 27.5c32 0 62.667 -3.5 92 -10.5s56.5 -17.333 81.5 -31s47.5 -30 67.5 -49s36.333 -40.5 49 -64.5l-145 -111c-14 28 -35 50.5 -63 67.5s-57.667 25.5 -89 25.5c-23.333 0 -44.666 -4.66699 -63.999 -14s-36 -22.333 -50 -39s-25 -36.5 -33 -59.5
s-12 -48.167 -12 -75.5c0 -28 4 -53.333 12 -76s19.167 -42.167 33.5 -58.5s31.5 -29 51.5 -38s42.333 -13.5 67 -13.5c56.667 0 106.667 23.333 150 70h-123v140h292v-378h-161v59zM305.999 764.002v150h170v-150h-170z" />
    <glyph glyph-name="gdotaccent" unicode="&#x121;" horiz-adv-x="647" 
d="M250 0c-34 0 -65.1689 6.83105 -93.502 20.498s-52.5 32.334 -72.5 56.001s-35.5 51.5 -46.5 83.5s-16.5 66.667 -16.5 104c0 39.333 6 75.666 18 108.999s28.833 62 50.5 86s47.5 42.833 77.5 56.5s63 20.5 99 20.5c38 0 71.333 -7.5 100 -22.5
s51.334 -36.833 68.001 -65.5v78h165v-478c0 -41.333 -7.66699 -78.666 -23 -111.999s-37 -61.666 -65 -84.999s-61.667 -41.5 -101 -54.5s-83 -19.5 -131 -19.5c-56 0 -104.667 8.66699 -146 26s-78 42.333 -110 75l100 104c19.333 -18 42.5 -33.167 69.5 -45.5
s55.833 -18.5 86.5 -18.5c17.333 0 33.833 2.33301 49.5 7s29.5 12.167 41.5 22.5s21.5 23.833 28.5 40.5s10.5 36.667 10.5 60v34c-15.333 -28 -37.166 -48.667 -65.499 -62s-59.5 -20 -93.5 -20zM317.998 149.998c19.333 0 36.168 4.49805 50.501 13.498
s27.833 22.5 40.5 40.5v94c-9.33301 24 -23.166 43 -41.499 57s-37.5 21 -57.5 21c-13.333 0 -25.833 -3.16699 -37.5 -9.5s-21.834 -14.666 -30.501 -24.999s-15.334 -22.666 -20.001 -36.999s-7 -29.5 -7 -45.5c0 -32.667 9.66699 -59 29 -79s44 -30 74 -30zM268 579.996
v150h170v-150h-170z" />
    <glyph glyph-name="Gcommaaccent" unicode="&#x122;" horiz-adv-x="739" 
d="M543 59c-50.667 -42.667 -109.001 -63.998 -175.001 -63.998c-46 0 -90 8.16699 -132 24.5s-78.667 40.166 -110 71.499s-56.333 69.666 -75 114.999s-28 97 -28 155c0 50 9.33301 96.5 28 139.5s44.334 80.333 77.001 112s71.167 56.667 115.5 75
s92.166 27.5 143.499 27.5c32 0 62.667 -3.5 92 -10.5s56.5 -17.333 81.5 -31s47.5 -30 67.5 -49s36.333 -40.5 49 -64.5l-145 -111c-14 28 -35 50.5 -63 67.5s-57.667 25.5 -89 25.5c-23.333 0 -44.666 -4.66699 -63.999 -14s-36 -22.333 -50 -39s-25 -36.5 -33 -59.5
s-12 -48.167 -12 -75.5c0 -28 4 -53.333 12 -76s19.167 -42.167 33.5 -58.5s31.5 -29 51.5 -38s42.333 -13.5 67 -13.5c56.667 0 106.667 23.333 150 70h-123v140h292v-378h-161v59zM312.999 -212.998l36 61h-57v106h157v-106l-54 -61h-82z" />
    <glyph glyph-name="gcommaaccent" unicode="&#x123;" horiz-adv-x="647" 
d="M250 0c-34 0 -65.1689 6.83105 -93.502 20.498s-52.5 32.334 -72.5 56.001s-35.5 51.5 -46.5 83.5s-16.5 66.667 -16.5 104c0 39.333 6 75.666 18 108.999s28.833 62 50.5 86s47.5 42.833 77.5 56.5s63 20.5 99 20.5c38 0 71.333 -7.5 100 -22.5
s51.334 -36.833 68.001 -65.5v78h165v-478c0 -41.333 -7.66699 -78.666 -23 -111.999s-37 -61.666 -65 -84.999s-61.667 -41.5 -101 -54.5s-83 -19.5 -131 -19.5c-56 0 -104.667 8.66699 -146 26s-78 42.333 -110 75l100 104c19.333 -18 42.5 -33.167 69.5 -45.5
s55.833 -18.5 86.5 -18.5c17.333 0 33.833 2.33301 49.5 7s29.5 12.167 41.5 22.5s21.5 23.833 28.5 40.5s10.5 36.667 10.5 60v34c-15.333 -28 -37.166 -48.667 -65.499 -62s-59.5 -20 -93.5 -20zM317.998 149.998c19.333 0 36.168 4.49805 50.501 13.498
s27.833 22.5 40.5 40.5v94c-9.33301 24 -23.166 43 -41.499 57s-37.5 21 -57.5 21c-13.333 0 -25.833 -3.16699 -37.5 -9.5s-21.834 -14.666 -30.501 -24.999s-15.334 -22.666 -20.001 -36.999s-7 -29.5 -7 -45.5c0 -32.667 9.66699 -59 29 -79s44 -30 74 -30zM396 749.996
l-36 -61h57v-106h-157v106l54 61h82z" />
    <glyph glyph-name="Hcircumflex" unicode="&#x124;" horiz-adv-x="750" 
d="M689 710v-710h-195v278h-238v-278h-195v710h195v-262h238v262h195zM197 798l113 115h136l113 -115l-96 -42l-85 63l-85 -63z" />
    <glyph glyph-name="hcircumflex" unicode="&#x125;" horiz-adv-x="621" 
d="M577 0l-190.001 -0.00195312v296c0 26 -5.83301 44.833 -17.5 56.5s-26.167 17.5 -43.5 17.5c-6 0 -13.167 -1.83301 -21.5 -5.5s-16.666 -8.66699 -24.999 -15s-16.166 -14.166 -23.499 -23.499s-13.333 -19.666 -18 -30.999v-295h-190v730h190v-282
c18.667 28.667 43 50.5 73 65.5s63.667 22.5 101 22.5c36.667 0 66 -6.33301 88 -19s38.667 -28.5 50 -47.5s18.666 -39.5 21.999 -61.5s5 -42.667 5 -62v-346zM265.999 616.998l93 112h111l92 -112l-78 -40l-70 61l-69 -61z" />
    <glyph glyph-name="Hbar" unicode="&#x126;" horiz-adv-x="756" 
d="M692 710v-84h50v-88h-50v-538h-195v278h-238v-278h-195v538h-50v88h50v84h195v-84h238v84h195zM497 448v90h-238v-90h238z" />
    <glyph glyph-name="hbar" unicode="&#x127;" horiz-adv-x="621" 
d="M577 0l-190.001 -0.00195312v296c0 26 -5.83301 44.833 -17.5 56.5s-26.167 17.5 -43.5 17.5c-6 0 -13.167 -1.83301 -21.5 -5.5s-16.666 -8.66699 -24.999 -15s-16.166 -14.166 -23.499 -23.499s-13.333 -19.666 -18 -30.999v-295h-190v579h-30v109h30v42h190v-42h115
v-109h-115v-131c18.667 28.667 43 50.5 73 65.5s63.667 22.5 101 22.5c36.667 0 66 -6.33301 88 -19s38.667 -28.5 50 -47.5s18.666 -39.5 21.999 -61.5s5 -42.667 5 -62v-346z" />
    <glyph glyph-name="Itilde" unicode="&#x128;" horiz-adv-x="317" 
d="M61 0v710h195v-710h-195zM222 756c-15.333 0 -28.833 2.49805 -40.5 7.49805s-22.5 10.5 -32.5 16.5s-19.833 11.5 -29.5 16.5s-20.167 7.5 -31.5 7.5s-20 -2.33301 -26 -7s-10.5 -10 -13.5 -16s-4.83301 -11.5 -5.5 -16.5s-1 -7.83301 -1 -8.5h-101
c0 8.66699 2.5 21.834 7.5 39.501s13.167 35.167 24.5 52.5s25.666 32.666 42.999 45.999s38.666 20 63.999 20c16 0 30 -2.66699 42 -8s23 -11.166 33 -17.499s19.667 -12.166 29 -17.499s19.666 -8 30.999 -8c10.667 0 19.334 2.5 26.001 7.5s11.834 10.667 15.501 17
s6 12.166 7 17.499s1.5 8.33301 1.5 9h100c0 -6 -2.66699 -17.5 -8 -34.5s-13.666 -34.667 -24.999 -53s-26 -34.666 -44 -48.999s-40 -21.5 -66 -21.5z" />
    <glyph glyph-name="itilde" unicode="&#x129;" horiz-adv-x="286" 
d="M48 0v526h190v-526h-190zM207 572c-15.333 0 -28.833 2.49805 -40.5 7.49805s-22.5 10.5 -32.5 16.5s-19.833 11.5 -29.5 16.5s-20.167 7.5 -31.5 7.5s-20 -2.33301 -26 -7s-10.5 -10 -13.5 -16s-4.83301 -11.5 -5.5 -16.5s-1 -7.83301 -1 -8.5h-101
c0 8.66699 2.5 21.834 7.5 39.501s13.167 35.167 24.5 52.5s25.666 32.666 42.999 45.999s38.666 20 63.999 20c16 0 30 -2.66699 42 -8s23 -11.166 33 -17.499s19.667 -12.166 29 -17.499s19.666 -8 30.999 -8c10.667 0 19.334 2.5 26.001 7.5s11.834 10.667 15.501 17
s6 12.166 7 17.499s1.5 8.33301 1.5 9h100c0 -6 -2.66699 -17.5 -8 -34.5s-13.666 -34.667 -24.999 -53s-26 -34.666 -44 -48.999s-40 -21.5 -66 -21.5z" />
    <glyph glyph-name="Imacron" unicode="&#x12a;" horiz-adv-x="317" 
d="M61 0v710h195v-710h-195zM4 791v113h310v-113h-310z" />
    <glyph glyph-name="imacron" unicode="&#x12b;" horiz-adv-x="286" 
d="M48 0v526h190v-526h-190zM-11 607v113h310v-113h-310z" />
    <glyph glyph-name="Ibreve" unicode="&#x12c;" horiz-adv-x="317" 
d="M61 0v710h195v-710h-195zM158 833c15.333 0 28.833 7.66797 40.5 23.001s18.5 34.666 20.5 57.999h98c0 -24 -3.83301 -45.833 -11.5 -65.5s-18.5 -36.667 -32.5 -51s-30.833 -25.5 -50.5 -33.5s-41.167 -12 -64.5 -12s-44.833 4 -64.5 12s-36.5 19.167 -50.5 33.5
s-24.833 31.333 -32.5 51s-11.5 41.5 -11.5 65.5h98c0 -22 6 -41 18 -57s26.333 -24 43 -24z" />
    <glyph glyph-name="ibreve" unicode="&#x12d;" horiz-adv-x="286" 
d="M48 0v526h190v-526h-190zM143 649c15.333 0 28.833 7.66797 40.5 23.001s18.5 34.666 20.5 57.999h98c0 -24 -3.83301 -45.833 -11.5 -65.5s-18.5 -36.667 -32.5 -51s-30.833 -25.5 -50.5 -33.5s-41.167 -12 -64.5 -12s-44.833 4 -64.5 12s-36.5 19.167 -50.5 33.5
s-24.833 31.333 -32.5 51s-11.5 41.5 -11.5 65.5h98c0 -22 6 -41 18 -57s26.333 -24 43 -24z" />
    <glyph glyph-name="Iogonek" unicode="&#x12e;" horiz-adv-x="318" 
d="M219 -215c-52 6 -90.334 18.333 -115.001 37s-37 39.667 -37 63c0 19.333 7.16699 39 21.5 59s35.833 38.667 64.5 56h-92v710h195v-710c-23.333 -13.333 -41.166 -26.833 -53.499 -40.5s-18.5 -26.167 -18.5 -37.5s5.66699 -20.333 17 -27s29 -10 53 -10l-35 -100v0z
" />
    <glyph glyph-name="iogonek" unicode="&#x12f;" horiz-adv-x="286" 
d="M201 -215c-52 6 -90.334 18.333 -115.001 37s-37 39.667 -37 63c0 19.333 7.16699 39 21.5 59s35.833 38.667 64.5 56h-87v526h190v-526c-23.333 -13.333 -41.166 -26.833 -53.499 -40.5s-18.5 -26.167 -18.5 -37.5s5.66699 -20.333 17 -27s29 -10 53 -10zM47.999 570
v160h190v-160h-190z" />
    <glyph glyph-name="Idotaccent" unicode="&#x130;" horiz-adv-x="317" 
d="M61 0v710h195v-710h-195zM73 764v150h170v-150h-170z" />
    <glyph glyph-name="dotlessi" unicode="&#x131;" horiz-adv-x="286" 
d="M48 0v526h190v-526h-190z" />
    <glyph glyph-name="IJ" unicode="&#x132;" horiz-adv-x="815" 
d="M61 0v710h195v-710h-195zM359 192c2 -1.33301 6.33105 -3.66992 12.998 -7.00293s15 -6.66602 25 -9.99902s21.5 -6.33301 34.5 -9s26.5 -4 40.5 -4c20.667 0 37.334 3.33301 50.001 10s22.334 17.5 29.001 32.5s11 34.333 13 58s3 52.5 3 86.5v361h195v-361
c0 -54 -3 -103.167 -9 -147.5s-19 -82.166 -39 -113.499s-49.167 -55.666 -87.5 -72.999s-89.833 -26 -154.5 -26c-60 0 -111.333 14.667 -154 44z" />
    <glyph glyph-name="ij" unicode="&#x133;" horiz-adv-x="576" 
d="M48 0v526h190v-526h-190zM48 570v160h190v-160h-190zM322 -209c-28 0 -54.668 4.66895 -80.001 14.002s-48.333 22.666 -69 39.999l78 129c12 -13.333 27.667 -20 47 -20c26.667 0 40 14.333 40 43v529h190v-514c0 -32.667 -5 -62.5 -15 -89.5s-24.167 -50.333 -42.5 -70
s-40.166 -34.834 -65.499 -45.501s-53 -16 -83 -16zM337.999 570.002v160h190v-160h-190z" />
    <glyph glyph-name="Jcircumflex" unicode="&#x134;" horiz-adv-x="498" 
d="M42 192c2 -1.33301 6.33105 -3.66992 12.998 -7.00293s15 -6.66602 25 -9.99902s21.5 -6.33301 34.5 -9s26.5 -4 40.5 -4c20.667 0 37.334 3.33301 50.001 10s22.334 17.5 29.001 32.5s11 34.333 13 58s3 52.5 3 86.5v361h195v-361c0 -54 -3 -103.167 -9 -147.5
s-19 -82.166 -39 -113.499s-49.167 -55.666 -87.5 -72.999s-89.833 -26 -154.5 -26c-60 0 -111.333 14.667 -154 44zM168.998 798.996l113 115h136l113 -115l-96 -42l-85 63l-85 -63z" />
    <glyph glyph-name="jcircumflex" unicode="&#x135;" horiz-adv-x="286" 
d="M32 -209c-28 0 -54.668 4.66895 -80.001 14.002s-48.333 22.666 -69 39.999l78 129c12 -13.333 27.667 -20 47 -20c26.667 0 40 14.333 40 43v529h190v-514c0 -32.667 -5 -62.5 -15 -89.5s-24.167 -50.333 -42.5 -70s-40.166 -34.834 -65.499 -45.501s-53 -16 -83 -16z
M-38.001 615.002l113 115h136l113 -115l-96 -42l-85 63l-85 -63z" />
    <glyph glyph-name="Kcommaaccent" unicode="&#x136;" horiz-adv-x="690" 
d="M61 0v710h195v-270l216 270h220l-258 -318l276 -392h-224l-176 261l-54 -56v-205h-195zM309 -213l36 61h-57v106h157v-106l-54 -61h-82z" />
    <glyph glyph-name="kcommaaccent" unicode="&#x137;" horiz-adv-x="582" 
d="M395 0l-119 192l-38 -42v-150h-190v730h190v-399l140 195h200l-181 -230l199 -296h-201zM239 -213l36 61h-57v106h157v-106l-54 -61h-82z" />
    <glyph glyph-name="kgreenlandic" unicode="&#x138;" horiz-adv-x="582" 
d="M395 0l-119 192l-38 -42v-150h-190v526h190v-195l140 195h200l-181 -230l199 -296h-201z" />
    <glyph glyph-name="Lacute" unicode="&#x139;" horiz-adv-x="585" 
d="M61 0v710h195v-540h322v-170h-517zM429 740l-120 32l50 142h169z" />
    <glyph glyph-name="lacute" unicode="&#x13a;" horiz-adv-x="355" 
d="M44 730l189.999 -0.000976562v-521c0 -40 16.333 -60 49 -60c8 0 16.667 1.33301 26 4s18 6.33398 26 11.001l24 -140c-22.667 -10.667 -48.167 -19 -76.5 -25s-55.166 -9 -80.499 -9c-50.667 0 -89.667 13 -117 39s-41 63.667 -41 113v588zM196.999 757.999l-120 32
l50 142h169z" />
    <glyph glyph-name="Lcommaaccent" unicode="&#x13b;" horiz-adv-x="585" 
d="M61 0v710h195v-540h322v-170h-517zM276 -213l36 61h-57v106h157v-106l-54 -61h-82z" />
    <glyph glyph-name="lcommaaccent" unicode="&#x13c;" horiz-adv-x="355" 
d="M44 730l189.999 -0.000976562v-521c0 -40 16.333 -60 49 -60c8 0 16.667 1.33301 26 4s18 6.33398 26 11.001l24 -140c-22.667 -10.667 -48.167 -19 -76.5 -25s-55.166 -9 -80.499 -9c-50.667 0 -89.667 13 -117 39s-41 63.667 -41 113v588zM140.999 -213.001l36 61h-57
v106h157v-106l-54 -61h-82z" />
    <glyph glyph-name="Lcaron" unicode="&#x13d;" horiz-adv-x="585" 
d="M61 0v710h195v-540h322v-170h-517zM439 555l-120 32l50 142h169z" />
    <glyph glyph-name="lcaron" unicode="&#x13e;" horiz-adv-x="355" 
d="M44 730l189.999 -0.000976562v-521c0 -40 16.333 -60 49 -60c8 0 16.667 1.33301 26 4s18 6.33398 26 11.001l24 -140c-22.667 -10.667 -48.167 -19 -76.5 -25s-55.166 -9 -80.499 -9c-50.667 0 -89.667 13 -117 39s-41 63.667 -41 113v588zM388.999 554.999l-120 32
l50 142h169z" />
    <glyph glyph-name="Ldot" unicode="&#x13f;" horiz-adv-x="585" 
d="M61 0v710h195v-540h322v-170h-517zM364 317v184h154v-184h-154z" />
    <glyph glyph-name="ldot" unicode="&#x140;" horiz-adv-x="467" 
d="M44 730l189.999 -0.000976562v-521c0 -40 16.333 -60 49 -60c8 0 16.667 1.33301 26 4s18 6.33398 26 11.001l24 -140c-22.667 -10.667 -48.167 -19 -76.5 -25s-55.166 -9 -80.499 -9c-50.667 0 -89.667 13 -117 39s-41 63.667 -41 113v588zM294.999 298.999v184h154
v-184h-154z" />
    <glyph glyph-name="Lslash" unicode="&#x141;" horiz-adv-x="597" 
d="M73 0v275l-47 -23l-43 101l90 44v313h195v-218l71 35l43 -101l-114 -56v-200h322v-170h-517z" />
    <glyph glyph-name="lslash" unicode="&#x142;" horiz-adv-x="387" 
d="M72 271l-40.001 -19.001l-43 101l83 40v337h190v-244l83 41l43 -101l-126 -62v-155c0 -40 16.333 -60 49 -60c8 0 16.667 1.33301 26 4s18 6.33398 26 11.001l24 -140c-22.667 -10.667 -48.167 -19 -76.5 -25s-55.166 -9 -80.499 -9c-50.667 0 -89.667 13 -117 39
s-41 63.667 -41 113v129z" />
    <glyph glyph-name="Nacute" unicode="&#x143;" horiz-adv-x="754" 
d="M256 349v-349h-195v710h152l285 -361v361h195v-710h-155zM432 739l-120 32l50 142h169z" />
    <glyph glyph-name="nacute" unicode="&#x144;" horiz-adv-x="621" 
d="M577 0h-190.001v296c0 26 -5.83301 44.833 -17.5 56.5s-25.167 17.5 -40.5 17.5c-16 0 -33 -7 -51 -21s-31.333 -32 -40 -54v-295h-190v526h171v-78c18.667 28.667 44.834 50.5 78.501 65.5s73.5 22.5 119.5 22.5c36 0 64.5 -6.5 85.5 -19.5s37 -29.167 48 -48.5
s18.167 -40 21.5 -62s5 -42 5 -60v-346zM390.999 556l-120 32l50 142h169z" />
    <glyph glyph-name="Ncommaaccent" unicode="&#x145;" horiz-adv-x="754" 
d="M256 349v-349h-195v710h152l285 -361v361h195v-710h-155zM313 -213l36 61h-57v106h157v-106l-54 -61h-82z" />
    <glyph glyph-name="ncommaaccent" unicode="&#x146;" horiz-adv-x="621" 
d="M577 0h-190.001v296c0 26 -5.83301 44.833 -17.5 56.5s-25.167 17.5 -40.5 17.5c-16 0 -33 -7 -51 -21s-31.333 -32 -40 -54v-295h-190v526h171v-78c18.667 28.667 44.834 50.5 78.501 65.5s73.5 22.5 119.5 22.5c36 0 64.5 -6.5 85.5 -19.5s37 -29.167 48 -48.5
s18.167 -40 21.5 -62s5 -42 5 -60v-346zM249.999 -213l36 61h-57v106h157v-106l-54 -61h-82z" />
    <glyph glyph-name="Ncaron" unicode="&#x147;" horiz-adv-x="754" 
d="M256 349v-349h-195v710h152l285 -361v361h195v-710h-155zM289 913l85 -63l85 63l96 -42l-113 -115h-136l-113 115z" />
    <glyph glyph-name="ncaron" unicode="&#x148;" horiz-adv-x="621" 
d="M577 0h-190.001v296c0 26 -5.83301 44.833 -17.5 56.5s-25.167 17.5 -40.5 17.5c-16 0 -33 -7 -51 -21s-31.333 -32 -40 -54v-295h-190v526h171v-78c18.667 28.667 44.834 50.5 78.501 65.5s73.5 22.5 119.5 22.5c36 0 64.5 -6.5 85.5 -19.5s37 -29.167 48 -48.5
s18.167 -40 21.5 -62s5 -42 5 -60v-346zM247.999 730l85 -63l85 63l96 -42l-113 -115h-136l-113 115z" />
    <glyph glyph-name="napostrophe" unicode="&#x149;" horiz-adv-x="621" 
d="M577 0h-190.001v296c0 26 -5.83301 44.833 -17.5 56.5s-25.167 17.5 -40.5 17.5c-16 0 -33 -7 -51 -21s-31.333 -32 -40 -54v-295h-190v526h171v-78c18.667 28.667 44.834 50.5 78.501 65.5s73.5 22.5 119.5 22.5c36 0 64.5 -6.5 85.5 -19.5s37 -29.167 48 -48.5
s18.167 -40 21.5 -62s5 -42 5 -60v-346zM78.999 556l-120 32l31 87l-11 55h199z" />
    <glyph glyph-name="Eng" unicode="&#x14a;" horiz-adv-x="735" 
d="M256 343v-342.999h-195v710h150l267 -351v350h195v-704c0 -32.667 -5.16699 -62.167 -15.5 -88.5s-24.833 -48.833 -43.5 -67.5s-40.5 -33 -65.5 -43s-52.167 -15 -81.5 -15c-28 0 -54.667 4.66699 -80 14s-48.333 22.666 -69 39.999l78 129
c12 -13.333 27.667 -20 47 -20c26.667 0 40 14.333 40 43v47z" />
    <glyph glyph-name="eng" unicode="&#x14b;" horiz-adv-x="620" 
d="M370 -209c-28 0 -54.6689 4.66895 -80.002 14.002s-48.333 22.666 -69 39.999l78 129c12 -13.333 27.667 -20 47 -20c12.667 0 22.667 3.83301 30 11.5s11 18.167 11 31.5v299c0 26 -5.83301 44.833 -17.5 56.5s-25.167 17.5 -40.5 17.5c-16 0 -33 -7 -51 -21
s-31.333 -32 -40 -54v-295h-190v526h171v-78c18.667 28.667 44.834 50.5 78.501 65.5s73.5 22.5 119.5 22.5c36 0 64.5 -6.5 85.5 -19.5s37 -29.167 48 -48.5s18 -40 21 -62s4.5 -42 4.5 -60v-334c0 -32.667 -5.16699 -62.5 -15.5 -89.5s-24.666 -50.333 -42.999 -70
s-40 -34.834 -65 -45.501s-52.5 -16 -82.5 -16z" />
    <glyph glyph-name="Omacron" unicode="&#x14c;" horiz-adv-x="765" 
d="M381 -6c-54 0 -103 10.3311 -147 30.998s-81.667 47.834 -113 81.501s-55.666 72.167 -72.999 115.5s-26 88 -26 134c0 46.667 9 91.667 27 135s43.167 81.5 75.5 114.5s70.666 59.333 114.999 79s92.833 29.5 145.5 29.5c54 0 103 -10.333 147 -31s81.667 -48 113 -82
s55.5 -72.667 72.5 -116s25.5 -87.666 25.5 -132.999c0 -46.667 -9 -91.5 -27 -134.5s-43 -81 -75 -114s-70.167 -59.5 -114.5 -79.5s-92.833 -30 -145.5 -30zM220 353.998c0 -24 3.33203 -47.1689 9.99902 -69.502s16.667 -42.166 30 -59.499s30.166 -31.333 50.499 -42
s44.5 -16 72.5 -16s52.333 5.5 73 16.5s37.5 25.333 50.5 43s22.667 37.834 29 60.501s9.5 45.667 9.5 69c0 24 -3.33301 47.167 -10 69.5s-16.834 42 -30.501 59s-30.667 30.667 -51 41s-44.166 15.5 -71.499 15.5c-28 0 -52.167 -5.33301 -72.5 -16
s-37.166 -24.834 -50.499 -42.501s-23.166 -37.667 -29.499 -60s-9.5 -45.166 -9.5 -68.499zM231.999 790.996v113h310v-113h-310z" />
    <glyph glyph-name="omacron" unicode="&#x14d;" horiz-adv-x="614" 
d="M307 -10c-47.333 0 -88.833 7.5 -124.5 22.5s-65.667 35 -90 60s-42.666 54 -54.999 87s-18.5 67.5 -18.5 103.5s6.16699 70.5 18.5 103.5s30.666 62 54.999 87s54.333 45 90 60s77.167 22.5 124.5 22.5c46.667 0 88 -7.5 124 -22.5s66.167 -35 90.5 -60
s42.666 -54 54.999 -87s18.5 -67.5 18.5 -103.5s-6.16699 -70.5 -18.5 -103.5s-30.666 -62 -54.999 -87s-54.5 -45 -90.5 -60s-77.333 -22.5 -124 -22.5zM214 263c0 -35.333 8.66699 -63 26 -83s39.666 -30 66.999 -30s49.666 10 66.999 30s26 47.667 26 83
s-8.66699 63 -26 83s-39.666 30 -66.999 30s-49.666 -10 -66.999 -30s-26 -47.667 -26 -83zM153 607v113h310v-113h-310z" />
    <glyph glyph-name="Obreve" unicode="&#x14e;" horiz-adv-x="765" 
d="M381 -6c-54 0 -103 10.3311 -147 30.998s-81.667 47.834 -113 81.501s-55.666 72.167 -72.999 115.5s-26 88 -26 134c0 46.667 9 91.667 27 135s43.167 81.5 75.5 114.5s70.666 59.333 114.999 79s92.833 29.5 145.5 29.5c54 0 103 -10.333 147 -31s81.667 -48 113 -82
s55.5 -72.667 72.5 -116s25.5 -87.666 25.5 -132.999c0 -46.667 -9 -91.5 -27 -134.5s-43 -81 -75 -114s-70.167 -59.5 -114.5 -79.5s-92.833 -30 -145.5 -30zM220 353.998c0 -24 3.33203 -47.1689 9.99902 -69.502s16.667 -42.166 30 -59.499s30.166 -31.333 50.499 -42
s44.5 -16 72.5 -16s52.333 5.5 73 16.5s37.5 25.333 50.5 43s22.667 37.834 29 60.501s9.5 45.667 9.5 69c0 24 -3.33301 47.167 -10 69.5s-16.834 42 -30.501 59s-30.667 30.667 -51 41s-44.166 15.5 -71.499 15.5c-28 0 -52.167 -5.33301 -72.5 -16
s-37.166 -24.834 -50.499 -42.501s-23.166 -37.667 -29.499 -60s-9.5 -45.166 -9.5 -68.499zM387.999 832.996c15.333 0 28.833 7.66797 40.5 23.001s18.5 34.666 20.5 57.999h98c0 -24 -3.83301 -45.833 -11.5 -65.5s-18.5 -36.667 -32.5 -51s-30.833 -25.5 -50.5 -33.5
s-41.167 -12 -64.5 -12s-44.833 4 -64.5 12s-36.5 19.167 -50.5 33.5s-24.833 31.333 -32.5 51s-11.5 41.5 -11.5 65.5h98c0 -22 6 -41 18 -57s26.333 -24 43 -24z" />
    <glyph glyph-name="obreve" unicode="&#x14f;" horiz-adv-x="614" 
d="M307 -10c-47.333 0 -88.833 7.5 -124.5 22.5s-65.667 35 -90 60s-42.666 54 -54.999 87s-18.5 67.5 -18.5 103.5s6.16699 70.5 18.5 103.5s30.666 62 54.999 87s54.333 45 90 60s77.167 22.5 124.5 22.5c46.667 0 88 -7.5 124 -22.5s66.167 -35 90.5 -60
s42.666 -54 54.999 -87s18.5 -67.5 18.5 -103.5s-6.16699 -70.5 -18.5 -103.5s-30.666 -62 -54.999 -87s-54.5 -45 -90.5 -60s-77.333 -22.5 -124 -22.5zM214 263c0 -35.333 8.66699 -63 26 -83s39.666 -30 66.999 -30s49.666 10 66.999 30s26 47.667 26 83
s-8.66699 63 -26 83s-39.666 30 -66.999 30s-49.666 -10 -66.999 -30s-26 -47.667 -26 -83zM307 649c15.333 0 28.833 7.66797 40.5 23.001s18.5 34.666 20.5 57.999h98c0 -24 -3.83301 -45.833 -11.5 -65.5s-18.5 -36.667 -32.5 -51s-30.833 -25.5 -50.5 -33.5
s-41.167 -12 -64.5 -12s-44.833 4 -64.5 12s-36.5 19.167 -50.5 33.5s-24.833 31.333 -32.5 51s-11.5 41.5 -11.5 65.5h98c0 -22 6 -41 18 -57s26.333 -24 43 -24z" />
    <glyph glyph-name="Ohungarumlaut" unicode="&#x150;" horiz-adv-x="765" 
d="M381 -6c-54 0 -103 10.3311 -147 30.998s-81.667 47.834 -113 81.501s-55.666 72.167 -72.999 115.5s-26 88 -26 134c0 46.667 9 91.667 27 135s43.167 81.5 75.5 114.5s70.666 59.333 114.999 79s92.833 29.5 145.5 29.5c54 0 103 -10.333 147 -31s81.667 -48 113 -82
s55.5 -72.667 72.5 -116s25.5 -87.666 25.5 -132.999c0 -46.667 -9 -91.5 -27 -134.5s-43 -81 -75 -114s-70.167 -59.5 -114.5 -79.5s-92.833 -30 -145.5 -30zM220 353.998c0 -24 3.33203 -47.1689 9.99902 -69.502s16.667 -42.166 30 -59.499s30.166 -31.333 50.499 -42
s44.5 -16 72.5 -16s52.333 5.5 73 16.5s37.5 25.333 50.5 43s22.667 37.834 29 60.501s9.5 45.667 9.5 69c0 24 -3.33301 47.167 -10 69.5s-16.834 42 -30.501 59s-30.667 30.667 -51 41s-44.166 15.5 -71.499 15.5c-28 0 -52.167 -5.33301 -72.5 -16
s-37.166 -24.834 -50.499 -42.501s-23.166 -37.667 -29.499 -60s-9.5 -45.166 -9.5 -68.499zM324.999 740.996l-90 32l40 142h139zM514.999 740.996l-90 32l40 142h139z" />
    <glyph glyph-name="ohungarumlaut" unicode="&#x151;" horiz-adv-x="614" 
d="M307 -10c-47.333 0 -88.833 7.5 -124.5 22.5s-65.667 35 -90 60s-42.666 54 -54.999 87s-18.5 67.5 -18.5 103.5s6.16699 70.5 18.5 103.5s30.666 62 54.999 87s54.333 45 90 60s77.167 22.5 124.5 22.5c46.667 0 88 -7.5 124 -22.5s66.167 -35 90.5 -60
s42.666 -54 54.999 -87s18.5 -67.5 18.5 -103.5s-6.16699 -70.5 -18.5 -103.5s-30.666 -62 -54.999 -87s-54.5 -45 -90.5 -60s-77.333 -22.5 -124 -22.5zM214 263c0 -35.333 8.66699 -63 26 -83s39.666 -30 66.999 -30s49.666 10 66.999 30s26 47.667 26 83
s-8.66699 63 -26 83s-39.666 30 -66.999 30s-49.666 -10 -66.999 -30s-26 -47.667 -26 -83zM244 557l-90 32l40 142h139zM434 557l-90 32l40 142h139z" />
    <glyph glyph-name="OE" unicode="&#x152;" horiz-adv-x="1030" 
d="M1000 170l0.00195312 -169.999h-486v41c-22.667 -14 -46.834 -25.167 -72.501 -33.5s-52.5 -12.5 -80.5 -12.5c-50.667 0 -96.834 10.167 -138.501 30.5s-77.334 47.333 -107.001 81s-52.667 72.167 -69 115.5s-24.5 88 -24.5 134c0 46.667 8.5 91.667 25.5 135
s40.833 81.666 71.5 114.999s66.834 59.833 108.501 79.5s87.5 29.5 137.5 29.5c28 0 54.333 -4 79 -12s48 -19 70 -33v40h477v-170h-282v-94h228v-170h-228v-106h291zM363.002 168.001c24.667 0 46.0029 5.5 64.0029 16.5s32.667 25.333 44 43s19.833 37.667 25.5 60
s8.5 45.166 8.5 68.499c0 24 -3 47.167 -9 69.5s-14.833 42.166 -26.5 59.499s-26.5 31.166 -44.5 41.499s-39 15.5 -63 15.5c-24.667 0 -45.834 -5.5 -63.501 -16.5s-32.334 -25.333 -44.001 -43s-20.334 -37.667 -26.001 -60s-8.5 -45.166 -8.5 -68.499
c0 -24 2.83301 -47.167 8.5 -69.5s14.5 -42.166 26.5 -59.499s27 -31.166 45 -41.499s39 -15.5 63 -15.5z" />
    <glyph glyph-name="oe" unicode="&#x153;" horiz-adv-x="991" 
d="M305 -10c-42 0 -80.499 6.6709 -115.499 20.0039s-65.167 32.166 -90.5 56.499s-45 53.166 -59 86.499s-21 70 -21 110s7 76.667 21 110s33.5 62.166 58.5 86.499s55 43.166 90 56.499s73.167 20 114.5 20c40 0 75.5 -6.83301 106.5 -20.5s60.167 -35.5 87.5 -65.5
c31.333 30.667 62.166 52.667 92.499 66s64.833 20 103.5 20c41.333 0 79.5 -6.83301 114.5 -20.5s65 -32.5 90 -56.5s44.5 -52.667 58.5 -86s21 -70 21 -110c0 -10 -0.5 -20.167 -1.5 -30.5s-2.16699 -19.5 -3.5 -27.5h-369c1.33301 -24 11 -43.833 29 -59.5
s40 -23.5 66 -23.5c21.333 0 41.166 5.33301 59.499 16s30.833 24.334 37.5 41.001l156 -46c-23.333 -44.667 -57.833 -79.667 -103.5 -105s-97.5 -38 -155.5 -38c-18 0 -34.667 1.33301 -50 4s-30.666 7.16699 -45.999 13.5s-31 14.666 -47 24.999s-33.333 22.833 -52 37.5
c-18.667 -15.333 -35.834 -28 -51.501 -38s-31 -18.167 -46 -24.5s-30.167 -10.833 -45.5 -13.5s-31.666 -4 -48.999 -4zM307.001 150.004c28 0 50.5 10.333 67.5 31s25.5 48 25.5 82s-8.5 61.333 -25.5 82s-39.5 31 -67.5 31s-50.5 -10.333 -67.5 -31s-25.5 -48 -25.5 -82
s8.5 -61.333 25.5 -82s39.5 -31 67.5 -31zM777.001 319.004c-3.33301 25.333 -13 45.333 -29 60s-36.333 22 -61 22c-25.333 0 -46 -7.33301 -62 -22s-25.333 -34.667 -28 -60h180z" />
    <glyph glyph-name="Racute" unicode="&#x154;" horiz-adv-x="675" 
d="M61 0v710.001h326c34.667 0 66.667 -7.16699 96 -21.5s54.5 -33 75.5 -56s37.5 -49.333 49.5 -79s18 -59.5 18 -89.5c0 -41.333 -9 -79.833 -27 -115.5s-43 -64.834 -75 -87.501l150 -261h-220l-125 218h-73v-218h-195zM256 388.001h123c12 0 23.167 6.66699 33.5 20
s15.5 32 15.5 56c0 24.667 -6 43.5 -18 56.5s-24 19.5 -36 19.5h-118v-152zM377 739.001l-120 32l50 142h169z" />
    <glyph glyph-name="racute" unicode="&#x155;" horiz-adv-x="416" 
d="M405 364c-36.667 0 -70.001 -4 -100.001 -12s-52.333 -21.333 -67 -40v-312h-190v526h174v-100c18.667 35.333 41.834 62.5 69.501 81.5s57.5 28.5 89.5 28.5c12.667 0 20.667 -0.333008 24 -1v-171zM316.999 556l-120 32l50 142h169z" />
    <glyph glyph-name="Rcommaaccent" unicode="&#x156;" horiz-adv-x="675" 
d="M61 0v710.001h326c34.667 0 66.667 -7.16699 96 -21.5s54.5 -33 75.5 -56s37.5 -49.333 49.5 -79s18 -59.5 18 -89.5c0 -41.333 -9 -79.833 -27 -115.5s-43 -64.834 -75 -87.501l150 -261h-220l-125 218h-73v-218h-195zM256 388.001h123c12 0 23.167 6.66699 33.5 20
s15.5 32 15.5 56c0 24.667 -6 43.5 -18 56.5s-24 19.5 -36 19.5h-118v-152zM293 -212.999l36 61h-57v106h157v-106l-54 -61h-82z" />
    <glyph glyph-name="rcommaaccent" unicode="&#x157;" horiz-adv-x="416" 
d="M405 364c-36.667 0 -70.001 -4 -100.001 -12s-52.333 -21.333 -67 -40v-312h-190v526h174v-100c18.667 35.333 41.834 62.5 69.501 81.5s57.5 28.5 89.5 28.5c12.667 0 20.667 -0.333008 24 -1v-171zM74.999 -213l36 61h-57v106h157v-106l-54 -61h-82z" />
    <glyph glyph-name="Rcaron" unicode="&#x158;" horiz-adv-x="675" 
d="M61 0v710.001h326c34.667 0 66.667 -7.16699 96 -21.5s54.5 -33 75.5 -56s37.5 -49.333 49.5 -79s18 -59.5 18 -89.5c0 -41.333 -9 -79.833 -27 -115.5s-43 -64.834 -75 -87.501l150 -261h-220l-125 218h-73v-218h-195zM256 388.001h123c12 0 23.167 6.66699 33.5 20
s15.5 32 15.5 56c0 24.667 -6 43.5 -18 56.5s-24 19.5 -36 19.5h-118v-152zM234 913.001l85 -63l85 63l96 -42l-113 -115h-136l-113 115z" />
    <glyph glyph-name="rcaron" unicode="&#x159;" horiz-adv-x="416" 
d="M405 364c-36.667 0 -70.001 -4 -100.001 -12s-52.333 -21.333 -67 -40v-312h-190v526h174v-100c18.667 35.333 41.834 62.5 69.501 81.5s57.5 28.5 89.5 28.5c12.667 0 20.667 -0.333008 24 -1v-171zM173.999 730l85 -63l85 63l96 -42l-113 -115h-136l-113 115z" />
    <glyph glyph-name="Sacute" unicode="&#x15a;" horiz-adv-x="617" 
d="M491 478c-20 12 -40.665 22.668 -61.998 32.001c-18 8 -38.167 15.5 -60.5 22.5s-44.166 10.5 -65.499 10.5c-17.333 0 -31.166 -2.66699 -41.499 -8s-15.5 -14.333 -15.5 -27c0 -9.33301 3 -17 9 -23s14.667 -11.5 26 -16.5s25.166 -9.83301 41.499 -14.5
s34.833 -10.334 55.5 -17.001c32.667 -10 62.167 -21 88.5 -33s48.833 -26.167 67.5 -42.5s33 -36.166 43 -59.499s15 -51.666 15 -84.999c0 -42.667 -7.83301 -78.5 -23.5 -107.5s-36.334 -52.167 -62.001 -69.5s-54.667 -29.833 -87 -37.5s-64.833 -11.5 -97.5 -11.5
c-26 0 -52.667 2 -80 6s-54.5 9.66699 -81.5 17s-53 16 -78 26s-48.167 21.333 -69.5 34l84 171c23.333 -14.667 47.666 -27.667 72.999 -39c21.333 -10 45.5 -19 72.5 -27s54.5 -12 82.5 -12c21.333 0 36.166 2.83301 44.499 8.5s12.5 13.167 12.5 22.5
c0 10 -4.16699 18.5 -12.5 25.5s-19.833 13.167 -34.5 18.5s-31.5 10.666 -50.5 15.999s-39.167 11.666 -60.5 18.999c-31.333 10.667 -58.333 22.167 -81 34.5s-41.334 26.333 -56.001 42s-25.5 33.5 -32.5 53.5s-10.5 43 -10.5 69c0 39.333 7.16699 74 21.5 104
s33.833 55 58.5 75s52.834 35.167 84.501 45.5s65.167 15.5 100.5 15.5c26 0 51.333 -2.5 76 -7.5s48.5 -11.333 71.5 -19s44.5 -16 64.5 -25s38 -17.5 54 -25.5zM385.002 740.001l-120 32l50 142h169z" />
    <glyph glyph-name="sacute" unicode="&#x15b;" horiz-adv-x="501" 
d="M265 -10c-46 0 -90.999 7.49316 -134.999 22.4932s-81.333 36.833 -112 65.5l65 114c32.667 -22 64.167 -39 94.5 -51s58.166 -18 83.499 -18c26.667 0 40 8.33301 40 25c0 9.33301 -5.16699 17.333 -15.5 24s-30.5 14.334 -60.5 23.001
c-37.333 10.667 -68.5 21.167 -93.5 31.5s-45.333 21.5 -61 33.5s-26.834 25.333 -33.501 40s-10 32 -10 52c0 26.667 5.33301 51.334 16 74.001s25.5 42.334 44.5 59.001s41.667 29.5 68 38.5s55.166 13.5 86.499 13.5c38.667 0 75.5 -5 110.5 -15
s70.167 -30.333 105.5 -61l-72 -114c-32.667 21.333 -60 36.5 -82 45.5s-42.667 13.5 -62 13.5c-11.333 0 -20.666 -2.16699 -27.999 -6.5s-11 -11.166 -11 -20.499c0 -10 5.33301 -18.167 16 -24.5s31.667 -13.5 63 -21.5c38 -10 70 -20.5 96 -31.5s46.833 -23 62.5 -36
s26.834 -27.667 33.501 -44s10 -35.166 10 -56.499c0 -27.333 -5 -51.666 -15 -72.999s-24.5 -39.666 -43.5 -54.999s-42 -27 -69 -35s-57.5 -12 -91.5 -12zM300.001 555.993l-120 32l50 142h169z" />
    <glyph glyph-name="Scircumflex" unicode="&#x15c;" horiz-adv-x="617" 
d="M491 478c-20 12 -40.665 22.668 -61.998 32.001c-18 8 -38.167 15.5 -60.5 22.5s-44.166 10.5 -65.499 10.5c-17.333 0 -31.166 -2.66699 -41.499 -8s-15.5 -14.333 -15.5 -27c0 -9.33301 3 -17 9 -23s14.667 -11.5 26 -16.5s25.166 -9.83301 41.499 -14.5
s34.833 -10.334 55.5 -17.001c32.667 -10 62.167 -21 88.5 -33s48.833 -26.167 67.5 -42.5s33 -36.166 43 -59.499s15 -51.666 15 -84.999c0 -42.667 -7.83301 -78.5 -23.5 -107.5s-36.334 -52.167 -62.001 -69.5s-54.667 -29.833 -87 -37.5s-64.833 -11.5 -97.5 -11.5
c-26 0 -52.667 2 -80 6s-54.5 9.66699 -81.5 17s-53 16 -78 26s-48.167 21.333 -69.5 34l84 171c23.333 -14.667 47.666 -27.667 72.999 -39c21.333 -10 45.5 -19 72.5 -27s54.5 -12 82.5 -12c21.333 0 36.166 2.83301 44.499 8.5s12.5 13.167 12.5 22.5
c0 10 -4.16699 18.5 -12.5 25.5s-19.833 13.167 -34.5 18.5s-31.5 10.666 -50.5 15.999s-39.167 11.666 -60.5 18.999c-31.333 10.667 -58.333 22.167 -81 34.5s-41.334 26.333 -56.001 42s-25.5 33.5 -32.5 53.5s-10.5 43 -10.5 69c0 39.333 7.16699 74 21.5 104
s33.833 55 58.5 75s52.834 35.167 84.501 45.5s65.167 15.5 100.5 15.5c26 0 51.333 -2.5 76 -7.5s48.5 -11.333 71.5 -19s44.5 -16 64.5 -25s38 -17.5 54 -25.5zM146.002 799.001l113 115h136l113 -115l-96 -42l-85 63l-85 -63z" />
    <glyph glyph-name="scircumflex" unicode="&#x15d;" horiz-adv-x="501" 
d="M265 -10c-46 0 -90.999 7.49316 -134.999 22.4932s-81.333 36.833 -112 65.5l65 114c32.667 -22 64.167 -39 94.5 -51s58.166 -18 83.499 -18c26.667 0 40 8.33301 40 25c0 9.33301 -5.16699 17.333 -15.5 24s-30.5 14.334 -60.5 23.001
c-37.333 10.667 -68.5 21.167 -93.5 31.5s-45.333 21.5 -61 33.5s-26.834 25.333 -33.501 40s-10 32 -10 52c0 26.667 5.33301 51.334 16 74.001s25.5 42.334 44.5 59.001s41.667 29.5 68 38.5s55.166 13.5 86.499 13.5c38.667 0 75.5 -5 110.5 -15
s70.167 -30.333 105.5 -61l-72 -114c-32.667 21.333 -60 36.5 -82 45.5s-42.667 13.5 -62 13.5c-11.333 0 -20.666 -2.16699 -27.999 -6.5s-11 -11.166 -11 -20.499c0 -10 5.33301 -18.167 16 -24.5s31.667 -13.5 63 -21.5c38 -10 70 -20.5 96 -31.5s46.833 -23 62.5 -36
s26.834 -27.667 33.501 -44s10 -35.166 10 -56.499c0 -27.333 -5 -51.666 -15 -72.999s-24.5 -39.666 -43.5 -54.999s-42 -27 -69 -35s-57.5 -12 -91.5 -12zM61.001 614.993l113 115h136l113 -115l-96 -42l-85 63l-85 -63z" />
    <glyph glyph-name="uni015E" unicode="&#x15e;" horiz-adv-x="617" 
d="M233 -128c7.33301 -4.66699 19.6699 -9.16406 37.0029 -13.4971s35 -6.5 53 -6.5c15.333 0 28.5 2.33301 39.5 7s16.5 12.667 16.5 24s-5 19.166 -15 23.499s-23.333 6.5 -40 6.5c-14 0 -28.833 -1.16699 -44.5 -3.5s-27.167 -4.16602 -34.5 -5.49902l42 88
c-47.333 3.33301 -95.333 12.166 -144 26.499s-92 32.833 -130 55.5l84 171c23.333 -14.667 47.666 -27.667 72.999 -39c21.333 -10 45.5 -19 72.5 -27s54.5 -12 82.5 -12c21.333 0 36.166 2.83301 44.499 8.5s12.5 13.167 12.5 22.5c0 10 -4.16699 18.5 -12.5 25.5
s-19.833 13.167 -34.5 18.5s-31.5 10.666 -50.5 15.999s-39.167 11.666 -60.5 18.999c-31.333 10.667 -58.333 22.167 -81 34.5s-41.334 26.333 -56.001 42s-25.5 33.5 -32.5 53.5s-10.5 43 -10.5 69c0 39.333 7.16699 74 21.5 104s33.833 55 58.5 75
s52.834 35.167 84.501 45.5s65.167 15.5 100.5 15.5c26 0 51.333 -2.5 76 -7.5s48.5 -11.333 71.5 -19s44.5 -16 64.5 -25s38 -17.5 54 -25.5l-84 -161c-20 12 -40.667 22.667 -62 32c-18 8 -38.167 15.5 -60.5 22.5s-44.166 10.5 -65.499 10.5
c-17.333 0 -31.166 -2.66699 -41.499 -8s-15.5 -14.333 -15.5 -27c0 -9.33301 3 -17 9 -23s14.667 -11.5 26 -16.5s25.166 -9.83301 41.499 -14.5s34.833 -10.334 55.5 -17.001c32.667 -10 62.167 -21 88.5 -33s48.833 -26.167 67.5 -42.5s33 -36.166 43 -59.499
s15 -51.666 15 -84.999c0 -38.667 -6.5 -71.667 -19.5 -99s-30.333 -49.833 -52 -67.5s-46.334 -31.167 -74.001 -40.5s-56.5 -15 -86.5 -17l-18 -27c4 0.666992 8.16699 1.16699 12.5 1.5s9.16602 0.5 14.499 0.5c12 0 23.667 -1.5 35 -4.5s21.333 -7.5 30 -13.5
s15.667 -14 21 -24s8 -22 8 -36c0 -28 -12.167 -52.167 -36.5 -72.5s-62.833 -30.5 -115.5 -30.5c-24 0 -45.5 2.16699 -64.5 6.5s-35.167 9.16602 -48.5 14.499z" />
    <glyph glyph-name="uni015F" unicode="&#x15f;" horiz-adv-x="501" 
d="M160 -128c7.33301 -4.66699 19.6689 -9.16992 37.002 -13.5029s35 -6.5 53 -6.5c15.333 0 28.5 2.33301 39.5 7s16.5 12.667 16.5 24s-5 19.166 -15 23.499s-23.333 6.5 -40 6.5c-14 0 -28.833 -1.16699 -44.5 -3.5s-27.167 -4.16602 -34.5 -5.49902l43 89
c-38 4.66699 -74 14.167 -108 28.5s-63.667 33.166 -89 56.499l65 114c32.667 -22 64.167 -39 94.5 -51s58.166 -18 83.499 -18c26.667 0 40 8.33301 40 25c0 9.33301 -5.16699 17.333 -15.5 24s-30.5 14.334 -60.5 23.001c-37.333 10.667 -68.5 21.167 -93.5 31.5
s-45.333 21.5 -61 33.5s-26.834 25.333 -33.501 40s-10 32 -10 52c0 26.667 5.33301 51.334 16 74.001s25.5 42.334 44.5 59.001s41.667 29.5 68 38.5s55.166 13.5 86.499 13.5c38.667 0 75.5 -5 110.5 -15s70.167 -30.333 105.5 -61l-72 -114
c-32.667 21.333 -60 36.5 -82 45.5s-42.667 13.5 -62 13.5c-11.333 0 -20.666 -2.16699 -27.999 -6.5s-11 -11.166 -11 -20.499c0 -10 5.33301 -18.167 16 -24.5s31.667 -13.5 63 -21.5c38 -10 70 -20.5 96 -31.5s46.833 -23 62.5 -36s26.834 -27.667 33.501 -44
s10 -35.166 10 -56.499c0 -51.333 -17.5 -92.333 -52.5 -123s-83.5 -47.667 -145.5 -51l-17 -25c4 0.666992 8.16699 1.16699 12.5 1.5s9.16602 0.5 14.499 0.5c12 0 23.667 -1.5 35 -4.5s21.333 -7.5 30 -13.5s15.667 -14 21 -24s8 -22 8 -36
c0 -28 -12.167 -52.167 -36.5 -72.5s-62.833 -30.5 -115.5 -30.5c-24 0 -45.5 2.16699 -64.5 6.5s-35.167 9.16602 -48.5 14.499z" />
    <glyph glyph-name="Scaron" unicode="&#x160;" horiz-adv-x="617" 
d="M491 478c-20 12 -40.665 22.668 -61.998 32.001c-18 8 -38.167 15.5 -60.5 22.5s-44.166 10.5 -65.499 10.5c-17.333 0 -31.166 -2.66699 -41.499 -8s-15.5 -14.333 -15.5 -27c0 -9.33301 3 -17 9 -23s14.667 -11.5 26 -16.5s25.166 -9.83301 41.499 -14.5
s34.833 -10.334 55.5 -17.001c32.667 -10 62.167 -21 88.5 -33s48.833 -26.167 67.5 -42.5s33 -36.166 43 -59.499s15 -51.666 15 -84.999c0 -42.667 -7.83301 -78.5 -23.5 -107.5s-36.334 -52.167 -62.001 -69.5s-54.667 -29.833 -87 -37.5s-64.833 -11.5 -97.5 -11.5
c-26 0 -52.667 2 -80 6s-54.5 9.66699 -81.5 17s-53 16 -78 26s-48.167 21.333 -69.5 34l84 171c23.333 -14.667 47.666 -27.667 72.999 -39c21.333 -10 45.5 -19 72.5 -27s54.5 -12 82.5 -12c21.333 0 36.166 2.83301 44.499 8.5s12.5 13.167 12.5 22.5
c0 10 -4.16699 18.5 -12.5 25.5s-19.833 13.167 -34.5 18.5s-31.5 10.666 -50.5 15.999s-39.167 11.666 -60.5 18.999c-31.333 10.667 -58.333 22.167 -81 34.5s-41.334 26.333 -56.001 42s-25.5 33.5 -32.5 53.5s-10.5 43 -10.5 69c0 39.333 7.16699 74 21.5 104
s33.833 55 58.5 75s52.834 35.167 84.501 45.5s65.167 15.5 100.5 15.5c26 0 51.333 -2.5 76 -7.5s48.5 -11.333 71.5 -19s44.5 -16 64.5 -25s38 -17.5 54 -25.5zM242.002 914.001l85 -63l85 63l96 -42l-113 -115h-136l-113 115z" />
    <glyph glyph-name="scaron" unicode="&#x161;" horiz-adv-x="501" 
d="M265 -10c-46 0 -90.999 7.49316 -134.999 22.4932s-81.333 36.833 -112 65.5l65 114c32.667 -22 64.167 -39 94.5 -51s58.166 -18 83.499 -18c26.667 0 40 8.33301 40 25c0 9.33301 -5.16699 17.333 -15.5 24s-30.5 14.334 -60.5 23.001
c-37.333 10.667 -68.5 21.167 -93.5 31.5s-45.333 21.5 -61 33.5s-26.834 25.333 -33.501 40s-10 32 -10 52c0 26.667 5.33301 51.334 16 74.001s25.5 42.334 44.5 59.001s41.667 29.5 68 38.5s55.166 13.5 86.499 13.5c38.667 0 75.5 -5 110.5 -15
s70.167 -30.333 105.5 -61l-72 -114c-32.667 21.333 -60 36.5 -82 45.5s-42.667 13.5 -62 13.5c-11.333 0 -20.666 -2.16699 -27.999 -6.5s-11 -11.166 -11 -20.499c0 -10 5.33301 -18.167 16 -24.5s31.667 -13.5 63 -21.5c38 -10 70 -20.5 96 -31.5s46.833 -23 62.5 -36
s26.834 -27.667 33.501 -44s10 -35.166 10 -56.499c0 -27.333 -5 -51.666 -15 -72.999s-24.5 -39.666 -43.5 -54.999s-42 -27 -69 -35s-57.5 -12 -91.5 -12zM157.001 729.993l85 -63l85 63l96 -42l-113 -115h-136l-113 115z" />
    <glyph glyph-name="uni0162" unicode="&#x162;" horiz-adv-x="624" 
d="M219 -128c7.33301 -4.66699 19.668 -9.16602 37.001 -13.499s35 -6.5 53 -6.5c15.333 0 28.5 2.33301 39.5 7s16.5 12.667 16.5 24s-5 19.166 -15 23.499s-23.333 6.5 -40 6.5c-14 0 -28.833 -1.16699 -44.5 -3.5s-27.167 -4.16602 -34.5 -5.49902l46 96h-62v540h-205
v170h604v-170h-204v-540h-58l-24 -34c4 0.666992 8.16699 1.16699 12.5 1.5s9.16602 0.5 14.499 0.5c12 0 23.667 -1.5 35 -4.5s21.333 -7.5 30 -13.5s15.667 -14 21 -24s8 -22 8 -36c0 -28 -12.167 -52.167 -36.5 -72.5s-62.833 -30.5 -115.5 -30.5
c-24 0 -45.5 2.16699 -64.5 6.5s-35.167 9.16602 -48.5 14.499z" />
    <glyph glyph-name="uni0163" unicode="&#x163;" horiz-adv-x="423" 
d="M160 -128c7.33301 -4.66699 19.6689 -9.16602 37.002 -13.499s35 -6.5 53 -6.5c15.333 0 28.5 2.33301 39.5 7s16.5 12.667 16.5 24s-5 19.166 -15 23.499s-23.333 6.5 -40 6.5c-14 0 -28.833 -1.16699 -44.5 -3.5s-27.167 -4.16602 -34.5 -5.49902l42 87
c-18 2 -35 6.16699 -51 12.5s-29.833 15.5 -41.5 27.5s-20.834 27.167 -27.501 45.5s-10 40.166 -10 65.499v241h-65v143h65v165h190v-165h103v-143h-103v-174c0 -17.333 3.66699 -29.5 11 -36.5s17.333 -10.5 30 -10.5c9.33301 0 20 1.5 32 4.5s24 7.16699 36 12.5l34 -150
c-20 -8.66699 -41 -16.167 -63 -22.5s-44.333 -11.166 -67 -14.499l-18 -26c4 0.666992 8.16699 1.16699 12.5 1.5s9.16602 0.5 14.499 0.5c12 0 23.667 -1.5 35 -4.5s21.333 -7.5 30 -13.5s15.667 -14 21 -24s8 -22 8 -36c0 -28 -12.167 -52.167 -36.5 -72.5
s-62.833 -30.5 -115.5 -30.5c-24 0 -45.5 2.16699 -64.5 6.5s-35.167 9.16602 -48.5 14.499z" />
    <glyph glyph-name="Tcaron" unicode="&#x164;" horiz-adv-x="624" 
d="M614 540h-204v-540h-195v540h-205v170h604v-170zM235 914l85 -63l85 63l96 -42l-113 -115h-136l-113 115z" />
    <glyph glyph-name="tcaron" unicode="&#x165;" horiz-adv-x="423" 
d="M417 29c-26.667 -11.333 -55.1709 -20.833 -85.5039 -28.5s-60.166 -11.5 -89.499 -11.5c-21.333 0 -41.666 2.66699 -60.999 8s-36.166 14 -50.499 26s-25.666 27.667 -33.999 47s-12.5 43.333 -12.5 72v241h-65v143h65v165h190v-165h103v-143h-103v-174
c0 -17.333 3.66699 -29.5 11 -36.5s17.333 -10.5 30 -10.5c9.33301 0 20 1.5 32 4.5s24 7.16699 36 12.5zM423.996 556l-120 32l50 142h169z" />
    <glyph glyph-name="Tbar" unicode="&#x166;" horiz-adv-x="646" 
d="M625 540h-204v-184h164v-88h-164v-268h-195v268h-165v88h165v184h-205v170h604v-170z" />
    <glyph glyph-name="tbar" unicode="&#x167;" horiz-adv-x="424" 
d="M418 29c-26.667 -11.333 -55.1709 -20.833 -85.5039 -28.5s-60.166 -11.5 -89.499 -11.5c-21.333 0 -41.666 2.66699 -60.999 8s-36.166 14 -50.499 26s-25.666 27.667 -33.999 47s-12.5 43.333 -12.5 72v85h-65v109h65v47h-65v143h65v165h190v-165h103v-143h-103v-47
h103v-109h-103v-18c0 -17.333 3.66699 -29.5 11 -36.5s17.333 -10.5 30 -10.5c9.33301 0 20 1.5 32 4.5s24 7.16699 36 12.5z" />
    <glyph glyph-name="Utilde" unicode="&#x168;" horiz-adv-x="743" 
d="M371 167c22.667 0 42 5.00293 58 15.0029s29 23.167 39 39.5s17.333 35.166 22 56.499s7 43.666 7 66.999v365h195v-365c0 -49.333 -6.33301 -95.5 -19 -138.5s-32.334 -80.167 -59.001 -111.5s-60.167 -56 -100.5 -74s-87.833 -27 -142.5 -27
c-56.667 0 -105.167 9.5 -145.5 28.5s-73.5 44.5 -99.5 76.5s-45 69.167 -57 111.5s-18 87.166 -18 134.499v365h195v-365c0 -23.333 2.33301 -45.833 7 -67.5s12 -40.667 22 -57s22.833 -29.333 38.5 -39s34.834 -14.5 57.501 -14.5zM435 756.003
c-15.333 0 -28.833 2.49805 -40.5 7.49805s-22.5 10.5 -32.5 16.5s-19.833 11.5 -29.5 16.5s-20.167 7.5 -31.5 7.5s-20 -2.33301 -26 -7s-10.5 -10 -13.5 -16s-4.83301 -11.5 -5.5 -16.5s-1 -7.83301 -1 -8.5h-101c0 8.66699 2.5 21.834 7.5 39.501
s13.167 35.167 24.5 52.5s25.666 32.666 42.999 45.999s38.666 20 63.999 20c16 0 30 -2.66699 42 -8s23 -11.166 33 -17.499s19.667 -12.166 29 -17.499s19.666 -8 30.999 -8c10.667 0 19.334 2.5 26.001 7.5s11.834 10.667 15.501 17s6 12.166 7 17.499s1.5 8.33301 1.5 9
h100c0 -6 -2.66699 -17.5 -8 -34.5s-13.666 -34.667 -24.999 -53s-26 -34.666 -44 -48.999s-40 -21.5 -66 -21.5z" />
    <glyph glyph-name="utilde" unicode="&#x169;" horiz-adv-x="638" 
d="M207 -10c-53.333 0 -93.9971 16.166 -121.997 48.499s-42 79.5 -42 141.5v346h190v-303c0 -23.333 5.16699 -41.333 15.5 -54s24.5 -19 42.5 -19c14.667 0 29.667 3.33301 45 10s30.666 21.334 45.999 44.001v322h190v-316c0 -18 2.66699 -30.5 8 -37.5
s14.666 -11.167 27.999 -12.5v-160c-32.667 -6.66699 -59.334 -10 -80.001 -10c-64.667 0 -102 24.333 -112 73l-4 19c-24.667 -32.667 -54 -56.167 -88 -70.5s-73 -21.5 -117 -21.5zM372.003 571.999c-15.333 0 -28.833 2.49805 -40.5 7.49805s-22.5 10.5 -32.5 16.5
s-19.833 11.5 -29.5 16.5s-20.167 7.5 -31.5 7.5s-20 -2.33301 -26 -7s-10.5 -10 -13.5 -16s-4.83301 -11.5 -5.5 -16.5s-1 -7.83301 -1 -8.5h-101c0 8.66699 2.5 21.834 7.5 39.501s13.167 35.167 24.5 52.5s25.666 32.666 42.999 45.999s38.666 20 63.999 20
c16 0 30 -2.66699 42 -8s23 -11.166 33 -17.499s19.667 -12.166 29 -17.499s19.666 -8 30.999 -8c10.667 0 19.334 2.5 26.001 7.5s11.834 10.667 15.501 17s6 12.166 7 17.499s1.5 8.33301 1.5 9h100c0 -6 -2.66699 -17.5 -8 -34.5s-13.666 -34.667 -24.999 -53
s-26 -34.666 -44 -48.999s-40 -21.5 -66 -21.5z" />
    <glyph glyph-name="Umacron" unicode="&#x16a;" horiz-adv-x="743" 
d="M371 167c22.667 0 42 5.00293 58 15.0029s29 23.167 39 39.5s17.333 35.166 22 56.499s7 43.666 7 66.999v365h195v-365c0 -49.333 -6.33301 -95.5 -19 -138.5s-32.334 -80.167 -59.001 -111.5s-60.167 -56 -100.5 -74s-87.833 -27 -142.5 -27
c-56.667 0 -105.167 9.5 -145.5 28.5s-73.5 44.5 -99.5 76.5s-45 69.167 -57 111.5s-18 87.166 -18 134.499v365h195v-365c0 -23.333 2.33301 -45.833 7 -67.5s12 -40.667 22 -57s22.833 -29.333 38.5 -39s34.834 -14.5 57.501 -14.5zM217 791.003v113h310v-113h-310z" />
    <glyph glyph-name="umacron" unicode="&#x16b;" horiz-adv-x="638" 
d="M207 -10c-53.333 0 -93.9971 16.166 -121.997 48.499s-42 79.5 -42 141.5v346h190v-303c0 -23.333 5.16699 -41.333 15.5 -54s24.5 -19 42.5 -19c14.667 0 29.667 3.33301 45 10s30.666 21.334 45.999 44.001v322h190v-316c0 -18 2.66699 -30.5 8 -37.5
s14.666 -11.167 27.999 -12.5v-160c-32.667 -6.66699 -59.334 -10 -80.001 -10c-64.667 0 -102 24.333 -112 73l-4 19c-24.667 -32.667 -54 -56.167 -88 -70.5s-73 -21.5 -117 -21.5zM154.003 606.999v113h310v-113h-310z" />
    <glyph glyph-name="Ubreve" unicode="&#x16c;" horiz-adv-x="743" 
d="M371 167c22.667 0 42 5.00293 58 15.0029s29 23.167 39 39.5s17.333 35.166 22 56.499s7 43.666 7 66.999v365h195v-365c0 -49.333 -6.33301 -95.5 -19 -138.5s-32.334 -80.167 -59.001 -111.5s-60.167 -56 -100.5 -74s-87.833 -27 -142.5 -27
c-56.667 0 -105.167 9.5 -145.5 28.5s-73.5 44.5 -99.5 76.5s-45 69.167 -57 111.5s-18 87.166 -18 134.499v365h195v-365c0 -23.333 2.33301 -45.833 7 -67.5s12 -40.667 22 -57s22.833 -29.333 38.5 -39s34.834 -14.5 57.501 -14.5zM371 833.003
c15.333 0 28.833 7.66797 40.5 23.001s18.5 34.666 20.5 57.999h98c0 -24 -3.83301 -45.833 -11.5 -65.5s-18.5 -36.667 -32.5 -51s-30.833 -25.5 -50.5 -33.5s-41.167 -12 -64.5 -12s-44.833 4 -64.5 12s-36.5 19.167 -50.5 33.5s-24.833 31.333 -32.5 51
s-11.5 41.5 -11.5 65.5h98c0 -22 6 -41 18 -57s26.333 -24 43 -24z" />
    <glyph glyph-name="ubreve" unicode="&#x16d;" horiz-adv-x="638" 
d="M207 -10c-53.333 0 -93.9971 16.166 -121.997 48.499s-42 79.5 -42 141.5v346h190v-303c0 -23.333 5.16699 -41.333 15.5 -54s24.5 -19 42.5 -19c14.667 0 29.667 3.33301 45 10s30.666 21.334 45.999 44.001v322h190v-316c0 -18 2.66699 -30.5 8 -37.5
s14.666 -11.167 27.999 -12.5v-160c-32.667 -6.66699 -59.334 -10 -80.001 -10c-64.667 0 -102 24.333 -112 73l-4 19c-24.667 -32.667 -54 -56.167 -88 -70.5s-73 -21.5 -117 -21.5zM308.003 648.999c15.333 0 28.833 7.66797 40.5 23.001s18.5 34.666 20.5 57.999h98
c0 -24 -3.83301 -45.833 -11.5 -65.5s-18.5 -36.667 -32.5 -51s-30.833 -25.5 -50.5 -33.5s-41.167 -12 -64.5 -12s-44.833 4 -64.5 12s-36.5 19.167 -50.5 33.5s-24.833 31.333 -32.5 51s-11.5 41.5 -11.5 65.5h98c0 -22 6 -41 18 -57s26.333 -24 43 -24z" />
    <glyph glyph-name="Uring" unicode="&#x16e;" horiz-adv-x="743" 
d="M371 167c22.667 0 42 5.00293 58 15.0029s29 23.167 39 39.5s17.333 35.166 22 56.499s7 43.666 7 66.999v365h195v-365c0 -49.333 -6.33301 -95.5 -19 -138.5s-32.334 -80.167 -59.001 -111.5s-60.167 -56 -100.5 -74s-87.833 -27 -142.5 -27
c-56.667 0 -105.167 9.5 -145.5 28.5s-73.5 44.5 -99.5 76.5s-45 69.167 -57 111.5s-18 87.166 -18 134.499v365h195v-365c0 -23.333 2.33301 -45.833 7 -67.5s12 -40.667 22 -57s22.833 -29.333 38.5 -39s34.834 -14.5 57.501 -14.5zM254 827.003
c0 29.333 10.5 51.166 31.5 65.499s49.5 21.5 85.5 21.5s64.5 -7.16699 85.5 -21.5s31.5 -36.166 31.5 -65.499s-10.5 -51.166 -31.5 -65.499s-49.5 -21.5 -85.5 -21.5s-64.5 7.16699 -85.5 21.5s-31.5 36.166 -31.5 65.499zM371 860.003c-11.333 0 -20.833 -3 -28.5 -9
s-11.5 -13.667 -11.5 -23c0 -10 3.83301 -18.167 11.5 -24.5s17.167 -9.5 28.5 -9.5s20.833 3.16699 28.5 9.5s11.5 14.5 11.5 24.5c0 9.33301 -3.83301 17 -11.5 23s-17.167 9 -28.5 9z" />
    <glyph glyph-name="uring" unicode="&#x16f;" horiz-adv-x="638" 
d="M207 -10c-53.333 0 -93.9971 16.166 -121.997 48.499s-42 79.5 -42 141.5v346h190v-303c0 -23.333 5.16699 -41.333 15.5 -54s24.5 -19 42.5 -19c14.667 0 29.667 3.33301 45 10s30.666 21.334 45.999 44.001v322h190v-316c0 -18 2.66699 -30.5 8 -37.5
s14.666 -11.167 27.999 -12.5v-160c-32.667 -6.66699 -59.334 -10 -80.001 -10c-64.667 0 -102 24.333 -112 73l-4 19c-24.667 -32.667 -54 -56.167 -88 -70.5s-73 -21.5 -117 -21.5zM191.003 642.999c0 29.333 10.5 51.166 31.5 65.499s49.5 21.5 85.5 21.5
s64.5 -7.16699 85.5 -21.5s31.5 -36.166 31.5 -65.499s-10.5 -51.166 -31.5 -65.499s-49.5 -21.5 -85.5 -21.5s-64.5 7.16699 -85.5 21.5s-31.5 36.166 -31.5 65.499zM308.003 675.999c-11.333 0 -20.833 -3 -28.5 -9s-11.5 -13.667 -11.5 -23
c0 -10 3.83301 -18.167 11.5 -24.5s17.167 -9.5 28.5 -9.5s20.833 3.16699 28.5 9.5s11.5 14.5 11.5 24.5c0 9.33301 -3.83301 17 -11.5 23s-17.167 9 -28.5 9z" />
    <glyph glyph-name="Uhungarumlaut" unicode="&#x170;" horiz-adv-x="743" 
d="M371 167c22.667 0 42 5.00293 58 15.0029s29 23.167 39 39.5s17.333 35.166 22 56.499s7 43.666 7 66.999v365h195v-365c0 -49.333 -6.33301 -95.5 -19 -138.5s-32.334 -80.167 -59.001 -111.5s-60.167 -56 -100.5 -74s-87.833 -27 -142.5 -27
c-56.667 0 -105.167 9.5 -145.5 28.5s-73.5 44.5 -99.5 76.5s-45 69.167 -57 111.5s-18 87.166 -18 134.499v365h195v-365c0 -23.333 2.33301 -45.833 7 -67.5s12 -40.667 22 -57s22.833 -29.333 38.5 -39s34.834 -14.5 57.501 -14.5zM308 741.003l-90 32l40 142h139z
M498 741.003l-90 32l40 142h139z" />
    <glyph glyph-name="uhungarumlaut" unicode="&#x171;" horiz-adv-x="638" 
d="M207 -10c-53.333 0 -93.9971 16.166 -121.997 48.499s-42 79.5 -42 141.5v346h190v-303c0 -23.333 5.16699 -41.333 15.5 -54s24.5 -19 42.5 -19c14.667 0 29.667 3.33301 45 10s30.666 21.334 45.999 44.001v322h190v-316c0 -18 2.66699 -30.5 8 -37.5
s14.666 -11.167 27.999 -12.5v-160c-32.667 -6.66699 -59.334 -10 -80.001 -10c-64.667 0 -102 24.333 -112 73l-4 19c-24.667 -32.667 -54 -56.167 -88 -70.5s-73 -21.5 -117 -21.5zM245.003 556.999l-90 32l40 142h139zM435.003 556.999l-90 32l40 142h139z" />
    <glyph glyph-name="Uogonek" unicode="&#x172;" horiz-adv-x="743" 
d="M385 -214c-52 6 -90.334 18.334 -115.001 37.001s-37 39.667 -37 63c0 19.333 6.66699 38.5 20 57.5s33.333 37.167 60 54.5c-46 6 -85.667 19.5 -119 40.5s-60.5 47 -81.5 78s-36.5 66.167 -46.5 105.5s-15 80.333 -15 123v365h195v-365
c0 -23.333 2.33301 -45.833 7 -67.5s12 -40.667 22 -57s22.833 -29.333 38.5 -39s34.834 -14.5 57.501 -14.5s42 5 58 15s29 23.167 39 39.5s17.333 35.166 22 56.499s7 43.666 7 66.999v365h195v-365c0 -46 -5.5 -89.333 -16.5 -130s-28 -76.5 -51 -107.5
s-52 -56.167 -87 -75.5s-76.5 -31.333 -124.5 -36c-20 -12.667 -35.5 -25.167 -46.5 -37.5s-16.5 -24.166 -16.5 -35.499s5.66699 -20.333 17 -27s29 -10 53 -10l-35 -100v0z" />
    <glyph glyph-name="uogonek" unicode="&#x173;" horiz-adv-x="639" 
d="M572 -215c-52 6 -90.332 18.332 -114.999 36.999s-37 39.667 -37 63c0 18 6.16699 36.333 18.5 55s30.833 36.334 55.5 53.001c-43.333 7.33301 -69 30.666 -77 69.999l-4 19c-24.667 -32.667 -54 -56.167 -88 -70.5s-73 -21.5 -117 -21.5
c-53.333 0 -94 16.167 -122 48.5s-42 79.5 -42 141.5v346h190v-303c0 -23.333 5.16699 -41.333 15.5 -54s24.5 -19 42.5 -19c14.667 0 29.667 3.33301 45 10s30.666 21.334 45.999 44.001v322h190v-316c0 -18 2.66699 -30.5 8 -37.5s14.666 -11.167 27.999 -12.5v-160
c-23.333 -13.333 -41.166 -26.833 -53.499 -40.5s-18.5 -26.167 -18.5 -37.5s5.66699 -20.333 17 -27s29 -10 53 -10l-35 -100v0z" />
    <glyph glyph-name="Wcircumflex" unicode="&#x174;" horiz-adv-x="1057" 
d="M287 710h179l62 -219l63 219h179l-117 -339l51 -148l153 487h212l-278 -710h-162l-101 254l-100 -254h-162l-278 710h211l154 -487l49 148zM347 799l113 115h136l113 -115l-96 -42l-85 63l-85 -63z" />
    <glyph glyph-name="wcircumflex" unicode="&#x175;" horiz-adv-x="862" 
d="M693 526h179l-215 -526h-155l-71 200l-71 -200h-155l-215 526h179l127 -353l33 113l-94 240h151l45 -154l45 154h151l-94 -240l33 -113zM250 615l113 115h136l113 -115l-96 -42l-85 63l-85 -63z" />
    <glyph glyph-name="Ycircumflex" unicode="&#x176;" horiz-adv-x="666" 
d="M205 710l127 -307l130 307h212l-245 -475v-235h-194v237l-241 473h211zM151 799l113 115h136l113 -115l-96 -42l-85 63l-85 -63z" />
    <glyph glyph-name="ycircumflex" unicode="&#x177;" horiz-adv-x="555" 
d="M44 -53c30.667 -11.333 56.668 -17 78.001 -17c40.667 0 63 23.333 67 70l-191 526h195l100 -365l81 365h177l-178 -589c-8 -26 -19.333 -49.5 -34 -70.5s-32.167 -39 -52.5 -54s-42.833 -26.5 -67.5 -34.5s-50.334 -12 -77.001 -12c-34 0 -66.667 6.33301 -98 19v162z
M112.001 615l113 115h136l113 -115l-96 -42l-85 63l-85 -63z" />
    <glyph glyph-name="Ydieresis" unicode="&#x178;" horiz-adv-x="666" 
d="M205 710l127 -307l130 307h212l-245 -475v-235h-194v237l-241 473h211zM139 765v140h156v-140h-156zM369 765v140h156v-140h-156z" />
    <glyph glyph-name="Zacute" unicode="&#x179;" horiz-adv-x="622" 
d="M27 145l332 395h-317v170h542v-145l-312 -395h318v-170h-563v145zM378 740l-120 32l50 142h169z" />
    <glyph glyph-name="zacute" unicode="&#x17a;" horiz-adv-x="494" 
d="M22 112l240 284h-225v130h423v-112l-239 -284h248v-130h-447v112zM301 556l-120 32l50 142h169z" />
    <glyph glyph-name="Zdotaccent" unicode="&#x17b;" horiz-adv-x="622" 
d="M27 145l332 395h-317v170h542v-145l-312 -395h318v-170h-563v145zM235 764v150h170v-150h-170z" />
    <glyph glyph-name="zdotaccent" unicode="&#x17c;" horiz-adv-x="494" 
d="M22 112l240 284h-225v130h423v-112l-239 -284h248v-130h-447v112zM158 580v150h170v-150h-170z" />
    <glyph glyph-name="Zcaron" unicode="&#x17d;" horiz-adv-x="622" 
d="M27 145l332 395h-317v170h542v-145l-312 -395h318v-170h-563v145zM235 914l85 -63l85 63l96 -42l-113 -115h-136l-113 115z" />
    <glyph glyph-name="zcaron" unicode="&#x17e;" horiz-adv-x="494" 
d="M22 112l240 284h-225v130h423v-112l-239 -284h248v-130h-447v112zM158 730l85 -63l85 63l96 -42l-113 -115h-136l-113 115z" />
    <glyph glyph-name="Schwa" unicode="&#x18f;" horiz-adv-x="758" 
d="M375 -5c-59.333 0 -111.665 10.8359 -156.998 32.5029s-83.166 49.334 -113.499 83.001s-53.333 70.667 -69 111s-23.5 79.166 -23.5 116.499c0 12.667 0.666992 25.5 2 38.5s2.66602 24.5 3.99902 34.5h505c-2 23.333 -7.5 43.333 -16.5 60s-20.167 30.334 -33.5 41.001
s-28.333 18.5 -45 23.5s-33.667 7.5 -51 7.5c-14 0 -27.833 -1.83301 -41.5 -5.5s-26.334 -8.83398 -38.001 -15.501s-21.834 -14.834 -30.501 -24.501s-15 -20.834 -19 -33.501l-203 57c13.333 28.667 30.5 55 51.5 79s45.5 44.333 73.5 61s59.167 29.667 93.5 39
s71.5 14 111.5 14c58 0 109.5 -10.833 154.5 -32.5s82.667 -49.334 113 -83.001s53.5 -71 69.5 -112s24 -81.167 24 -120.5c0 -44.667 -7.66699 -89.167 -23 -133.5s-38.333 -84 -69 -119s-68.5 -63.5 -113.5 -85.5s-96.833 -33 -155.5 -33zM378.001 165.003
c38 0 69.5 9 94.5 27s40.167 43.333 45.5 76h-290c6 -32.667 22.5 -58 49.5 -76s60.5 -27 100.5 -27z" />
    <glyph glyph-name="florin" unicode="&#x192;" horiz-adv-x="565" 
d="M177 -209c-28 0 -54.6709 4.66699 -80.0039 14s-48.333 22.666 -69 39.999l78 129c12 -13.333 27.667 -20 47 -20c26.667 0 40 14.333 40 43v325h-65v143h65v57c0 32.667 4.66699 62.5 14 89.5s22.333 50 39 69s36.834 33.667 60.501 44s50.167 15.5 79.5 15.5
c44 0 92.667 -10 146 -30l-32 -144c-11.333 4 -23.5 7.33301 -36.5 10s-24.5 4 -34.5 4c-30.667 0 -46 -17 -46 -51v-64h115v-143h-115v-320c0 -31.333 -5.16699 -60 -15.5 -86s-24.666 -48.167 -42.999 -66.5s-40.166 -32.666 -65.499 -42.999s-52.666 -15.5 -81.999 -15.5
z" />
    <glyph glyph-name="uni01C4" unicode="&#x1c4;" horiz-adv-x="1338" 
d="M61 0l-0.000976562 710h273c58.667 0 110.334 -9.33301 155.001 -28s82 -44 112 -76s52.667 -69.5 68 -112.5s23 -88.833 23 -137.5c0 -54 -8.5 -102.833 -25.5 -146.5s-41.167 -81 -72.5 -112s-69 -55 -113 -72s-93 -25.5 -147 -25.5h-273zM493.999 356
c0 27.333 -3.66699 52.3311 -11 74.998s-17.833 42 -31.5 58s-30.5 28.5 -50.5 37.5s-42.333 13.5 -67 13.5h-78v-370h78c25.333 0 48 4.66699 68 14s36.833 22.333 50.5 39s24 36.334 31 59.001s10.5 47.334 10.5 74.001zM742.999 144.998l332 395h-317v170h542v-145
l-312 -395h318v-170h-563v145zM950.999 913.998l85 -63l85 63l96 -42l-113 -115h-136l-113 115z" />
    <glyph glyph-name="uni01C5" unicode="&#x1c5;" horiz-adv-x="1210" 
d="M61 0l-0.000976562 710h273c58.667 0 110.334 -9.33301 155.001 -28s82 -44 112 -76s52.667 -69.5 68 -112.5s23 -88.833 23 -137.5c0 -54 -8.5 -102.833 -25.5 -146.5s-41.167 -81 -72.5 -112s-69 -55 -113 -72s-93 -25.5 -147 -25.5h-273zM493.999 356
c0 27.333 -3.66699 52.3311 -11 74.998s-17.833 42 -31.5 58s-30.5 28.5 -50.5 37.5s-42.333 13.5 -67 13.5h-78v-370h78c25.333 0 48 4.66699 68 14s36.833 22.333 50.5 39s24 36.334 31 59.001s10.5 47.334 10.5 74.001zM737.999 111.998l240 284h-225v130h423v-112
l-239 -284h248v-130h-447v112zM873.999 729.998l85 -63l85 63l96 -42l-113 -115h-136l-113 115z" />
    <glyph glyph-name="uni01C6" unicode="&#x1c6;" horiz-adv-x="1159" 
d="M268 -10c-36 0 -69.1621 6.66895 -99.4951 20.002s-56.5 32.166 -78.5 56.499s-39.167 53.333 -51.5 87s-18.5 70.5 -18.5 110.5c0 38.667 5.66699 74.667 17 108s27.166 62.166 47.499 86.499s44.5 43.333 72.5 57s59 20.5 93 20.5s65.167 -7.66699 93.5 -23
s50.166 -37 65.499 -65v282h190v-520c0 -18 2.66699 -30.5 8 -37.5s14.666 -11.167 27.999 -12.5v-160c-32.667 -6.66699 -59.334 -10 -80.001 -10c-64.667 0 -102 24.333 -112 73l-4 19c-18 -32 -42.333 -55.333 -73 -70s-63.334 -22 -98.001 -22zM320.005 150.002
c34.667 0 64.667 18.001 90 54.001v94c-9.33301 23.333 -23 42.166 -41 56.499s-37 21.5 -57 21.5c-14 0 -26.833 -3 -38.5 -9s-21.667 -14.333 -30 -25s-15 -23 -20 -37s-7.5 -29 -7.5 -45c0 -33.333 9.5 -60 28.5 -80s44.167 -30 75.5 -30zM687.005 112.003l240 284h-225
v130h423v-112l-239 -284h248v-130h-447v112zM823.005 730.003l85 -63l85 63l96 -42l-113 -115h-136l-113 115z" />
    <glyph glyph-name="uni01C7" unicode="&#x1c7;" horiz-adv-x="1083" 
d="M61 0v710h195v-540h322v-170h-517zM627 192c2 -1.33301 6.33105 -3.66992 12.998 -7.00293s15 -6.66602 25 -9.99902s21.5 -6.33301 34.5 -9s26.5 -4 40.5 -4c20.667 0 37.334 3.33301 50.001 10s22.334 17.5 29.001 32.5s11 34.333 13 58s3 52.5 3 86.5v361h195v-361
c0 -54 -3 -103.167 -9 -147.5s-19 -82.166 -39 -113.499s-49.167 -55.666 -87.5 -72.999s-89.833 -26 -154.5 -26c-60 0 -111.333 14.667 -154 44z" />
    <glyph glyph-name="uni01C8" unicode="&#x1c8;" horiz-adv-x="875" 
d="M61 0v710h195v-540h322v-170h-517zM621 -209c-28 0 -54.668 4.66895 -80.001 14.002s-48.333 22.666 -69 39.999l78 129c12 -13.333 27.667 -20 47 -20c26.667 0 40 14.333 40 43v529h190v-514c0 -32.667 -5 -62.5 -15 -89.5s-24.167 -50.333 -42.5 -70
s-40.166 -34.834 -65.499 -45.501s-53 -16 -83 -16zM636.999 570.002v160h190v-160h-190z" />
    <glyph glyph-name="uni01C9" unicode="&#x1c9;" horiz-adv-x="645" 
d="M44 730l189.999 -0.000976562v-521c0 -40 16.333 -60 49 -60c8 0 16.667 1.33301 26 4s18 6.33398 26 11.001l24 -140c-22.667 -10.667 -48.167 -19 -76.5 -25s-55.166 -9 -80.499 -9c-50.667 0 -89.667 13 -117 39s-41 63.667 -41 113v588zM390.999 -209.001
c-28 0 -54.668 4.66895 -80.001 14.002s-48.333 22.666 -69 39.999l78 129c12 -13.333 27.667 -20 47 -20c26.667 0 40 14.333 40 43v529h190v-514c0 -32.667 -5 -62.5 -15 -89.5s-24.167 -50.333 -42.5 -70s-40.166 -34.834 -65.499 -45.501s-53 -16 -83 -16z
M406.998 570.001v160h190v-160h-190z" />
    <glyph glyph-name="uni01CA" unicode="&#x1ca;" horiz-adv-x="1252" 
d="M256 349v-349h-195v710h152l285 -361v361h195v-710h-155zM796 192c2 -1.33301 6.33105 -3.66992 12.998 -7.00293s15 -6.66602 25 -9.99902s21.5 -6.33301 34.5 -9s26.5 -4 40.5 -4c20.667 0 37.334 3.33301 50.001 10s22.334 17.5 29.001 32.5s11 34.333 13 58
s3 52.5 3 86.5v361h195v-361c0 -54 -3 -103.167 -9 -147.5s-19 -82.166 -39 -113.499s-49.167 -55.666 -87.5 -72.999s-89.833 -26 -154.5 -26c-60 0 -111.333 14.667 -154 44z" />
    <glyph glyph-name="uni01CB" unicode="&#x1cb;" horiz-adv-x="1044" 
d="M256 349v-349h-195v710h152l285 -361v361h195v-710h-155zM790 -209c-28 0 -54.668 4.66895 -80.001 14.002s-48.333 22.666 -69 39.999l78 129c12 -13.333 27.667 -20 47 -20c26.667 0 40 14.333 40 43v529h190v-514c0 -32.667 -5 -62.5 -15 -89.5
s-24.167 -50.333 -42.5 -70s-40.166 -34.834 -65.499 -45.501s-53 -16 -83 -16zM805.999 570.002v160h190v-160h-190z" />
    <glyph glyph-name="uni01CC" unicode="&#x1cc;" horiz-adv-x="911" 
d="M577 0h-190.001v296c0 26 -5.83301 44.833 -17.5 56.5s-25.167 17.5 -40.5 17.5c-16 0 -33 -7 -51 -21s-31.333 -32 -40 -54v-295h-190v526h171v-78c18.667 28.667 44.834 50.5 78.501 65.5s73.5 22.5 119.5 22.5c36 0 64.5 -6.5 85.5 -19.5s37 -29.167 48 -48.5
s18.167 -40 21.5 -62s5 -42 5 -60v-346zM656.999 -209c-28 0 -54.668 4.66895 -80.001 14.002s-48.333 22.666 -69 39.999l78 129c12 -13.333 27.667 -20 47 -20c26.667 0 40 14.333 40 43v529h190v-514c0 -32.667 -5 -62.5 -15 -89.5s-24.167 -50.333 -42.5 -70
s-40.166 -34.834 -65.499 -45.501s-53 -16 -83 -16zM672.998 570.002v160h190v-160h-190z" />
    <glyph glyph-name="Oogonek" unicode="&#x1ea;" horiz-adv-x="765" 
d="M388 -214c-52 6 -90.333 18.333 -115 37s-37 39.667 -37 63c0 19.333 6.83301 38.666 20.5 57.999s34.167 37.666 61.5 54.999c-45.333 7.33301 -86.166 22.333 -122.499 45s-67.333 50.334 -93 83.001s-45.5 68.667 -59.5 108s-21 79.666 -21 120.999
c0 46.667 9 91.667 27 135s43.167 81.5 75.5 114.5s70.666 59.333 114.999 79s92.833 29.5 145.5 29.5c54 0 103 -10.333 147 -31s81.667 -48 113 -82s55.5 -72.667 72.5 -116s25.5 -87.666 25.5 -132.999c0 -44 -8 -86.5 -24 -127.5s-38.333 -77.667 -67 -110
s-63.167 -59 -103.5 -80s-84.5 -33.833 -132.5 -38.5c-20 -12.667 -35.5 -25.167 -46.5 -37.5s-16.5 -24.166 -16.5 -35.499s5.66699 -20.333 17 -27s29 -10 53 -10zM220 354c0 -24 3.33203 -47.1689 9.99902 -69.502s16.667 -42.166 30 -59.499s30.166 -31.333 50.499 -42
s44.5 -16 72.5 -16s52.333 5.5 73 16.5s37.5 25.333 50.5 43s22.667 37.834 29 60.501s9.5 45.667 9.5 69c0 24 -3.33301 47.167 -10 69.5s-16.834 42 -30.501 59s-30.667 30.667 -51 41s-44.166 15.5 -71.499 15.5c-28 0 -52.167 -5.33301 -72.5 -16
s-37.166 -24.834 -50.499 -42.501s-23.166 -37.667 -29.499 -60s-9.5 -45.166 -9.5 -68.499z" />
    <glyph glyph-name="oogonek" unicode="&#x1eb;" horiz-adv-x="614" 
d="M357 -214c-52 6 -90.332 18.3359 -114.999 37.0029s-37 39.667 -37 63c0 17.333 6 35.166 18 53.499s29.667 35.833 53 52.5c-42 3.33301 -79 13 -111 29s-58.833 36.167 -80.5 60.5s-38 52.166 -49 83.499s-16.5 64 -16.5 98c0 36 6.16699 70.5 18.5 103.5
s30.666 62 54.999 87s54.333 45 90 60s77.167 22.5 124.5 22.5c46.667 0 88 -7.5 124 -22.5s66.167 -35 90.5 -60s42.666 -54 54.999 -87s18.5 -67.5 18.5 -103.5c0 -30 -4.33301 -59.167 -13 -87.5s-21.5 -54 -38.5 -77s-38.167 -43.167 -63.5 -60.5
s-54.666 -30 -87.999 -38c-46.667 -26.667 -70 -52.334 -70 -77.001c0 -11.333 5.66699 -20.333 17 -27s29 -10 53 -10zM214.001 263.003c0 -35.333 8.66699 -63 26 -83s39.666 -30 66.999 -30s49.666 10 66.999 30s26 47.667 26 83s-8.66699 63 -26 83
s-39.666 30 -66.999 30s-49.666 -10 -66.999 -30s-26 -47.667 -26 -83z" />
    <glyph glyph-name="uni01F1" unicode="&#x1f1;" horiz-adv-x="1329" 
d="M61 0l-0.000976562 710h273c58.667 0 110.334 -9.33301 155.001 -28s82 -44 112 -76s52.667 -69.5 68 -112.5s23 -88.833 23 -137.5c0 -54 -8.5 -102.833 -25.5 -146.5s-41.167 -81 -72.5 -112s-69 -55 -113 -72s-93 -25.5 -147 -25.5h-273zM493.999 356
c0 27.333 -3.66699 52.3311 -11 74.998s-17.833 42 -31.5 58s-30.5 28.5 -50.5 37.5s-42.333 13.5 -67 13.5h-78v-370h78c25.333 0 48 4.66699 68 14s36.833 22.333 50.5 39s24 36.334 31 59.001s10.5 47.334 10.5 74.001zM733.999 144.998l332 395h-317v170h542v-145
l-312 -395h318v-170h-563v145z" />
    <glyph glyph-name="uni01F2" unicode="&#x1f2;" horiz-adv-x="1204" 
d="M61 0l-0.000976562 710h273c58.667 0 110.334 -9.33301 155.001 -28s82 -44 112 -76s52.667 -69.5 68 -112.5s23 -88.833 23 -137.5c0 -54 -8.5 -102.833 -25.5 -146.5s-41.167 -81 -72.5 -112s-69 -55 -113 -72s-93 -25.5 -147 -25.5h-273zM493.999 356
c0 27.333 -3.66699 52.3311 -11 74.998s-17.833 42 -31.5 58s-30.5 28.5 -50.5 37.5s-42.333 13.5 -67 13.5h-78v-370h78c25.333 0 48 4.66699 68 14s36.833 22.333 50.5 39s24 36.334 31 59.001s10.5 47.334 10.5 74.001zM731.999 111.998l240 284h-225v130h423v-112
l-239 -284h248v-130h-447v112z" />
    <glyph glyph-name="uni01F3" unicode="&#x1f3;" horiz-adv-x="1159" 
d="M268 -10c-36 0 -69.1621 6.66895 -99.4951 20.002s-56.5 32.166 -78.5 56.499s-39.167 53.333 -51.5 87s-18.5 70.5 -18.5 110.5c0 38.667 5.66699 74.667 17 108s27.166 62.166 47.499 86.499s44.5 43.333 72.5 57s59 20.5 93 20.5s65.167 -7.66699 93.5 -23
s50.166 -37 65.499 -65v282h190v-520c0 -18 2.66699 -30.5 8 -37.5s14.666 -11.167 27.999 -12.5v-160c-32.667 -6.66699 -59.334 -10 -80.001 -10c-64.667 0 -102 24.333 -112 73l-4 19c-18 -32 -42.333 -55.333 -73 -70s-63.334 -22 -98.001 -22zM320.005 150.002
c34.667 0 64.667 18.001 90 54.001v94c-9.33301 23.333 -23 42.166 -41 56.499s-37 21.5 -57 21.5c-14 0 -26.833 -3 -38.5 -9s-21.667 -14.333 -30 -25s-15 -23 -20 -37s-7.5 -29 -7.5 -45c0 -33.333 9.5 -60 28.5 -80s44.167 -30 75.5 -30zM687.005 112.003l240 284h-225
v130h423v-112l-239 -284h248v-130h-447v112z" />
    <glyph glyph-name="Gacute" unicode="&#x1f4;" horiz-adv-x="739" 
d="M543 59c-50.667 -42.667 -109.001 -63.998 -175.001 -63.998c-46 0 -90 8.16699 -132 24.5s-78.667 40.166 -110 71.499s-56.333 69.666 -75 114.999s-28 97 -28 155c0 50 9.33301 96.5 28 139.5s44.334 80.333 77.001 112s71.167 56.667 115.5 75
s92.166 27.5 143.499 27.5c32 0 62.667 -3.5 92 -10.5s56.5 -17.333 81.5 -31s47.5 -30 67.5 -49s36.333 -40.5 49 -64.5l-145 -111c-14 28 -35 50.5 -63 67.5s-57.667 25.5 -89 25.5c-23.333 0 -44.666 -4.66699 -63.999 -14s-36 -22.333 -50 -39s-25 -36.5 -33 -59.5
s-12 -48.167 -12 -75.5c0 -28 4 -53.333 12 -76s19.167 -42.167 33.5 -58.5s31.5 -29 51.5 -38s42.333 -13.5 67 -13.5c56.667 0 106.667 23.333 150 70h-123v140h292v-378h-161v59zM447.999 740.002l-120 32l50 142h169z" />
    <glyph glyph-name="gacute" unicode="&#x1f5;" horiz-adv-x="647" 
d="M250 0c-34 0 -65.1689 6.83105 -93.502 20.498s-52.5 32.334 -72.5 56.001s-35.5 51.5 -46.5 83.5s-16.5 66.667 -16.5 104c0 39.333 6 75.666 18 108.999s28.833 62 50.5 86s47.5 42.833 77.5 56.5s63 20.5 99 20.5c38 0 71.333 -7.5 100 -22.5
s51.334 -36.833 68.001 -65.5v78h165v-478c0 -41.333 -7.66699 -78.666 -23 -111.999s-37 -61.666 -65 -84.999s-61.667 -41.5 -101 -54.5s-83 -19.5 -131 -19.5c-56 0 -104.667 8.66699 -146 26s-78 42.333 -110 75l100 104c19.333 -18 42.5 -33.167 69.5 -45.5
s55.833 -18.5 86.5 -18.5c17.333 0 33.833 2.33301 49.5 7s29.5 12.167 41.5 22.5s21.5 23.833 28.5 40.5s10.5 36.667 10.5 60v34c-15.333 -28 -37.166 -48.667 -65.499 -62s-59.5 -20 -93.5 -20zM317.998 149.998c19.333 0 36.168 4.49805 50.501 13.498
s27.833 22.5 40.5 40.5v94c-9.33301 24 -23.166 43 -41.499 57s-37.5 21 -57.5 21c-13.333 0 -25.833 -3.16699 -37.5 -9.5s-21.834 -14.666 -30.501 -24.999s-15.334 -22.666 -20.001 -36.999s-7 -29.5 -7 -45.5c0 -32.667 9.66699 -59 29 -79s44 -30 74 -30zM379 555.996
l-120 32l50 142h169z" />
    <glyph glyph-name="Aringacute" unicode="&#x1fa;" horiz-adv-x="667" 
d="M419 808c21.333 -14.667 32.001 -36.332 32.001 -64.999c0 -23.333 -7 -42 -21 -56l239 -687h-198l-43 139h-189l-42 -139h-199l239 688c-13.333 14.667 -20 33 -20 55c0 21.333 5.66699 38.666 17 51.999s27.666 23 48.999 29l38 94h169zM397.001 269.002l-63 220
l-66 -220h129zM334.001 776.002c-11.333 0 -20.833 -3 -28.5 -9s-11.5 -13.667 -11.5 -23c0 -10 3.83301 -18.167 11.5 -24.5s17.167 -9.5 28.5 -9.5s20.833 3.16699 28.5 9.5s11.5 14.5 11.5 24.5c0 9.33301 -3.83301 17 -11.5 23s-17.167 9 -28.5 9z" />
    <glyph glyph-name="aringacute" unicode="&#x1fb;" horiz-adv-x="599" 
d="M203 -10c-26 0 -50.3311 4.33398 -72.998 13.001s-42.167 20.5 -58.5 35.5s-29.166 32.833 -38.499 53.5s-14 43 -14 67c0 26.667 5.66699 51 17 73s27 41 47 57s43.833 28.333 71.5 37s58.167 13 91.5 13c42.667 0 78 -6.66699 106 -20v16
c0 24.667 -7.16699 43 -21.5 55s-37.5 18 -69.5 18c-30 0 -57.667 -4.83301 -83 -14.5s-52 -23.834 -80 -42.501l-55 118c69.333 44.667 148.333 67 237 67c84 0 148.667 -18.667 194 -56s68 -93.333 68 -168v-102c0 -18 2.66699 -30.5 8 -37.5s14.666 -11.167 27.999 -12.5
v-160c-15.333 -3.33301 -29.833 -5.83301 -43.5 -7.5s-25.834 -2.5 -36.501 -2.5c-34 0 -59.833 6.16699 -77.5 18.5s-29.167 30.5 -34.5 54.5l-4 19c-23.333 -30 -50.333 -52.833 -81 -68.5s-63.334 -23.5 -98.001 -23.5zM260.002 126.001
c11.333 0 22.998 1.83301 34.998 5.5s22.667 8.5 32 14.5c7.33301 5.33301 13.333 11.166 18 17.499s7 12.833 7 19.5v39c-11.333 4 -23.666 7.33301 -36.999 10s-25.333 4 -36 4c-23.333 0 -42.666 -5.66699 -57.999 -17s-23 -25.666 -23 -42.999
c0 -14.667 5.83301 -26.667 17.5 -36s26.5 -14 44.5 -14zM163 643.001c0 29.333 10.5 51.166 31.5 65.499s49.5 21.5 85.5 21.5s64.5 -7.16699 85.5 -21.5s31.5 -36.166 31.5 -65.499s-10.5 -51.166 -31.5 -65.499s-49.5 -21.5 -85.5 -21.5s-64.5 7.16699 -85.5 21.5
s-31.5 36.166 -31.5 65.499zM280 676.001c-11.333 0 -20.833 -3 -28.5 -9s-11.5 -13.667 -11.5 -23c0 -10 3.83301 -18.167 11.5 -24.5s17.167 -9.5 28.5 -9.5s20.833 3.16699 28.5 9.5s11.5 14.5 11.5 24.5c0 9.33301 -3.83301 17 -11.5 23s-17.167 9 -28.5 9zM338 744.001
l-120 32l50 142h169z" />
    <glyph glyph-name="AEacute" unicode="&#x1fc;" horiz-adv-x="971" 
d="M405 710h527v-170h-282v-94h228v-170h-228v-106h291v-170h-485v139h-201l-75 -139h-206zM441 309v186l-104 -186h104zM683 740l-120 32l50 142h169z" />
    <glyph glyph-name="aeacute" unicode="&#x1fd;" horiz-adv-x="942" 
d="M203 -10c-26 0 -50.332 4.33301 -72.999 13s-42.167 20.5 -58.5 35.5s-29.166 32.833 -38.499 53.5s-14 43 -14 67c0 26.667 5.66699 51 17 73s27 41 47 57s43.833 28.333 71.5 37s58.167 13 91.5 13c42.667 0 78 -6.66699 106 -20v16c-0.666992 24.667 -8 43 -22 55
s-37 18 -69 18c-30 0 -57.667 -4.83301 -83 -14.5s-52 -23.834 -80 -42.501l-55 118c69.333 44.667 148.333 67 237 67c78 0 139.667 -16.667 185 -50c22.667 15.333 48.5 27.5 77.5 36.5s61.5 13.5 97.5 13.5c46.667 0 88 -7.5 124 -22.5s66.167 -35 90.5 -60
s42.666 -54 54.999 -87s18.5 -67.5 18.5 -103.5c0 -10 -0.5 -20.167 -1.5 -30.5s-2.16699 -19.5 -3.5 -27.5h-369c2 -28 12.333 -48.167 31 -60.5s39 -18.5 61 -18.5c20.667 0 40.167 4.66699 58.5 14s30.5 22.333 36.5 39l161 -46
c-21.333 -42 -54.166 -76.333 -98.499 -103s-98.833 -40 -163.5 -40c-53.333 0 -99.5 9.33301 -138.5 28s-70.5 43.334 -94.5 74.001c-12.667 -18 -27.334 -33.5 -44.001 -46.5s-34 -23.5 -52 -31.5s-36.333 -14 -55 -18s-36.334 -6 -53.001 -6zM260.001 126
c11.333 0 22.998 1.83301 34.998 5.5s22.667 8.5 32 14.5c7.33301 5.33301 13.333 11.166 18 17.499s7 12.833 7 19.5v39c-11.333 4 -23.666 7.33301 -36.999 10s-25.333 4 -36 4c-23.333 0 -42.666 -5.66699 -57.999 -17s-23 -25.666 -23 -42.999
c0 -14.667 5.83301 -26.667 17.5 -36s26.5 -14 44.5 -14zM723.999 319c-3.33301 25.333 -12.668 45.333 -28.001 60s-35 22 -59 22s-43.667 -7.33301 -59 -22s-24.666 -34.667 -27.999 -60h174zM522.997 556l-120 32l50 142h169z" />
    <glyph glyph-name="Oslashacute" unicode="&#x1fe;" horiz-adv-x="763" 
d="M745 710l-89.999 -122.998c28 -33.333 49.5 -70.333 64.5 -111s22.5 -82 22.5 -124c0 -46.667 -9 -91.5 -27 -134.5s-43 -81 -75 -114s-70.167 -59.5 -114.5 -79.5s-92.833 -30 -145.5 -30c-49.333 0 -95 8.66699 -137 26l-14 -20h-209l87 120
c-28 33.333 -49.333 70.166 -64 110.499s-22 82.166 -22 125.499c0 46.667 9 91.667 27 135s43.167 81.5 75.5 114.5s70.666 59.333 114.999 79s92.833 29.5 145.5 29.5c24.667 0 48.167 -2.33301 70.5 -7s43.833 -11 64.5 -19l16 22h210zM439.001 740.002l-120 32l50 142
h169zM219.001 354.002c0 -24 2.99805 -46.333 8.99805 -67l183 251c-10 2 -20 3 -30 3c-28 0 -52.167 -5.33301 -72.5 -16s-37.166 -24.834 -50.499 -42.501s-23.166 -37.667 -29.499 -60s-9.5 -45.166 -9.5 -68.499zM543.999 356.002c0 23.333 -3 44.999 -9 64.999
l-183 -252c4.66699 -0.666992 9.5 -1.16699 14.5 -1.5s10.167 -0.5 15.5 -0.5c28 0 52.333 5.5 73 16.5s37.5 25.333 50.5 43s22.667 37.834 29 60.501s9.5 45.667 9.5 69z" />
    <glyph glyph-name="oslashacute" unicode="&#x1ff;" horiz-adv-x="614" 
d="M365 556l-120 32l50 142h169zM14 -6l74 82.999c-23.333 25.333 -40.666 53.833 -51.999 85.5s-17 65.167 -17 100.5c0 36 6.16699 70.5 18.5 103.5s30.666 62 54.999 87s54.333 45 90 60s77.167 22.5 124.5 22.5c30.667 0 58.667 -3.16699 84 -9.5
s48.666 -15.166 69.999 -26.499l29 32h101l-70 -78c24.667 -25.333 43.167 -54.5 55.5 -87.5s18.5 -67.5 18.5 -103.5s-6.16699 -70.5 -18.5 -103.5s-30.666 -62 -54.999 -87s-54.5 -45 -90.5 -60s-77.333 -22.5 -124 -22.5c-32 0 -61.5 3.5 -88.5 10.5
s-51.167 16.833 -72.5 29.5l-32 -36h-100zM307 149.999c27.333 0 49.667 9.99902 67 29.999s26 47.667 26 83c0 18.667 -2.66699 35.334 -8 50.001l-133 -150c13.333 -8.66699 29.333 -13 48 -13zM214.001 262.998c0 -8 0.499023 -15.5 1.49902 -22.5
s2.16699 -13.833 3.5 -20.5l130 146c-14.667 6.66699 -28.667 10 -42 10c-27.333 0 -49.666 -10 -66.999 -30s-26 -47.667 -26 -83z" />
    <glyph glyph-name="Adblgrave" unicode="&#x200;" horiz-adv-x="667" 
d="M245 710h178l246 -710h-198l-43 139h-189l-42 -139h-199zM397 269l-63 220l-66 -220h129zM323 915h139l40 -142l-90 -32zM133 915h139l40 -142l-90 -32z" />
    <glyph glyph-name="adblgrave" unicode="&#x201;" horiz-adv-x="599" 
d="M203 -10c-26 0 -50.3311 4.33398 -72.998 13.001s-42.167 20.5 -58.5 35.5s-29.166 32.833 -38.499 53.5s-14 43 -14 67c0 26.667 5.66699 51 17 73s27 41 47 57s43.833 28.333 71.5 37s58.167 13 91.5 13c42.667 0 78 -6.66699 106 -20v16
c0 24.667 -7.16699 43 -21.5 55s-37.5 18 -69.5 18c-30 0 -57.667 -4.83301 -83 -14.5s-52 -23.834 -80 -42.501l-55 118c69.333 44.667 148.333 67 237 67c84 0 148.667 -18.667 194 -56s68 -93.333 68 -168v-102c0 -18 2.66699 -30.5 8 -37.5s14.666 -11.167 27.999 -12.5
v-160c-15.333 -3.33301 -29.833 -5.83301 -43.5 -7.5s-25.834 -2.5 -36.501 -2.5c-34 0 -59.833 6.16699 -77.5 18.5s-29.167 30.5 -34.5 54.5l-4 19c-23.333 -30 -50.333 -52.833 -81 -68.5s-63.334 -23.5 -98.001 -23.5zM260.002 126.001
c11.333 0 22.998 1.83301 34.998 5.5s22.667 8.5 32 14.5c7.33301 5.33301 13.333 11.166 18 17.499s7 12.833 7 19.5v39c-11.333 4 -23.666 7.33301 -36.999 10s-25.333 4 -36 4c-23.333 0 -42.666 -5.66699 -57.999 -17s-23 -25.666 -23 -42.999
c0 -14.667 5.83301 -26.667 17.5 -36s26.5 -14 44.5 -14zM255 730.001h139l40 -142l-90 -32zM65 730.001h139l40 -142l-90 -32z" />
    <glyph glyph-name="Ainvertedbreve" unicode="&#x202;" horiz-adv-x="667" 
d="M245 710h178l246 -710h-198l-43 139h-189l-42 -139h-199zM397 269l-63 220l-66 -220h129zM334 833c-16.667 0 -31 -7.99902 -43 -23.999s-18 -35 -18 -57h-98c0 24 3.83301 45.833 11.5 65.5s18.5 36.667 32.5 51s30.833 25.5 50.5 33.5s41.167 12 64.5 12
s44.833 -4 64.5 -12s36.5 -19.167 50.5 -33.5s24.833 -31.333 32.5 -51s11.5 -41.5 11.5 -65.5h-98c-2 23.333 -8.83301 42.666 -20.5 57.999s-25.167 23 -40.5 23z" />
    <glyph glyph-name="ainvertedbreve" unicode="&#x203;" horiz-adv-x="599" 
d="M203 -10c-26 0 -50.3311 4.33398 -72.998 13.001s-42.167 20.5 -58.5 35.5s-29.166 32.833 -38.499 53.5s-14 43 -14 67c0 26.667 5.66699 51 17 73s27 41 47 57s43.833 28.333 71.5 37s58.167 13 91.5 13c42.667 0 78 -6.66699 106 -20v16
c0 24.667 -7.16699 43 -21.5 55s-37.5 18 -69.5 18c-30 0 -57.667 -4.83301 -83 -14.5s-52 -23.834 -80 -42.501l-55 118c69.333 44.667 148.333 67 237 67c84 0 148.667 -18.667 194 -56s68 -93.333 68 -168v-102c0 -18 2.66699 -30.5 8 -37.5s14.666 -11.167 27.999 -12.5
v-160c-15.333 -3.33301 -29.833 -5.83301 -43.5 -7.5s-25.834 -2.5 -36.501 -2.5c-34 0 -59.833 6.16699 -77.5 18.5s-29.167 30.5 -34.5 54.5l-4 19c-23.333 -30 -50.333 -52.833 -81 -68.5s-63.334 -23.5 -98.001 -23.5zM260.002 126.001
c11.333 0 22.998 1.83301 34.998 5.5s22.667 8.5 32 14.5c7.33301 5.33301 13.333 11.166 18 17.499s7 12.833 7 19.5v39c-11.333 4 -23.666 7.33301 -36.999 10s-25.333 4 -36 4c-23.333 0 -42.666 -5.66699 -57.999 -17s-23 -25.666 -23 -42.999
c0 -14.667 5.83301 -26.667 17.5 -36s26.5 -14 44.5 -14zM294 649.001c-16.667 0 -31 -7.99902 -43 -23.999s-18 -35 -18 -57h-98c0 24 3.83301 45.833 11.5 65.5s18.5 36.667 32.5 51s30.833 25.5 50.5 33.5s41.167 12 64.5 12s44.833 -4 64.5 -12s36.5 -19.167 50.5 -33.5
s24.833 -31.333 32.5 -51s11.5 -41.5 11.5 -65.5h-98c-2 23.333 -8.83301 42.666 -20.5 57.999s-25.167 23 -40.5 23z" />
    <glyph glyph-name="Edblgrave" unicode="&#x204;" horiz-adv-x="597" 
d="M567 170v-170h-506v710h497v-170h-302v-100h258v-158h-258v-112h311zM290 915h139l40 -142l-90 -32zM100 915h139l40 -142l-90 -32z" />
    <glyph glyph-name="edblgrave" unicode="&#x205;" 
d="M307 -10c-46 0 -86.999 7.16699 -122.999 21.5s-66.167 33.833 -90.5 58.5s-42.833 53 -55.5 85s-19 65.667 -19 101c0 38 6.16699 74 18.5 108s30.666 63.667 54.999 89s54.333 45.5 90 60.5s77.167 22.5 124.5 22.5c46.667 0 88 -7.5 124 -22.5s66.167 -35 90.5 -60
s42.666 -54 54.999 -87s18.5 -67.5 18.5 -103.5c0 -10 -0.5 -20.167 -1.5 -30.5s-2.16699 -19.5 -3.5 -27.5h-369c2 -28 12.333 -48.167 31 -60.5s39 -18.5 61 -18.5c20.667 0 40.167 4.66699 58.5 14s30.5 22.333 36.5 39l161 -46
c-21.333 -42 -54.166 -76.333 -98.499 -103s-98.833 -40 -163.5 -40zM391.001 319c-3.33301 25.333 -12.668 45.333 -28.001 60s-35 22 -59 22s-43.667 -7.33301 -59 -22s-24.666 -34.667 -27.999 -60h174zM294.999 730h139l40 -142l-90 -32zM104.999 730h139l40 -142
l-90 -32z" />
    <glyph glyph-name="Einvertedbreve" unicode="&#x206;" horiz-adv-x="597" 
d="M567 170v-170h-506v710h497v-170h-302v-100h258v-158h-258v-112h311zM313 833c-16.667 0 -31 -7.99902 -43 -23.999s-18 -35 -18 -57h-98c0 24 3.83301 45.833 11.5 65.5s18.5 36.667 32.5 51s30.833 25.5 50.5 33.5s41.167 12 64.5 12s44.833 -4 64.5 -12
s36.5 -19.167 50.5 -33.5s24.833 -31.333 32.5 -51s11.5 -41.5 11.5 -65.5h-98c-2 23.333 -8.83301 42.666 -20.5 57.999s-25.167 23 -40.5 23z" />
    </font>
</defs>
</svg>
